<?xml version="1.0" standalone="no"?>
<!DOCTYPE svg PUBLIC "-//W3C//DTD SVG 1.1//EN" "http://www.w3.org/Graphics/SVG/1.1/DTD/svg11.dtd" >
<svg xmlns="http://www.w3.org/2000/svg" xmlns:xlink="http://www.w3.org/1999/xlink" version="1.1">
<metadata>
Created by FontForge 20201107 at Mon Jul 13 20:43:00 2020
 By 
Copyright 2019 The Commissioner Project Authors (github.com/kosbarts/Commissioner)
</metadata>
<defs>
<font id="Heraclito-SemiBold" horiz-adv-x="0" >
  <font-face 
    font-family="Heraclito SemiBold"
    font-weight="600"
    font-stretch="normal"
    units-per-em="2000"
    panose-1="0 0 0 0 0 0 0 0 0 0"
    ascent="1600"
    descent="-400"
    x-height="996"
    cap-height="1426"
    bbox="-291 -575 2713 2354"
    underline-thickness="50"
    underline-position="-175"
    unicode-range="U+0020-FB02"
  />
<missing-glyph horiz-adv-x="1240" 
d="M70 -384v2020h1100v-2020h-1100zM180 -273h879v1798h-879v-1798zM628 422q-105 0 -157 44.5t-52 116.5q0 81 50.5 131.5t112.5 95.5q53 38 97 80.5t44 101.5q0 52 -39.5 80.5t-111.5 28.5q-54 0 -115 -16.5t-122 -49.5l-8 175q46 20 121.5 40.5t168.5 20.5q143 0 223 -58
t80 -178q0 -78 -32.5 -134t-80 -97t-91.5 -74q-46 -34 -80.5 -65.5t-34.5 -70.5q0 -41 26.5 -56t60.5 -15q25 0 48 6t40 14l7 -96q-25 -10 -66.5 -17.5t-88.5 -7.5zM601 20q-62 0 -99 38t-37 95q0 58 37 94.5t99 36.5q64 0 100 -36.5t36 -94.5q0 -57 -36 -95t-100 -38z" />
    <glyph glyph-name="uniFB01" unicode="fi" horiz-adv-x="1352" 
d="M213 0v803h-172v193h172v109q0 152 54.5 236.5t143 118t191.5 33.5q64 0 118.5 -9t86.5 -21l-21 -211q-34 13 -71 21t-75 8q-183 0 -183 -182v-103h306v-193h-296v-803h-254zM953 0v996l254 8v-1004h-254zM1077 1175q-73 0 -117 36.5t-44 116.5q0 73 44 111.5t119 38.5
t118.5 -40t43.5 -110q0 -80 -43.5 -116.5t-120.5 -36.5z" />
    <glyph glyph-name="uniFB02" unicode="fl" horiz-adv-x="1342" 
d="M213 0v804h-172v192h172v109q0 152 54.5 236.5t143 118t191.5 33.5q58 0 107 -7.5t77 -16.5v-217q-34 13 -71 21t-75 8q-183 0 -183 -182v-103h306v-192h-296v-804h-254zM948 0v1465l254 24v-1489h-254z" />
    <glyph glyph-name="f_f" unicode="ff" horiz-adv-x="1569" 
d="M973 0v803h-173v193h173v109q0 152 54 236.5t142.5 118t191.5 33.5q64 0 118.5 -9t86.5 -21l-20 -211q-35 13 -72 21t-74 8q-183 0 -183 -182v-103h305v-193h-295v-803h-254zM213 0v803h-172v193h172v109q0 152 54.5 236.5t143 118t191.5 33.5q64 0 118.5 -9t86.5 -21
l-21 -211q-34 13 -71 21t-75 8q-183 0 -183 -182v-103h306v-193h-296v-803h-254z" />
    <glyph glyph-name="f_f_i" unicode="ffi" horiz-adv-x="2111" 
d="M973 0v803h-173v193h173v109q0 152 54 236.5t142.5 118t191.5 33.5q64 0 118.5 -9t86.5 -21l-20 -211q-35 13 -72 21t-74 8q-183 0 -183 -182v-103h305v-193h-295v-803h-254zM213 0v803h-172v193h172v109q0 152 54.5 236.5t143 118t191.5 33.5q64 0 118.5 -9t86.5 -21
l-21 -211q-34 13 -71 21t-75 8q-183 0 -183 -182v-103h306v-193h-296v-803h-254zM1713 0v996l254 8v-1004h-254zM1837 1175q-73 0 -117 36.5t-44 116.5q0 73 44 111.5t119 38.5t118.5 -40t43.5 -110q0 -80 -43.5 -116.5t-120.5 -36.5z" />
    <glyph glyph-name="f_f_l" unicode="ffl" horiz-adv-x="2101" 
d="M213 0v803h-172v193h172v109q0 152 54.5 236.5t143 118t191.5 33.5q64 0 118.5 -9t86.5 -21l-21 -211q-34 13 -71 21t-75 8q-183 0 -183 -182v-103h306v-193h-296v-803h-254zM973 0v803h-173v193h173v109q0 152 54 236.5t142.5 118t191.5 33.5q58 0 107 -7.5t78 -16.5
v-217q-35 13 -72 21t-74 8q-183 0 -183 -182v-103h305v-193h-295v-803h-254zM1708 0v1465l254 24v-1489h-254z" />
    <glyph glyph-name=".notdef" horiz-adv-x="1240" 
d="M70 -384v2020h1100v-2020h-1100zM180 -273h879v1798h-879v-1798zM628 422q-105 0 -157 44.5t-52 116.5q0 81 50.5 131.5t112.5 95.5q53 38 97 80.5t44 101.5q0 52 -39.5 80.5t-111.5 28.5q-54 0 -115 -16.5t-122 -49.5l-8 175q46 20 121.5 40.5t168.5 20.5q143 0 223 -58
t80 -178q0 -78 -32.5 -134t-80 -97t-91.5 -74q-46 -34 -80.5 -65.5t-34.5 -70.5q0 -41 26.5 -56t60.5 -15q25 0 48 6t40 14l7 -96q-25 -10 -66.5 -17.5t-88.5 -7.5zM601 20q-62 0 -99 38t-37 95q0 58 37 94.5t99 36.5q64 0 100 -36.5t36 -94.5q0 -57 -36 -95t-100 -38z" />
    <glyph glyph-name="uni0000" 
 />
    <glyph glyph-name="uni0000" 
 />
    <glyph glyph-name="uni000D" horiz-adv-x="382" 
 />
    <glyph glyph-name="space" unicode=" " horiz-adv-x="382" 
 />
    <glyph glyph-name="exclam" unicode="!" horiz-adv-x="510" 
d="M154 518q-7 240 -17.5 476.5t-22.5 470.5l285 8q-11 -235 -21.5 -473.5t-17.5 -478.5zM254 -25q-77 0 -122 47t-45 118t45 116t123 45q79 0 123.5 -45t44.5 -116t-44.5 -118t-124.5 -47z" />
    <glyph glyph-name="quotedbl" unicode="&#x22;" horiz-adv-x="829" 
d="M108 824q-6 167 -16 331.5t-21 327.5l260 6q-11 -164 -21 -330t-16 -333zM501 824q-6 167 -16 331.5t-21 327.5l260 6q-11 -164 -21 -330t-16 -333z" />
    <glyph glyph-name="numbersign" unicode="#" horiz-adv-x="1385" 
d="M222 0q13 69 26 136q12 67 26 142h-244v190h279l72 384h-246v190h282q14 74 27 142q12 67 26 142h195q-14 -73 -27 -140q-13 -68 -27 -144h296q14 74 27 142q13 67 27 142h194q-14 -73 -26.5 -140.5t-26.5 -143.5h254v-190h-290l-72 -384h257v-190h-293
q-13 -73 -25.5 -140t-26.5 -138h-194q13 69 26 136q12 67 26 142h-296q-14 -73 -26.5 -140t-25.5 -138h-194zM503 468h296l73 384h-296z" />
    <glyph glyph-name="dollar" unicode="$" horiz-adv-x="1140" 
d="M488 -274v254q-111 9 -214 37t-163 60l21 227q82 -44 173 -72.5t183 -37.5v408h-1q-126 38 -214.5 86.5t-135 122.5t-46.5 190q0 159 98.5 267t298.5 125v213h191v-218q93 -12 177.5 -37.5t138.5 -53.5l-21 -231q-69 44 -146 70t-149 36v-388q149 -48 235.5 -101.5
t123 -124.5t36.5 -174q0 -162 -95 -270.5t-300 -131.5v-256h-191zM331 1002q0 -57 38 -90.5t119 -64.5v319q-67 -17 -112 -57t-45 -107zM834 381q0 58 -40.5 94t-114.5 65v-337q71 17 113 60.5t42 117.5z" />
    <glyph glyph-name="percent" unicode="%" horiz-adv-x="1840" 
d="M449 732q-173 0 -281 97t-108 264q0 103 49.5 184.5t137.5 129t203 47.5t202.5 -47.5t137 -129t49.5 -184.5q0 -167 -108 -264t-282 -97zM384 0q64 110 126 216.5t142 242.5l290 496q82 140 145.5 248.5t129.5 222.5h228q-67 -114 -130 -222q-63 -109 -145 -249
l-290 -496q-80 -136 -142 -242q-62 -107 -127 -217h-227zM449 895q93 0 145.5 52t52.5 144q0 86 -52 142.5t-145 56.5q-92 0 -145.5 -56t-53.5 -143q0 -92 53 -144t145 -52zM1381 -25q-173 0 -281.5 97t-108.5 264q0 103 49.5 185t137.5 129t203 47q116 0 203.5 -47
t136.5 -129t49 -185q0 -167 -108 -264t-281 -97zM1381 138q93 0 145.5 52t52.5 144q0 86 -52.5 142.5t-145.5 56.5q-92 0 -145.5 -56t-53.5 -143q0 -92 53.5 -144t145.5 -52z" />
    <glyph glyph-name="ampersand" unicode="&#x26;" horiz-adv-x="1508" 
d="M527 -23q-149 0 -248.5 53.5t-149 143t-49.5 200.5q0 113 44.5 197.5t116.5 144.5t156 101q-55 69 -86 139.5t-31 151.5q0 111 53 188.5t142.5 117.5t198.5 40q112 0 202.5 -38t143.5 -111t53 -178q0 -104 -47 -174.5t-117 -117t-141 -78.5l233 -244q54 86 107 168
q52 82 105 166l211 -137q-71 -90 -141 -178t-137 -172q85 -90 171 -180t171 -180h-315q-45 47 -91 96l-92 96h-21q-87 -101 -191 -158t-251 -57zM534 1111q0 -53 25.5 -104t81.5 -115q95 40 148.5 93.5t53.5 134.5q0 64 -44.5 107.5t-111.5 43.5t-110 -44.5t-43 -115.5z
M328 404q0 -94 61.5 -156t176.5 -62q144 0 273 163l-312 326q-91 -46 -145 -113.5t-54 -157.5z" />
    <glyph glyph-name="quotesingle" unicode="'" horiz-adv-x="436" 
d="M108 824q-6 167 -16 331.5t-21 327.5l260 6q-11 -164 -21 -330t-16 -333z" />
    <glyph glyph-name="parenleft" unicode="(" horiz-adv-x="806" 
d="M577 -257q-139 91 -246.5 220.5t-169 299.5t-61.5 384q0 215 61.5 385t169 299t246.5 220l164 -77q-101 -85 -188.5 -199.5t-141 -269t-53.5 -358.5q0 -203 53.5 -358t141 -269.5t188.5 -199.5z" />
    <glyph glyph-name="parenright" unicode=")" horiz-adv-x="806" 
d="M229 -257l-164 77q101 85 188.5 199.5t141 269t53.5 358.5q0 203 -54 358t-141 269.5t-188 199.5l164 77q138 -91 246 -220.5t169.5 -299.5t61.5 -384q0 -215 -61.5 -385t-169.5 -299t-246 -220z" />
    <glyph glyph-name="asterisk" unicode="*" horiz-adv-x="972" 
d="M401 575q6 88 13 177q6 88 12 177q-72 -51 -145 -102l-146 -102l-85 145q80 41 161 82l160 82q-80 41 -160.5 82t-160.5 81l85 146q74 -51 146 -102t146 -102q-7 88 -13.5 176.5t-12.5 177.5h170q-7 -89 -13 -177q-6 -89 -13 -177l146 102q72 51 145 102l86 -146
q-81 -40 -161.5 -81t-160.5 -82q80 -41 161 -82t161 -82l-86 -145q-73 51 -145.5 102t-145.5 102q7 -89 13 -177.5t13 -176.5h-170z" />
    <glyph glyph-name="plus" unicode="+" horiz-adv-x="1190" 
d="M481 109v384h-371v222h371v385h228v-385h372v-222h-372v-384h-228z" />
    <glyph glyph-name="comma" unicode="," horiz-adv-x="487" 
d="M38 -314q57 85 80.5 176t23.5 203v232l118 10q73 -8 106 -56.5t33 -119.5q0 -91 -35 -175.5t-89 -153.5t-111 -113z" />
    <glyph glyph-name="hyphen" unicode="-" horiz-adv-x="850" 
d="M110 488v222h630v-222h-630z" />
    <glyph glyph-name="period" unicode="." horiz-adv-x="510" 
d="M254 -25q-77 0 -122 47t-45 118t45 116t123 45q79 0 123.5 -45t44.5 -116t-44.5 -118t-124.5 -47z" />
    <glyph glyph-name="slash" unicode="/" horiz-adv-x="902" 
d="M41 0q45 111 87 216q41 104 96 240l200 496q57 141 101 250q43 109 90 224h247q-47 -115 -91 -224t-102 -255l-198 -491q-55 -136 -97 -240q-42 -105 -87 -216h-246z" />
    <glyph glyph-name="zero" unicode="0" horiz-adv-x="1321" 
d="M666 -24q-203 0 -329 94t-184 255.5t-58 362.5q0 211 61 372t186 251.5t317 90.5q194 0 320 -90.5t187 -251.5t61 -371q0 -216 -62.5 -376.5t-187.5 -248.5t-311 -88zM662 197q107 0 171.5 63.5t94 175t29.5 253.5q0 224 -71.5 357.5t-223.5 133.5q-104 0 -169.5 -62.5
t-96 -173t-30.5 -255.5q0 -144 29 -255t94.5 -174t172.5 -63z" />
    <glyph glyph-name="one" unicode="1" horiz-adv-x="889" 
d="M442 0v1082q-82 -42 -165 -84.5t-166 -83.5l-61 205l264 132q131 65 263 131l127 -8v-1374h-262z" />
    <glyph glyph-name="two" unicode="2" horiz-adv-x="1128" 
d="M90 0v179l227 195q200 170 313.5 309.5t113.5 278.5q0 216 -239 216q-96 0 -198.5 -38.5t-199.5 -102.5l-24 251q91 46 216.5 80t255.5 34q222 0 340.5 -108.5t118.5 -297.5q0 -164 -105 -324t-317 -331l-142 -115h584v-226h-944z" />
    <glyph glyph-name="three" unicode="3" horiz-adv-x="1157" 
d="M557 -26q-139 0 -265.5 31.5t-211.5 75.5l21 241q108 -58 219.5 -91.5t209.5 -33.5q145 0 208 55.5t63 141.5q0 101 -83 154t-235 53h-155v204h140q154 0 223 55t69 142q0 88 -65.5 131.5t-169.5 43.5q-95 0 -197 -36.5t-198 -98.5l-25 244q89 47 211.5 81.5t250.5 34.5
q216 0 339.5 -94.5t123.5 -254.5q0 -129 -75.5 -208.5t-181.5 -102.5v-21q72 -13 140.5 -54t112.5 -113.5t44 -180.5q0 -114 -55 -204.5t-169 -142.5t-289 -52z" />
    <glyph glyph-name="four" unicode="4" horiz-adv-x="1218" 
d="M687 0v298h-635v176q61 87 140 198t144 203l169 240q46 64 92 129t92 131h259v-851h218v-226h-218v-298h-261zM449 697q-32 -44 -62 -88q-31 -45 -62 -89h372v529q-10 -15 -21 -30z" />
    <glyph glyph-name="five" unicode="5" horiz-adv-x="1160" 
d="M551 -25q-137 0 -261.5 31.5t-209.5 75.5l21 241q108 -58 218 -91.5t207 -33.5q143 0 210.5 65.5t67.5 183.5q0 128 -77 184t-195 56q-66 0 -129.5 -15.5t-129.5 -58.5l-114 8v754h840v-226h-590q-1 -59 -2 -117.5t-2 -115.5v-76h21q106 53 230 53q116 0 210.5 -48.5
t150.5 -146t56 -243.5q0 -214 -129.5 -347t-392.5 -133z" />
    <glyph glyph-name="six" unicode="6" horiz-adv-x="1227" 
d="M644 -26q-271 0 -410 176t-139 517q0 251 70.5 414t199 242t302.5 79q110 0 208.5 -25t181.5 -63l-25 -238q-81 50 -172.5 75.5t-175.5 25.5q-163 0 -240.5 -104t-89.5 -314l22 -1q64 65 150.5 101.5t191.5 36.5q126 0 221 -53.5t148 -150t53 -226.5q0 -127 -53.5 -239
t-163.5 -182.5t-279 -70.5zM638 692q-66 0 -138.5 -25.5t-145.5 -100.5q15 -190 87 -279.5t192 -89.5q127 0 186.5 77.5t59.5 179.5q0 101 -58 169.5t-183 68.5z" />
    <glyph glyph-name="seven" unicode="7" horiz-adv-x="1085" 
d="M193 0q59 129 118 259q58 129 115 255l180 397q27 59 54 118.5t53 118.5h-663v226h965v-176q-53 -118 -103.5 -231.5t-103.5 -233.5l-119 -266q-51 -117 -103 -233t-104 -234h-289z" />
    <glyph glyph-name="eight" unicode="8" horiz-adv-x="1229" 
d="M616 -26q-181 0 -298 54t-174 147t-57 210q0 111 43.5 183t107.5 112t128 54v21q-95 24 -166.5 99t-71.5 196q0 158 129.5 255t358.5 97q226 0 355.5 -97t129.5 -255q0 -121 -71.5 -196t-166.5 -99v-21q64 -14 128.5 -54.5t107.5 -112.5t43 -182q0 -117 -56.5 -210
t-173.5 -147t-296 -54zM616 823q109 0 170 52.5t61 134.5q0 85 -64 130t-167 45q-106 0 -169 -45t-63 -130q0 -82 60.5 -134.5t171.5 -52.5zM616 198q139 0 202.5 61t63.5 153q0 105 -76.5 159t-191.5 54t-190.5 -54t-75.5 -159q0 -92 63.5 -153t204.5 -61z" />
    <glyph glyph-name="nine" unicode="9" horiz-adv-x="1227" 
d="M560 -26q-110 0 -208.5 25t-181.5 63l24 238q82 -50 173.5 -75.5t175.5 -25.5q163 0 240 104.5t90 313.5l-22 1q-65 -65 -151 -101.5t-191 -36.5q-127 0 -222 53.5t-147.5 150t-52.5 226.5q0 127 53.5 239.5t163.5 182.5t279 70q270 0 409.5 -176t139.5 -517
q0 -251 -70.5 -413.5t-199.5 -242t-302 -79.5zM348 922q0 -100 58 -169t182 -69q67 0 139 25.5t146 101.5q-15 190 -87.5 279t-191.5 89q-127 0 -186.5 -77.5t-59.5 -179.5z" />
    <glyph glyph-name="colon" unicode=":" horiz-adv-x="510" 
d="M254 696q-77 0 -122 47t-45 118t45 116t123 45q79 0 123.5 -45t44.5 -116t-44.5 -118t-124.5 -47zM254 -25q-77 0 -122 47t-45 118t45 116t123 45q79 0 123.5 -45t44.5 -116t-44.5 -118t-124.5 -47z" />
    <glyph glyph-name="semicolon" unicode=";" horiz-adv-x="510" 
d="M254 696q-77 0 -122 47t-45 118t45 116t123 45q79 0 123.5 -45t44.5 -116t-44.5 -118t-124.5 -47zM61 -314q57 85 80.5 176t23.5 203v232l118 10q73 -8 106 -56.5t33 -119.5q0 -91 -35 -175.5t-89 -153.5t-111 -113z" />
    <glyph glyph-name="less" unicode="&#x3c;" horiz-adv-x="1150" 
d="M1041 120q-100 40 -194 77t-177 70l-193 78q-81 33 -175 70t-192 76v224q99 39 193 77q94 37 175 69l193 78q82 33 176 70.5t194 76.5v-235q-96 -38 -193 -77l-194 -78l-205 -82v-22l205 -82q96 -38 194 -77.5t193 -77.5v-235z" />
    <glyph glyph-name="equal" unicode="=" horiz-adv-x="1150" 
d="M120 729v221h911v-221h-911zM120 258v222h911v-222h-911z" />
    <glyph glyph-name="greater" unicode="&#x3e;" horiz-adv-x="1150" 
d="M110 120v235q95 38 193 78q97 39 194 77l204 82v22l-204 82q-97 39 -194.5 78l-192.5 77v235q99 -39 193 -76.5t176 -70.5l194 -78q81 -32 175 -69q93 -38 193 -77v-224q-100 -39 -193.5 -76t-174.5 -70l-194 -78q-82 -33 -176 -70.5t-193 -76.5z" />
    <glyph glyph-name="question" unicode="?" horiz-adv-x="886" 
d="M445 458q-130 0 -193.5 55t-63.5 148q0 95 57 160.5t133 120.5q65 48 117.5 97.5t52.5 113.5q0 56 -46.5 89t-125.5 33q-67 0 -142.5 -25t-148.5 -68l-10 242q58 22 150.5 48t205.5 26q176 0 274.5 -72.5t98.5 -228.5q0 -96 -39 -165t-97 -119.5t-113 -89.5
q-57 -41 -98 -78t-41 -74q0 -36 31.5 -52.5t71.5 -16.5q31 0 59 7.5t49 17.5l9 -138q-31 -11 -82.5 -21t-108.5 -10zM413 -25q-77 0 -122 47t-45 118t45 116t123 45q79 0 123.5 -45t44.5 -116t-44.5 -118t-124.5 -47z" />
    <glyph glyph-name="at" unicode="@" horiz-adv-x="1777" 
d="M950 -279q-240 0 -417 80t-286 218.5t-145 315.5q-18 83 -18 171q0 97 22 198q48 233 172.5 382t297.5 220.5t367 71.5q191 0 342 -68.5t250.5 -189t138.5 -278.5q20 -82 20 -171q0 -81 -17 -168q-27 -140 -92.5 -223.5t-143 -120.5t-142.5 -37q-118 0 -187 46t-93 106
h-17q-47 -72 -115 -103t-131 -31q-114 0 -185.5 66.5t-96.5 175.5q-12 53 -12 110q0 59 13 122q21 105 71.5 187.5t125 130t167.5 47.5q78 0 138.5 -33.5t96.5 -89.5h18l28 101l182 11q-22 -106 -46 -221q-25 -116 -49 -231l-8 -38q-9 -45 -9 -79q0 -46 17 -71
q30 -45 88 -45q76 0 136.5 68t84.5 184q16 80 16 152q0 111 -37 205q-61 156 -204.5 245t-350.5 89q-268 0 -443 -145.5t-232 -409.5q-20 -91 -20 -177q0 -66 12 -129q27 -145 114 -255.5t232.5 -173.5t346.5 -63q116 0 261 33.5t305 137.5v-174q-124 -78 -270.5 -113.5
t-295.5 -35.5zM815 322q48 0 93 27.5t77 83.5l60 283q-28 34 -66.5 55.5t-90.5 21.5q-86 0 -139.5 -61t-73.5 -153q-8 -38 -8 -73q0 -58 22 -106q34 -78 126 -78z" />
    <glyph glyph-name="A" unicode="A" horiz-adv-x="1418" 
d="M48 0q39 115 82 242t81 241l166 489q45 133 81 240q36 106 73 214h362q37 -112 72.5 -218t80.5 -236l164 -490q40 -119 82 -243q42 -125 80 -239h-289q-24 77 -48 158q-25 81 -49 160h-558q-25 -80 -50 -161t-49 -157h-281zM698 1185l-204 -655h427l-201 655h-22z" />
    <glyph glyph-name="B" unicode="B" horiz-adv-x="1314" 
d="M637 0h-482v1426h559q185 0 293.5 -41t155 -115.5t46.5 -174.5q0 -136 -73.5 -219.5t-183.5 -113.5v-23q81 -17 147 -56.5t104.5 -109t38.5 -176.5q0 -117 -52.5 -206.5t-184 -140t-368.5 -50.5zM693 1206h-264v-382h242q129 0 189 57.5t60 142.5q0 182 -227 182z
M429 221h232q155 0 223.5 52t68.5 148q0 100 -70.5 146t-201.5 46h-252v-392z" />
    <glyph glyph-name="C" unicode="C" horiz-adv-x="1368" 
d="M829 -25q-230 0 -397 94t-257.5 260t-90.5 384q0 215 87 382.5t248.5 263t383.5 95.5q139 0 265.5 -34.5t206.5 -76.5l-22 -262q-116 71 -221.5 102t-199.5 31q-132 0 -235.5 -59t-162.5 -171t-59 -271q0 -138 54 -252.5t162.5 -183.5t271.5 -69q96 0 194.5 27t192.5 96
l17 -259q-85 -50 -202 -73.5t-236 -23.5z" />
    <glyph glyph-name="D" unicode="D" horiz-adv-x="1469" 
d="M155 0v1426h545q327 0 506 -185.5t179 -522.5q0 -151 -40 -281.5t-128.5 -228.5t-232 -153t-350.5 -55h-479zM436 226h198q170 0 271 65t145 177t44 254q0 216 -105.5 347t-336.5 131h-216v-974z" />
    <glyph glyph-name="E" unicode="E" horiz-adv-x="1190" 
d="M155 0v1426h926v-233h-652v-362h618v-221h-618v-377h659v-233h-933z" />
    <glyph glyph-name="F" unicode="F" horiz-adv-x="1152" 
d="M155 0v1426h912v-235h-637v-374h602v-226h-602v-591h-275z" />
    <glyph glyph-name="G" unicode="G" horiz-adv-x="1461" 
d="M1337 55q-45 -20 -122 -38t-172 -29.5t-193 -11.5q-246 0 -417 95.5t-260 262.5t-89 380q0 217 89 384t254 261.5t394 94.5q150 0 280.5 -35.5t212.5 -76.5l-22 -261q-125 71 -238.5 102t-211.5 31q-135 0 -241 -58.5t-167 -170t-61 -272.5q0 -141 53.5 -257t164 -184.5
t282.5 -68.5q108 0 201 19v387h-367v222h630v-776z" />
    <glyph glyph-name="H" unicode="H" horiz-adv-x="1500" 
d="M155 0v1426h281v-589h628v589h281v-1426h-281v602h-628v-602h-281z" />
    <glyph glyph-name="I" unicode="I" horiz-adv-x="606" 
d="M160 0v1426h286v-1426h-286z" />
    <glyph glyph-name="J" unicode="J" horiz-adv-x="850" 
d="M676 1426v-1063q0 -147 -54.5 -231.5t-150 -120.5t-205.5 -36q-67 0 -125 9.5t-100 25.5l21 216q65 -25 98.5 -32t67.5 -7q162 0 162 182v1057h286z" />
    <glyph glyph-name="K" unicode="K" horiz-adv-x="1379" 
d="M155 0v1426h280v-575h66l191 228q67 81 134 161q66 80 153 186h326q-98 -113 -192 -222t-188 -219l-190 -222l212 -271q61 -78 131.5 -168t137.5 -175t117 -149h-340q-76 98 -142 184q-67 86 -131 168l-216 277h-69v-629h-280z" />
    <glyph glyph-name="L" unicode="L" horiz-adv-x="1155" 
d="M155 0v1426h281v-1181h657v-245h-938z" />
    <glyph glyph-name="M" unicode="M" horiz-adv-x="1923" 
d="M111 0q15 112 29 225t30 244l59 476q17 130 31 244t29 237h283q52 -132 100.5 -253.5t96.5 -241.5l189 -475h19l184 474q47 121 94 241q46 119 98 255h280q15 -121 30 -235q14 -115 30 -247l60 -478q17 -130 31 -240q13 -111 28 -226h-266q-21 163 -38 310
q-18 147 -34 275l-45 368h-19l-143 -396q-52 -145 -104 -288q-53 -143 -98 -269h-187q-46 121 -103 268q-58 147 -113 288l-154 397h-19l-44 -366q-16 -129 -34 -276.5t-37 -310.5h-263z" />
    <glyph glyph-name="N" unicode="N" horiz-adv-x="1503" 
d="M155 0v1426h246q109 -157 208 -299t197 -283l257 -369h21v951h264v-1426h-243q-91 130 -189 272q-99 141 -217 310l-260 373h-21v-955h-263z" />
    <glyph glyph-name="O" unicode="O" horiz-adv-x="1630" 
d="M822 -25q-190 0 -329 59t-230 162t-135 236t-44 281q0 207 82.5 375t245.5 267t402 99q243 0 405.5 -99.5t244.5 -267.5t82 -373q0 -212 -84 -379t-246 -263.5t-394 -96.5zM817 208q149 0 246 70.5t144.5 186t47.5 249.5q0 142 -51 257t-148.5 182.5t-238.5 67.5
q-146 0 -244.5 -70t-148 -185.5t-49.5 -251.5t48.5 -251t146.5 -185t247 -70z" />
    <glyph glyph-name="P" unicode="P" horiz-adv-x="1284" 
d="M155 0v1426h549q254 0 382 -99t128 -337q0 -137 -49.5 -242.5t-162 -165t-301.5 -59.5h-270v-523h-276zM685 1202h-254v-458h209q150 0 219.5 57t69.5 186q0 93 -37.5 139t-94 61t-112.5 15z" />
    <glyph glyph-name="Q" unicode="Q" horiz-adv-x="1630" 
d="M822 -25q-190 0 -329 59t-230 162t-135 236t-44 281q0 207 82.5 375t245.5 267t402 99q243 0 405.5 -99.5t244.5 -267.5t82 -373q0 -235 -103.5 -414.5t-298.5 -263.5l58 -46q68 -54 135.5 -107.5t146.5 -115.5l-246 -111q-125 109 -243 211l-125 109q-24 -1 -48 -1z
M817 208q149 0 246 70.5t144.5 186t47.5 249.5q0 142 -51 257t-148.5 182.5t-238.5 67.5q-146 0 -244.5 -70t-148 -185.5t-49.5 -251.5t48.5 -251t146.5 -185t247 -70z" />
    <glyph glyph-name="R" unicode="R" horiz-adv-x="1367" 
d="M155 0v1426h525q256 0 389.5 -89t133.5 -314q0 -149 -72.5 -263t-241.5 -155l138 -192q48 -66 102 -141q53 -75 104 -146t91 -126h-320q-60 86 -114 166q-54 79 -106 154l-146 213h-209v-533h-274zM671 1202h-242v-452h200q142 0 213.5 53t71.5 187q0 93 -37 138.5
t-93 59.5t-113 14z" />
    <glyph glyph-name="S" unicode="S" horiz-adv-x="1192" 
d="M595 -25q-89 0 -181.5 15.5t-172 39t-128.5 47.5l21 254q103 -58 217.5 -91.5t223.5 -33.5q113 0 184.5 43t71.5 137t-86 142.5t-237 93.5q-132 40 -225.5 90t-143 128.5t-49.5 201.5q0 181 122.5 296.5t368.5 115.5q131 0 258 -32t202 -71l-23 -254q-93 61 -198.5 92.5
t-189.5 31.5q-101 0 -173 -41.5t-72 -127.5q0 -82 69 -127t219 -91q171 -52 269.5 -108t140.5 -132.5t42 -192.5q0 -189 -126.5 -307.5t-403.5 -118.5z" />
    <glyph glyph-name="T" unicode="T" horiz-adv-x="1288" 
d="M505 0v1181h-450v245h1178v-245h-449v-1181h-279z" />
    <glyph glyph-name="U" unicode="U" horiz-adv-x="1458" 
d="M731 -25q-212 0 -342 69.5t-189.5 197t-59.5 300.5v884h280v-866q0 -167 72 -259.5t238 -92.5q169 0 238 92t69 261v865h280v-885q0 -172 -62 -299.5t-191 -197t-333 -69.5z" />
    <glyph glyph-name="V" unicode="V" horiz-adv-x="1405" 
d="M514 0q-35 107 -74 228q-40 121 -74 224l-146 447q-37 115 -83.5 257t-88.5 270h310q42 -141 89 -301q46 -161 87 -301l157 -539h22l162 542q43 143 89.5 298t89.5 301h302q-42 -129 -88 -269t-84 -257l-147 -449q-34 -105 -73 -224t-74 -227h-376z" />
    <glyph glyph-name="W" unicode="W" horiz-adv-x="2076" 
d="M435 0q-29 106 -61 227q-33 120 -62 223l-121 448q-33 119 -71.5 260.5t-72.5 267.5h314q32 -138 67 -291t67 -291l117 -512h22l118 519q31 133 66 286.5t65 288.5h304q33 -138 68 -288t68 -289l121 -517h22l119 520q30 134 65 287q35 152 65 287h315q-35 -127 -74 -267
t-71 -258l-125 -451q-30 -106 -63 -226q-33 -121 -62 -224h-344q-32 129 -67 271q-36 142 -67 269l-122 487h-22l-118 -487q-30 -127 -65 -270.5t-65 -269.5h-330z" />
    <glyph glyph-name="X" unicode="X" horiz-adv-x="1399" 
d="M61 0q55 98 112 201q57 102 120 213l180 319l-156 261q-61 102 -123 206q-63 104 -136 226h319q50 -88 98 -172.5t91 -160.5l112 -196h22l108 198q41 76 87 160.5t93 170.5h309q-66 -117 -126 -222.5t-111 -194.5l-168 -295l173 -275q73 -115 139 -220q66 -106 137 -219
h-330q-51 86 -96 162t-86 146l-137 233h-23l-128 -234q-41 -74 -81.5 -148t-87.5 -159h-311z" />
    <glyph glyph-name="Y" unicode="Y" horiz-adv-x="1343" 
d="M534 0v532l-293 538q-48 88 -93 170q-45 81 -102 186h318q43 -88 73.5 -150.5t57.5 -118.5t60 -123l107 -220h25l105 213q35 71 64 129t60 121t74 149h309q-49 -90 -97 -180q-49 -90 -96 -175l-291 -537v-534h-281z" />
    <glyph glyph-name="Z" unicode="Z" horiz-adv-x="1363" 
d="M85 0v150q52 67 117 151.5t131 170.5t122 159l433 561h-784v234h1160v-191q-86 -110 -168 -215t-164 -211l-448 -575h790v-234h-1189z" />
    <glyph glyph-name="bracketleft" unicode="[" horiz-adv-x="791" 
d="M165 -242v1785h581v-204h-348v-1377h352v-204h-585z" />
    <glyph glyph-name="backslash" unicode="\" horiz-adv-x="902" 
d="M615 0q-45 111 -87 216q-42 104 -97 240l-198 492q-58 145 -102 254t-90 224h246q47 -115 91 -224q43 -109 100 -250l200 -496q55 -136 97 -240.5t87 -215.5h-247z" />
    <glyph glyph-name="bracketright" unicode="]" horiz-adv-x="791" 
d="M45 -242v204h348v1377h-352v204h585v-1785h-581z" />
    <glyph glyph-name="asciicircum" unicode="^" horiz-adv-x="1249" 
d="M912 732q-69 107 -138 213t-139 212h-22q-68 -104 -137.5 -209t-138.5 -209h-232q92 160 184 318q91 158 183 317h304q92 -159 184.5 -319t183.5 -320z" />
    <glyph glyph-name="underscore" unicode="_" horiz-adv-x="841" 
d="M-20 -297v207h881v-207h-881z" />
    <glyph glyph-name="grave" unicode="`" horiz-adv-x="1200" 
d="M586 1139q-80 100 -163 202t-168 208l267 6l128 -206t129 -207z" />
    <glyph glyph-name="a" unicode="a" horiz-adv-x="1055" 
d="M376 -23q-126 0 -209.5 78t-83.5 219q0 112 49.5 177.5t124.5 98t153 44.5l285 42q4 105 -56 140t-156 35q-69 0 -156.5 -22t-186.5 -67l-12 221q73 29 185 53.5t237 24.5q183 0 285 -82t102 -268v-671h-225l-15 130h-21q-41 -55 -116 -104t-184 -49zM468 176
q63 0 122.5 43.5t97.5 118.5v157q-20 -14 -61.5 -24.5t-154.5 -31.5q-134 -24 -134 -145q0 -65 39.5 -91.5t90.5 -26.5z" />
    <glyph glyph-name="b" unicode="b" horiz-adv-x="1184" 
d="M694 -25q-101 0 -176 40.5t-131 111.5h-19l-26 -127h-203v1465l254 24v-598h22q41 58 111.5 94.5t164.5 36.5q133 0 225 -69t139 -187t47 -266q0 -139 -44.5 -258.5t-135 -193t-228.5 -73.5zM602 194q83 0 136 43t78.5 112.5t25.5 148.5q0 83 -26.5 151.5t-80 110
t-135.5 41.5q-61 0 -116 -27t-91 -79v-373q34 -59 85.5 -93.5t123.5 -34.5z" />
    <glyph glyph-name="c" unicode="c" horiz-adv-x="976" 
d="M601 -21q-167 0 -283.5 67.5t-177 184.5t-60.5 266q0 150 56.5 268.5t168.5 187t277 68.5q88 0 173 -20t145 -53l-20 -222q-85 48 -150.5 63t-113.5 15q-126 0 -201.5 -81.5t-75.5 -218.5q0 -136 80.5 -224.5t237.5 -88.5q59 0 117 16t111 50l15 -222q-51 -23 -125 -39.5
t-174 -16.5z" />
    <glyph glyph-name="d" unicode="d" horiz-adv-x="1165" 
d="M490 -25q-138 0 -228.5 73.5t-135 193t-44.5 258.5q0 148 47 266t139 187t225 69q94 0 164 -36t112 -95h22v574l254 24v-1489h-217l-15 133h-19q-56 -77 -131 -117.5t-173 -40.5zM582 194q72 0 123.5 34.5t85.5 93.5v373q-36 52 -91 79t-116 27q-82 0 -135.5 -41.5
t-80 -110t-26.5 -151.5q0 -79 25.5 -148.5t78.5 -112.5t136 -43z" />
    <glyph glyph-name="e" unicode="e" horiz-adv-x="1054" 
d="M622 -25q-188 0 -308 68t-177 187t-57 272q0 152 54.5 269.5t160.5 183.5t260 66q199 0 311.5 -109t112.5 -327q0 -76 -8 -131h-636q11 -126 88.5 -196.5t227.5 -70.5q63 0 147 17.5t155 54.5l8 -218q-57 -28 -143.5 -47t-195.5 -19zM557 834q-83 0 -141.5 -59.5
t-75.5 -159.5l414 8q-7 99 -61 155t-136 56z" />
    <glyph glyph-name="f" unicode="f" horiz-adv-x="809" 
d="M213 0v803h-172v193h172v109q0 152 54.5 236.5t143 118t191.5 33.5q64 0 118.5 -9t86.5 -21l-21 -211q-34 13 -71 21t-75 8q-183 0 -183 -182v-103h306v-193h-296v-803h-254z" />
    <glyph glyph-name="g" unicode="g" horiz-adv-x="1094" 
d="M482 -408q-150 0 -235.5 33.5t-120.5 86.5t-35 111q0 67 32 110.5t74.5 68t72.5 34.5v18q-24 8 -63 42.5t-39 104.5q0 49 27.5 92t91.5 71v18q-37 16 -87 52.5t-87 99.5t-37 158q0 142 105 235.5t308 93.5q53 0 93 -5q40 -6 83 -11.5t107 -5.5h285v-176h-186
q31 -62 31 -145q0 -150 -92.5 -229t-231.5 -110q-90 -20 -133 -36t-43 -46q0 -32 41.5 -43t136.5 -11h41q196 0 299.5 -52.5t103.5 -193.5q0 -98 -48.5 -167.5t-128 -113t-175 -64t-190.5 -20.5zM482 503q38 5 82 21t76 48.5t32 84.5q0 82 -59.5 120.5t-125.5 38.5
q-67 0 -122 -38.5t-55 -108.5t52.5 -112t119.5 -54zM512 -219q92 0 152.5 23.5t91 54.5t30.5 54q0 27 -19 47t-69.5 30.5t-146.5 10.5h-33q-46 -2 -92.5 -17.5t-77.5 -41t-31 -58.5q0 -39 45.5 -71t149.5 -32z" />
    <glyph glyph-name="h" unicode="h" horiz-adv-x="1153" 
d="M139 0v1465l254 24v-641h23q45 64 122.5 119t191.5 55q304 0 304 -354v-668h-254v590q0 98 -33.5 148t-120.5 50q-77 0 -134 -44.5t-99 -108.5v-635h-254z" />
    <glyph glyph-name="i" unicode="i" horiz-adv-x="543" 
d="M144 0v996l254 8v-1004h-254zM268 1175q-73 0 -117 36.5t-44 116.5q0 73 44 111.5t119 38.5t118.5 -40t43.5 -110q0 -80 -43.5 -116.5t-120.5 -36.5z" />
    <glyph glyph-name="j" unicode="j" horiz-adv-x="540" 
d="M-8 -392q81 96 116.5 206.5t35.5 255.5v926l254 8v-963q0 -148 -40 -253.5t-115 -171.5zM270 1175q-73 0 -117 36.5t-44 116.5q0 73 44 111.5t119 38.5t118.5 -40t43.5 -110q0 -80 -43.5 -116.5t-120.5 -36.5z" />
    <glyph glyph-name="k" unicode="k" horiz-adv-x="1127" 
d="M139 0v1465l254 24v-904h57l114 145q52 66 105 133t105 133h299q-76 -90 -152 -178q-76 -89 -151 -177l-108 -126l128 -155q78 -90 156 -180.5t154 -179.5h-316q-52 64 -104.5 127.5t-104.5 125.5l-132 160h-50v-413h-254z" />
    <glyph glyph-name="l" unicode="l" horiz-adv-x="533" 
d="M139 0v1465l254 24v-1489h-254z" />
    <glyph glyph-name="m" unicode="m" horiz-adv-x="1745" 
d="M139 0v996l216 13l10 -176h23q49 71 130 130t199 59q108 0 170.5 -49.5t88.5 -142.5h16q52 73 135.5 132.5t204.5 59.5q150 0 222 -91t72 -263v-668h-254v590q0 98 -31.5 148t-113.5 50q-70 0 -123 -41.5t-92 -101.5v-645h-254v590q0 98 -31.5 148t-113.5 50
q-72 0 -126 -45.5t-94 -107.5v-635h-254z" />
    <glyph glyph-name="n" unicode="n" horiz-adv-x="1153" 
d="M139 0v996l216 13l10 -177h23q50 72 134 131t208 59q304 0 304 -354v-668h-254v590q0 98 -33.5 148t-120.5 50q-77 0 -134 -44.5t-99 -108.5v-635h-254z" />
    <glyph glyph-name="o" unicode="o" horiz-adv-x="1195" 
d="M602 -25q-176 0 -292 74t-173 194t-57 259q0 149 60 266.5t175.5 185.5t281.5 68q170 0 285.5 -69t174 -186.5t58.5 -264.5q0 -150 -60.5 -269t-175.5 -188.5t-277 -69.5zM601 185q86 0 142.5 45t84.5 117.5t28 154.5q0 143 -70 226.5t-186 83.5q-127 0 -194 -89.5
t-67 -220.5q0 -82 29 -154.5t87.5 -117.5t145.5 -45z" />
    <glyph glyph-name="p" unicode="p" horiz-adv-x="1184" 
d="M139 -392v1388l227 13l7 -134h22q44 66 119.5 106.5t176.5 40.5q133 0 225 -69t139 -187t47 -266q0 -139 -44.5 -258.5t-135 -193t-228.5 -73.5q-94 0 -163.5 37t-120.5 102h-17v-498zM602 194q83 0 136 43t78.5 112.5t25.5 148.5q0 83 -26.5 151.5t-80 110t-135.5 41.5
q-61 0 -116 -27t-91 -79v-373q34 -59 85.5 -93.5t123.5 -34.5z" />
    <glyph glyph-name="q" unicode="q" horiz-adv-x="1174" 
d="M791 -392v507h-17q-52 -66 -121 -103t-163 -37q-138 0 -228.5 73.5t-135 193t-44.5 258.5q0 148 47 266t139 187t225 69q101 0 176 -40t120 -107h22l7 121l227 13v-1393zM582 194q72 0 123.5 34.5t85.5 93.5v373q-36 52 -91 79t-116 27q-82 0 -135.5 -41.5t-80 -110
t-26.5 -151.5q0 -79 25.5 -148.5t78.5 -112.5t136 -43z" />
    <glyph glyph-name="r" unicode="r" horiz-adv-x="816" 
d="M139 0v996l216 13l10 -190h22q40 85 89 128.5t100.5 59t96.5 15.5q24 0 52 -4t54 -14l-23 -249q-36 5 -65.5 7.5t-65.5 2.5q-37 0 -80 -13.5t-83 -56t-69 -126.5v-569h-254z" />
    <glyph glyph-name="s" unicode="s" horiz-adv-x="925" 
d="M448 -25q-103 0 -196 20t-156 50l17 224q67 -40 153.5 -63.5t171.5 -23.5q65 0 112 19t47 87q0 46 -49.5 70t-176.5 57q-128 34 -200.5 96t-72.5 196q0 149 96 231.5t259 82.5q104 0 195.5 -22.5t146.5 -48.5l-18 -225q-69 44 -153 66t-134 22q-55 0 -93.5 -22.5
t-38.5 -75.5q0 -44 34.5 -71t149.5 -59q104 -29 173.5 -61t104.5 -84.5t35 -142.5q0 -144 -95 -233t-312 -89z" />
    <glyph glyph-name="t" unicode="t" horiz-adv-x="836" 
d="M549 -25q-160 0 -248.5 77t-88.5 253v498h-171v193h171v323l251 47v-370h315v-193h-315v-422q0 -97 37.5 -146.5t119.5 -49.5q33 0 73 12t75 37l17 -209q-37 -23 -102.5 -36.5t-133.5 -13.5z" />
    <glyph glyph-name="u" unicode="u" horiz-adv-x="1133" 
d="M423 -25q-304 0 -304 354v667l254 8v-602q0 -98 33.5 -148t120.5 -50q73 0 129.5 44.5t98.5 108.5v639h254v-996h-216l-10 165h-23q-49 -72 -133 -131t-204 -59z" />
    <glyph glyph-name="v" unicode="v" horiz-adv-x="1066" 
d="M395 0q-33 93 -67 189q-35 96 -68 188l-64 176q-40 110 -80.5 221.5t-79.5 221.5l274 8q33 -112 66 -223q32 -111 65 -223l83 -283h23l83 284q34 114 66 223t64 214h270q-39 -111 -79 -222q-41 -112 -81 -223l-64 -178q-33 -94 -66.5 -186.5t-67.5 -186.5h-277z" />
    <glyph glyph-name="w" unicode="w" horiz-adv-x="1641" 
d="M350 0q-29 94 -59 189q-30 94 -60 190l-56 177q-35 111 -69 220q-35 108 -70 220l270 8q29 -109 61 -230q31 -121 60 -232l73 -277h20l70 282q28 113 56 224t57 225h238q28 -108 57 -222t57 -225l72 -284h20l73 289q27 108 57 226q30 117 55 216h273q-35 -111 -70 -220
l-70 -220l-55 -175q-31 -97 -61 -193q-31 -96 -61 -188h-288q-27 99 -56 204.5t-56 201.5l-68 247h-20l-66 -251q-26 -95 -53.5 -199.5t-54.5 -202.5h-276z" />
    <glyph glyph-name="x" unicode="x" horiz-adv-x="1111" 
d="M46 0q41 69 72 120t59 96q27 45 58 97l121 200l-119 184q-48 75 -90 140t-102 159l284 8q36 -63 66 -116q29 -53 62 -111l84 -147h19l82 146q31 58 59 108.5t62 111.5h289q-44 -65 -75 -112t-58 -88q-28 -42 -62 -94l-130 -196l133 -196q50 -73 97 -142t114 -168h-304
q-34 58 -62 106t-62 107l-93 160h-19l-83 -153q-34 -61 -61 -109.5t-60 -110.5h-281z" />
    <glyph glyph-name="y" unicode="y" horiz-adv-x="1077" 
d="M240 -392l77 192.5t78 192.5q-35 96 -70 193.5t-68 191.5l-64 180q-39 107 -79 219t-78 219l274 8q33 -115 64.5 -225t64.5 -226l81 -286h23l89 286q35 112 69 222q34 109 69 221h271q-31 -80 -60 -155t-64 -165t-84 -215l-109 -280q-74 -190 -126 -324
q-52 -133 -94 -241z" />
    <glyph glyph-name="z" unicode="z" horiz-adv-x="1019" 
d="M68 0v122q77 101 152 199q74 97 141 185l226 295h-512v195h850v-144q-55 -70 -131 -169t-145 -188l-230 -300h536v-195h-887z" />
    <glyph glyph-name="braceleft" unicode="{" horiz-adv-x="863" 
d="M631 -242q-168 0 -263.5 81t-95.5 231v304q0 97 -49.5 140.5t-118.5 43.5h-74v184h74q69 0 118.5 43.5t49.5 140.5v305q0 150 95.5 231t263.5 81h187v-204h-150q-163 0 -163 -152v-253q0 -117 -45.5 -176.5t-132.5 -96.5v-21q87 -37 132.5 -97.5t45.5 -176.5v-252
q0 -152 163 -152h155v-204h-192z" />
    <glyph glyph-name="bar" unicode="|" horiz-adv-x="553" 
d="M165 -318v1880h222v-1880h-222z" />
    <glyph glyph-name="braceright" unicode="}" horiz-adv-x="863" 
d="M45 -242v204h150q164 0 164 152v253q0 117 45 176.5t132 96.5v21q-87 37 -132 97.5t-45 176.5v252q0 152 -164 152h-155v204h193q167 0 262.5 -81t95.5 -231v-304q0 -97 49.5 -140.5t118.5 -43.5h74v-184h-74q-69 0 -118.5 -43.5t-49.5 -140.5v-305q0 -150 -95.5 -231
t-262.5 -81h-188z" />
    <glyph glyph-name="asciitilde" unicode="~" horiz-adv-x="1150" 
d="M803 422q-70 0 -129 22t-110 52q-51 29 -96 51t-86 22q-50 0 -81.5 -28.5t-35.5 -83.5h-155q0 155 68 244t178 89q69 0 127 -22.5t108 -51.5t95 -51.5t88 -22.5q102 0 112 113h155q0 -157 -66 -245t-172 -88z" />
    <glyph glyph-name="uni00A0" unicode="&#xa0;" horiz-adv-x="382" 
 />
    <glyph glyph-name="exclamdown" unicode="&#xa1;" horiz-adv-x="510" 
d="M254 776q-77 0 -122 47t-45 117q0 72 45 117t123 45q79 0 123.5 -45t44.5 -117q0 -70 -44.5 -117t-124.5 -47zM110 -396q12 235 22.5 473.5t17.5 479.5l206 3q7 -241 17.5 -477.5t21.5 -470.5z" />
    <glyph glyph-name="cent" unicode="&#xa2;" horiz-adv-x="976" 
d="M479 -274v264q-193 35 -296 173.5t-103 333.5q0 200 101 342t298 174v238h180v-234q142 -14 241 -69l-20 -222q-67 38 -122 54.5t-99 21.5v-611q58 0 115.5 16t110.5 50l15 -222q-43 -20 -103 -35t-138 -19v-255h-180zM339 504q0 -90 35 -160.5t105 -110.5v539
q-66 -35 -103 -104t-37 -164z" />
    <glyph glyph-name="sterling" unicode="&#xa3;" horiz-adv-x="1202" 
d="M110 0v140q92 77 120 162.5t28 171.5v176h-149v179h149v59q0 253 128 383.5t379 130.5q90 0 175.5 -20t145.5 -53l-25 -228q-88 47 -156 60.5t-118 13.5q-128 0 -194 -72.5t-66 -225.5v-48h393v-179h-393v-100q0 -88 -27.5 -165.5t-113.5 -152.5h752v-232h-1028z" />
    <glyph glyph-name="currency" unicode="&#xa4;" horiz-adv-x="1285" 
d="M231 69l-160 160l178 178q-57 100 -57 235q0 131 61 232l-180 181l156 156l187 -187q101 51 227 51q123 0 222 -51l189 189l160 -160l-183 -183q60 -101 60 -228q0 -136 -58 -236l179 -179l-156 -156l-185 185q-101 -50 -232 -50q-125 0 -224 48zM640 416q96 0 160 56
t64 169q0 103 -63.5 164t-158.5 61q-94 0 -158.5 -60t-64.5 -165q0 -113 63.5 -169t157.5 -56z" />
    <glyph glyph-name="yen" unicode="&#xa5;" horiz-adv-x="1283" 
d="M148 254v159h362v104l-25 47h-337v159h251l-168 310q-27 50 -52 95t-56 102.5t-77 143.5h304q40 -84 69 -143q29 -60 54.5 -113t56.5 -118l101 -213h24l105 215q31 64 58 118q26 54 55 114q29 59 69 140h295q-44 -83 -91 -170q-48 -88 -92 -170l-167 -311h252v-159h-337
l-25 -45v-106h362v-159h-362v-254h-267v254h-362z" />
    <glyph glyph-name="brokenbar" unicode="&#xa6;" horiz-adv-x="553" 
d="M165 722v840h222v-840h-222zM165 -318v840h222v-840h-222z" />
    <glyph glyph-name="section" unicode="&#xa7;" horiz-adv-x="1137" 
d="M495 -257q-125 0 -236.5 25t-185.5 64l17 221q82 -50 183.5 -79.5t196.5 -29.5q94 0 159 33t65 122q0 47 -27 76.5t-90 54t-171 57.5q-161 48 -244.5 125.5t-83.5 207.5q0 92 47 170.5t137 126.5q-64 78 -64 192q0 156 108 250.5t299 94.5q120 0 224.5 -26.5t172.5 -60.5
l-17 -220q-89 59 -177 81.5t-149 22.5q-42 0 -88 -12t-78 -44.5t-32 -92.5t53.5 -99.5t181.5 -76.5q188 -54 283 -127t95 -208q0 -95 -45 -174t-140 -130q63 -73 63 -193q0 -153 -108.5 -252t-348.5 -99zM574 443q38 -11 71.5 -22t63.5 -22q48 22 77 66t29 97
q0 79 -62.5 120.5t-224.5 85.5q-44 12 -81 26q-44 -19 -76 -60.5t-32 -97.5q0 -73 54 -115t181 -78z" />
    <glyph glyph-name="dieresis" unicode="&#xa8;" horiz-adv-x="1200" 
d="M819 1165q-65 0 -102.5 36.5t-37.5 109.5q0 66 38 104.5t104 38.5t103.5 -40t37.5 -103q0 -73 -38 -109.5t-105 -36.5zM375 1165q-65 0 -103 36.5t-38 109.5q0 66 38 104.5t105 38.5q65 0 103 -40t38 -103q0 -73 -38 -109.5t-105 -36.5z" />
    <glyph glyph-name="copyright" unicode="&#xa9;" horiz-adv-x="1616" 
d="M815 -25q-187 0 -324.5 57t-228 156.5t-134.5 228t-44 271.5q0 200 82.5 362t244 257t396.5 95q238 0 399.5 -96t243.5 -257.5t82 -359.5q0 -205 -84.5 -366.5t-244.5 -254.5t-388 -93zM814 121q178 0 304.5 71t193 199t66.5 298q0 167 -65.5 295t-193 200t-311.5 72
q-183 0 -310.5 -72.5t-193.5 -200.5t-66 -295q0 -164 64.5 -292t192.5 -201.5t319 -73.5zM836 311q-121 0 -205.5 49t-128.5 134t-44 193t41 194t122.5 135.5t200.5 49.5q64 0 125.5 -14.5t105.5 -38.5l-15 -168q-62 37 -110 47.5t-82 10.5q-86 0 -140 -55t-54 -156
t58 -161.5t165 -60.5q89 0 166 49l12 -167q-38 -17 -91.5 -29t-125.5 -12z" />
    <glyph glyph-name="ordfeminine" unicode="&#xaa;" horiz-adv-x="802" 
d="M285 661q-105 0 -160 60t-55 148t38.5 140.5t93 79.5t104.5 37l229 45q4 69 -39.5 95.5t-121.5 26.5q-49 0 -116.5 -16t-142.5 -55l-11 174q57 21 142.5 39.5t177.5 18.5q131 0 207.5 -62.5t76.5 -204.5v-510h-160l-11 118h-14q-35 -56 -97 -95t-141 -39zM364 814
q45 0 91 25.5t76 82.5v154q-17 -11 -45.5 -21.5t-104.5 -27.5q-49 -10 -89.5 -35.5t-40.5 -79.5q0 -52 33 -75t80 -23z" />
    <glyph glyph-name="guillemotleft" unicode="&#xab;" horiz-adv-x="1239" 
d="M918 -4q-89 128 -178.5 255.5t-179.5 254.5q90 128 179.5 255.5t178.5 254.5l251 -15q-85 -121 -170 -243l-172 -244v-22q86 -121 171.5 -241.5t170.5 -241.5zM408 -4q-89 128 -178.5 255.5t-179.5 254.5q90 128 179.5 255.5t178.5 254.5l251 -15q-85 -121 -170 -243
l-172 -244v-22q86 -121 171.5 -241.5t170.5 -241.5z" />
    <glyph glyph-name="logicalnot" unicode="&#xac;" horiz-adv-x="1150" 
d="M813 109v384h-703v222h931v-606h-228z" />
    <glyph glyph-name="uni00AD" unicode="&#xad;" horiz-adv-x="850" 
d="M110 488v222h630v-222h-630z" />
    <glyph glyph-name="registered" unicode="&#xae;" horiz-adv-x="1150" 
d="M580 491q-178 0 -292 70t-168.5 184t-54.5 247q0 140 56.5 253.5t169.5 180.5t282 67q171 0 285 -67.5t170.5 -181t56.5 -251.5q0 -144 -58.5 -257.5t-171.5 -179t-275 -65.5zM579 580q201 0 305 116t104 297q0 117 -45 210.5t-136.5 147.5t-232.5 54q-140 0 -231.5 -54
t-136.5 -147.5t-45 -211.5q0 -114 44 -207.5t136 -149t238 -55.5zM367 722v570h211q102 0 157.5 -37.5t55.5 -123.5q0 -58 -28 -103t-95 -61l56 -79q29 -43 61 -88q31 -45 54 -78h-136q-26 38 -48 73q-23 34 -45 66l-57 86h-69v-225h-117zM573 1197h-89v-171h70q52 0 84 20
t32 73q0 38 -17 54.5t-39.5 20t-40.5 3.5z" />
    <glyph glyph-name="macron" unicode="&#xaf;" horiz-adv-x="1200" 
d="M268 1212v189h664v-189h-664z" />
    <glyph glyph-name="degree" unicode="&#xb0;" horiz-adv-x="998" 
d="M498 609q-126 0 -222.5 48t-151 137t-54.5 212q0 112 54.5 202t151.5 142t224 52t223.5 -52t150.5 -142t54 -202q0 -123 -54 -212t-151 -137t-225 -48zM498 790q101 0 158.5 57.5t57.5 156.5q0 91 -57 154t-157 63t-158.5 -62t-58.5 -155q0 -99 58 -156.5t157 -57.5z" />
    <glyph glyph-name="plusminus" unicode="&#xb1;" horiz-adv-x="1150" 
d="M461 363v364h-351v222h351v364h228v-364h352v-222h-352v-364h-228zM110 0v222h931v-222h-931z" />
    <glyph glyph-name="uni00B2" unicode="&#xb2;" horiz-adv-x="825" 
d="M66 602v134q40 31 80 63t81 65q142 110 219.5 196.5t77.5 176.5q0 135 -165 135q-65 0 -137.5 -26.5t-142.5 -70.5l-18 195q66 30 157 53t185 23q161 0 247.5 -74.5t86.5 -203.5q0 -208 -299 -425l-88 -65h400v-176h-684z" />
    <glyph glyph-name="uni00B3" unicode="&#xb3;" horiz-adv-x="847" 
d="M407 581q-99 0 -191.5 20.5t-153.5 50.5l16 181q78 -39 156 -61t149 -22q100 0 142 35.5t42 92.5q0 64 -56 98t-161 34h-111v129h100q103 0 151.5 35t48.5 93q0 55 -43.5 82.5t-117.5 27.5q-68 0 -140 -25.5t-140 -65.5l-17 185q64 29 151.5 52t181.5 23q157 0 247 -64.5
t90 -173.5q0 -84 -53.5 -136.5t-127.5 -67.5v-15q50 -9 98.5 -37t80 -76.5t31.5 -121.5q0 -119 -91.5 -196t-281.5 -77z" />
    <glyph glyph-name="acute" unicode="&#xb4;" horiz-adv-x="1200" 
d="M421 1139q64 102 128.5 205t127.5 205l268 6q-86 -107 -168.5 -210t-162.5 -203z" />
    <glyph glyph-name="mu" unicode="&#xb5;" horiz-adv-x="1158" 
d="M139 -392v1388l254 8v-602q0 -98 33.5 -148t120.5 -50q73 0 129.5 44.5t98.5 108.5v639h254v-996h-215q-4 41 -7 83q-4 42 -8 83h-23q-42 -72 -115 -131.5t-177 -59.5q-51 0 -91 13v-372z" />
    <glyph glyph-name="paragraph" unicode="&#xb6;" horiz-adv-x="1137" 
d="M446 -351v927h-8q-126 0 -211 60.5t-128.5 158.5t-43.5 213q0 121 46.5 215.5t132.5 148.5t204 54h649v-151h-159v-1626h-161v1626h-160v-1626h-161z" />
    <glyph glyph-name="periodcentered" unicode="&#xb7;" horiz-adv-x="510" 
d="M254 460q-77 0 -122 47t-45 118t45 116t123 45q79 0 123.5 -45t44.5 -116t-44.5 -118t-124.5 -47z" />
    <glyph glyph-name="cedilla" unicode="&#xb8;" horiz-adv-x="1200" 
d="M546 -438q-81 0 -132 17v146q12 -5 38 -9t57 -4q60 0 86 19t26 52q0 28 -29.5 52t-117.5 38l74 175h136v-48l-45 -104q103 -18 142.5 -61.5t39.5 -100.5q0 -72 -61.5 -122t-213.5 -50z" />
    <glyph glyph-name="uni00B9" unicode="&#xb9;" horiz-adv-x="661" 
d="M314 602v696q-54 -25 -111 -51.5t-119 -55.5l-46 159q98 46 193 90l190 88l97 -5v-921h-204z" />
    <glyph glyph-name="ordmasculine" unicode="&#xba;" horiz-adv-x="916" 
d="M461 659q-133 0 -221 56t-131.5 147.5t-43.5 197.5q0 112 45.5 201.5t133 141t213.5 51.5q129 0 217 -52t132.5 -141.5t44.5 -200.5q0 -114 -46 -204.5t-133.5 -143.5t-210.5 -53zM460 819q66 0 109.5 34.5t64.5 89.5t21 117q0 108 -53 171t-142 63q-97 0 -148.5 -67.5
t-51.5 -166.5q0 -62 22.5 -117t67 -89.5t110.5 -34.5z" />
    <glyph glyph-name="guillemotright" unicode="&#xbb;" horiz-adv-x="1239" 
d="M831 -4l-251 15l172 244q85 122 171 243v22q-86 121 -171 242q-86 120 -172 241l251 13l180 -254q89 -128 179 -256q-90 -127 -179.5 -254.5t-179.5 -255.5zM321 -4l-251 15l172 244q85 122 170 243v22q-85 121 -170.5 241.5t-171.5 241.5l251 13q90 -127 179.5 -254.5
t178.5 -255.5q-89 -127 -178.5 -254.5t-179.5 -255.5z" />
    <glyph glyph-name="onequarter" unicode="&#xbc;" horiz-adv-x="1964" 
d="M314 505v696q-54 -25 -111 -51.5t-119 -55.5l-46 159q98 46 193 90l190 88l97 -5v-921h-204zM461 0q58 110 114 216q57 106 129 243l264 495q75 141 133 250q57 108 118 222h248q-61 -114 -118 -222q-58 -109 -133 -250l-264 -495q-72 -137 -128.5 -243t-115.5 -216h-247
zM1567 0v189h-449v134q38 51 97 128.5t106 137.5l119 159q33 42 67 86q33 44 66 87h198v-556h150v-176h-150v-189h-204zM1411 495q-29 -39 -57 -76l-56 -74h290v382q-8 -10 -15 -19z" />
    <glyph glyph-name="onehalf" unicode="&#xbd;" horiz-adv-x="2092" 
d="M314 505v696q-54 -25 -111 -51.5t-119 -55.5l-46 159q98 46 193 90l190 88l97 -5v-921h-204zM461 0q58 110 114 216q57 106 129 243l264 495q75 141 133 250q57 108 118 222h248q-61 -114 -118 -222q-58 -109 -133 -250l-264 -495q-72 -137 -128.5 -243t-115.5 -216h-247
zM1332 0v134q40 31 80 63t81 65q142 110 219.5 196.5t77.5 176.5q0 135 -165 135q-65 0 -137.5 -26.5t-142.5 -70.5l-18 195q66 30 157 53t185 23q161 0 247.5 -74.5t86.5 -203.5q0 -208 -299 -425l-88 -65h400v-176h-684z" />
    <glyph glyph-name="threequarters" unicode="&#xbe;" horiz-adv-x="2081" 
d="M407 484q-99 0 -191.5 20.5t-153.5 50.5l16 181q78 -39 156 -61t149 -22q100 0 142 35.5t42 92.5q0 64 -56 98t-161 34h-111v129h100q103 0 151.5 35t48.5 93q0 55 -43.5 82.5t-117.5 27.5q-68 0 -140 -25.5t-140 -65.5l-17 185q64 29 151.5 52t181.5 23q157 0 247 -64.5
t90 -173.5q0 -84 -53.5 -136.5t-127.5 -67.5v-15q50 -9 98.5 -37t80 -76.5t31.5 -121.5q0 -119 -91.5 -196t-281.5 -77zM578 0q58 110 114 216q57 106 129 243l264 495q75 141 133 250q57 108 118 222h248q-61 -114 -118 -222q-58 -109 -133 -250l-264 -495
q-72 -137 -128.5 -243t-115.5 -216h-247zM1684 0v189h-449v134q38 51 97 128.5t106 137.5l119 159q33 42 67 86q33 44 66 87h198v-556h150v-176h-150v-189h-204zM1528 495q-29 -39 -57 -76l-56 -74h290v382q-8 -10 -15 -19z" />
    <glyph glyph-name="questiondown" unicode="&#xbf;" horiz-adv-x="826" 
d="M471 776q-77 0 -122.5 47t-45.5 117q0 72 45.5 117t123.5 45q79 0 123.5 -45t44.5 -117q0 -70 -45 -117t-124 -47zM455 -421q-176 0 -274.5 73t-98.5 228q0 96 39 165t97 119.5t113 89.5q57 41 98.5 78t41.5 75q0 35 -31.5 51.5t-72.5 16.5q-31 0 -59 -7.5t-49 -16.5
l-8 138q30 10 81.5 20.5t108.5 10.5q131 0 194 -55.5t63 -148.5q0 -95 -57 -160.5t-133 -120.5q-65 -48 -117.5 -97t-52.5 -114q0 -55 47 -88.5t125 -33.5q68 0 143.5 25t147.5 68l10 -241q-58 -23 -150.5 -49t-205.5 -26z" />
    <glyph glyph-name="Agrave" unicode="&#xc0;" horiz-adv-x="1418" 
d="M48 0q39 115 82 242t81 241l166 489q45 133 81 240q36 106 73 214h362q37 -112 72.5 -218t80.5 -236l164 -490q40 -119 82 -243q42 -125 80 -239h-289q-24 77 -48 158q-25 81 -49 160h-558q-25 -80 -50 -161t-49 -157h-281zM698 1185l-204 -655h427l-201 655h-22z
M695 1559q-81 91 -163 184q-82 92 -168 189l267 5q64 -94 128 -187.5t129 -187.5z" />
    <glyph glyph-name="Aacute" unicode="&#xc1;" horiz-adv-x="1418" 
d="M48 0q39 115 82 242t81 241l166 489q45 133 81 240q36 106 73 214h362q37 -112 72.5 -218t80.5 -236l164 -490q40 -119 82 -243q42 -125 80 -239h-289q-24 77 -48 158q-25 81 -49 160h-558q-25 -80 -50 -161t-49 -157h-281zM698 1185l-204 -655h427l-201 655h-22z
M530 1559q65 93 129 187q63 93 127 186l268 5q-85 -97 -168 -191t-163 -184z" />
    <glyph glyph-name="Acircumflex" unicode="&#xc2;" horiz-adv-x="1418" 
d="M48 0q39 115 82 242t81 241l166 489q45 133 81 240q36 106 73 214h362q37 -112 72.5 -218t80.5 -236l164 -490q40 -119 82 -243q42 -125 80 -239h-289q-24 77 -48 158q-25 81 -49 160h-558q-25 -80 -50 -161t-49 -157h-281zM698 1185l-204 -655h427l-201 655h-22z
M905 1557l-98 118q-50 59 -100 119q-49 -59 -97.5 -117t-97.5 -116h-193q64 92 128 185q63 93 128 188h265q64 -95 128 -188.5t128 -185.5z" />
    <glyph glyph-name="Atilde" unicode="&#xc3;" horiz-adv-x="1418" 
d="M48 0q39 115 82 242t81 241l166 489q45 133 81 240q36 106 73 214h362q37 -112 72.5 -218t80.5 -236l164 -490q40 -119 82 -243q42 -125 80 -239h-289q-24 77 -48 158q-25 81 -49 160h-558q-25 -80 -50 -161t-49 -157h-281zM698 1185l-204 -655h427l-201 655h-22z
M883 1547q-61 0 -107 24t-81 56q-36 32 -66.5 56t-61.5 24q-50 0 -71.5 -36t-26.5 -90h-138q0 149 57.5 229.5t154.5 80.5q60 0 104.5 -24.5t79.5 -56.5t65.5 -56t63.5 -24q48 0 68.5 36t24.5 90h138q0 -149 -55.5 -229t-148.5 -80z" />
    <glyph glyph-name="Adieresis" unicode="&#xc4;" horiz-adv-x="1418" 
d="M48 0q39 115 82 242t81 241l166 489q45 133 81 240q36 106 73 214h362q37 -112 72.5 -218t80.5 -236l164 -490q40 -119 82 -243q42 -125 80 -239h-289q-24 77 -48 158q-25 81 -49 160h-558q-25 -80 -50 -161t-49 -157h-281zM698 1185l-204 -655h427l-201 655h-22z
M930 1585q-65 0 -102.5 36.5t-37.5 109.5q0 66 38 104.5t104 38.5t103.5 -40t37.5 -103q0 -73 -38 -109.5t-105 -36.5zM486 1585q-65 0 -103 36.5t-38 109.5q0 66 38 104.5t105 38.5q65 0 103 -40t38 -103q0 -73 -38 -109.5t-105 -36.5z" />
    <glyph glyph-name="Aring" unicode="&#xc5;" horiz-adv-x="1418" 
d="M48 0q39 115 82 242t81 241l166 489q45 133 81 240q36 106 73 214h362q37 -112 72.5 -218t80.5 -236l164 -490q40 -119 82 -243q42 -125 80 -239h-289q-24 77 -48 158q-25 81 -49 160h-558q-25 -80 -50 -161t-49 -157h-281zM698 1185l-204 -655h427l-201 655h-22z
M707 1540q-114 0 -184 58t-70 171q0 102 70.5 164t185.5 62q114 0 184 -63.5t70 -162.5q0 -113 -70.5 -171t-185.5 -58zM707 1653q55 0 88.5 29.5t33.5 85.5q0 49 -33.5 81.5t-86.5 32.5q-55 0 -88.5 -32t-33.5 -82q0 -56 33.5 -85.5t86.5 -29.5z" />
    <glyph glyph-name="AE" unicode="&#xc6;" horiz-adv-x="1975" 
d="M25 0q58 115 121.5 241.5t120.5 241.5l246 491q65 129 118.5 236t107.5 216h1125v-233h-652v-362h617v-221h-617v-377h659v-233h-933v318h-473q-39 -80 -78 -160.5t-76 -157.5h-286zM892 1201l-324 -671h370v671h-46z" />
    <glyph glyph-name="Ccedilla" unicode="&#xc7;" horiz-adv-x="1368" 
d="M829 -25q-230 0 -397 94t-257.5 260t-90.5 384q0 215 87 382.5t248.5 263t383.5 95.5q139 0 265.5 -34.5t206.5 -76.5l-22 -262q-116 71 -221.5 102t-199.5 31q-132 0 -235.5 -59t-162.5 -171t-59 -271q0 -138 54 -252.5t162.5 -183.5t271.5 -69q96 0 194.5 27t192.5 96
l17 -259q-85 -50 -202 -73.5t-236 -23.5zM741 -438q-81 0 -132 17v146q12 -5 38 -9t57 -4q60 0 86 19t26 52q0 28 -29.5 52t-117.5 38l74 175h136v-48l-45 -104q103 -18 142.5 -61.5t39.5 -100.5q0 -72 -61.5 -122t-213.5 -50z" />
    <glyph glyph-name="Egrave" unicode="&#xc8;" horiz-adv-x="1191" 
d="M155 0v1426h926v-233h-652v-362h618v-221h-618v-377h659v-233h-933zM609 1559q-81 91 -163 184q-82 92 -168 189l267 5q64 -94 128 -187.5t129 -187.5z" />
    <glyph glyph-name="Eacute" unicode="&#xc9;" horiz-adv-x="1191" 
d="M155 0v1426h926v-233h-652v-362h618v-221h-618v-377h659v-233h-933zM444 1559q65 93 129 187q63 93 127 186l268 5q-85 -97 -168 -191t-163 -184z" />
    <glyph glyph-name="Ecircumflex" unicode="&#xca;" horiz-adv-x="1191" 
d="M155 0v1426h926v-233h-652v-362h618v-221h-618v-377h659v-233h-933zM819 1557l-98 118q-50 59 -100 119q-49 -59 -97.5 -117t-97.5 -116h-193q64 92 128 185q63 93 128 188h265q64 -95 128 -188.5t128 -185.5z" />
    <glyph glyph-name="Edieresis" unicode="&#xcb;" horiz-adv-x="1191" 
d="M155 0v1426h926v-233h-652v-362h618v-221h-618v-377h659v-233h-933zM844 1585q-65 0 -102.5 36.5t-37.5 109.5q0 66 38 104.5t104 38.5t103.5 -40t37.5 -103q0 -73 -38 -109.5t-105 -36.5zM400 1585q-65 0 -103 36.5t-38 109.5q0 66 38 104.5t105 38.5q65 0 103 -40
t38 -103q0 -73 -38 -109.5t-105 -36.5z" />
    <glyph glyph-name="Igrave" unicode="&#xcc;" horiz-adv-x="606" 
d="M160 0v1426h286v-1426h-286zM284 1559q-81 91 -163 184q-82 92 -168 189l267 5q64 -94 128 -187.5t129 -187.5z" />
    <glyph glyph-name="Iacute" unicode="&#xcd;" horiz-adv-x="606" 
d="M160 0v1426h286v-1426h-286zM119 1559q65 93 129 187q63 93 127 186l268 5q-85 -97 -168 -191t-163 -184z" />
    <glyph glyph-name="Icircumflex" unicode="&#xce;" horiz-adv-x="606" 
d="M160 0v1426h286v-1426h-286zM494 1557l-98 118q-50 59 -100 119q-49 -59 -97.5 -117t-97.5 -116h-193q64 92 128 185q63 93 128 188h265q64 -95 128 -188.5t128 -185.5z" />
    <glyph glyph-name="Idieresis" unicode="&#xcf;" horiz-adv-x="606" 
d="M160 0v1426h286v-1426h-286zM519 1585q-65 0 -102.5 36.5t-37.5 109.5q0 66 38 104.5t104 38.5t103.5 -40t37.5 -103q0 -73 -38 -109.5t-105 -36.5zM75 1585q-65 0 -103 36.5t-38 109.5q0 66 38 104.5t105 38.5q65 0 103 -40t38 -103q0 -73 -38 -109.5t-105 -36.5z" />
    <glyph glyph-name="Eth" unicode="&#xd0;" horiz-adv-x="1469" 
d="M155 0v606h-181v193h181v627h545q327 0 506 -185.5t179 -522.5q0 -151 -40 -281.5t-128.5 -228.5t-232 -153t-350.5 -55h-479zM436 226h198q170 0 271 65t145 177t44 254q0 216 -105.5 347t-336.5 131h-216v-401h318v-193h-318v-380z" />
    <glyph glyph-name="Ntilde" unicode="&#xd1;" horiz-adv-x="1503" 
d="M155 0v1426h246q109 -157 208 -299t197 -283l257 -369h21v951h264v-1426h-243q-91 130 -189 272q-99 141 -217 310l-260 373h-21v-955h-263zM927 1547q-61 0 -107 24t-81 56q-36 32 -66.5 56t-61.5 24q-50 0 -71.5 -36t-26.5 -90h-138q0 149 57.5 229.5t154.5 80.5
q60 0 104.5 -24.5t79.5 -56.5t65.5 -56t63.5 -24q48 0 68.5 36t24.5 90h138q0 -149 -55.5 -229t-148.5 -80z" />
    <glyph glyph-name="Ograve" unicode="&#xd2;" horiz-adv-x="1630" 
d="M822 -25q-190 0 -329 59t-230 162t-135 236t-44 281q0 207 82.5 375t245.5 267t402 99q243 0 405.5 -99.5t244.5 -267.5t82 -373q0 -212 -84 -379t-246 -263.5t-394 -96.5zM817 208q149 0 246 70.5t144.5 186t47.5 249.5q0 142 -51 257t-148.5 182.5t-238.5 67.5
q-146 0 -244.5 -70t-148 -185.5t-49.5 -251.5t48.5 -251t146.5 -185t247 -70zM801 1559q-81 91 -163 184q-82 92 -168 189l267 5q64 -94 128 -187.5t129 -187.5z" />
    <glyph glyph-name="Oacute" unicode="&#xd3;" horiz-adv-x="1630" 
d="M822 -25q-190 0 -329 59t-230 162t-135 236t-44 281q0 207 82.5 375t245.5 267t402 99q243 0 405.5 -99.5t244.5 -267.5t82 -373q0 -212 -84 -379t-246 -263.5t-394 -96.5zM817 208q149 0 246 70.5t144.5 186t47.5 249.5q0 142 -51 257t-148.5 182.5t-238.5 67.5
q-146 0 -244.5 -70t-148 -185.5t-49.5 -251.5t48.5 -251t146.5 -185t247 -70zM636 1559q65 93 129 187q63 93 127 186l268 5q-85 -97 -168 -191t-163 -184z" />
    <glyph glyph-name="Ocircumflex" unicode="&#xd4;" horiz-adv-x="1630" 
d="M822 -25q-190 0 -329 59t-230 162t-135 236t-44 281q0 207 82.5 375t245.5 267t402 99q243 0 405.5 -99.5t244.5 -267.5t82 -373q0 -212 -84 -379t-246 -263.5t-394 -96.5zM817 208q149 0 246 70.5t144.5 186t47.5 249.5q0 142 -51 257t-148.5 182.5t-238.5 67.5
q-146 0 -244.5 -70t-148 -185.5t-49.5 -251.5t48.5 -251t146.5 -185t247 -70zM1011 1557l-98 118q-50 59 -100 119q-49 -59 -97.5 -117t-97.5 -116h-193q64 92 128 185q63 93 128 188h265q64 -95 128 -188.5t128 -185.5z" />
    <glyph glyph-name="Otilde" unicode="&#xd5;" horiz-adv-x="1630" 
d="M822 -25q-190 0 -329 59t-230 162t-135 236t-44 281q0 207 82.5 375t245.5 267t402 99q243 0 405.5 -99.5t244.5 -267.5t82 -373q0 -212 -84 -379t-246 -263.5t-394 -96.5zM817 208q149 0 246 70.5t144.5 186t47.5 249.5q0 142 -51 257t-148.5 182.5t-238.5 67.5
q-146 0 -244.5 -70t-148 -185.5t-49.5 -251.5t48.5 -251t146.5 -185t247 -70zM989 1547q-61 0 -107 24t-81 56q-36 32 -66.5 56t-61.5 24q-50 0 -71.5 -36t-26.5 -90h-138q0 149 57.5 229.5t154.5 80.5q60 0 104.5 -24.5t79.5 -56.5t65.5 -56t63.5 -24q48 0 68.5 36t24.5 90
h138q0 -149 -55.5 -229t-148.5 -80z" />
    <glyph glyph-name="Odieresis" unicode="&#xd6;" horiz-adv-x="1630" 
d="M822 -25q-190 0 -329 59t-230 162t-135 236t-44 281q0 207 82.5 375t245.5 267t402 99q243 0 405.5 -99.5t244.5 -267.5t82 -373q0 -212 -84 -379t-246 -263.5t-394 -96.5zM817 208q149 0 246 70.5t144.5 186t47.5 249.5q0 142 -51 257t-148.5 182.5t-238.5 67.5
q-146 0 -244.5 -70t-148 -185.5t-49.5 -251.5t48.5 -251t146.5 -185t247 -70zM1036 1585q-65 0 -102.5 36.5t-37.5 109.5q0 66 38 104.5t104 38.5t103.5 -40t37.5 -103q0 -73 -38 -109.5t-105 -36.5zM592 1585q-65 0 -103 36.5t-38 109.5q0 66 38 104.5t105 38.5
q65 0 103 -40t38 -103q0 -73 -38 -109.5t-105 -36.5z" />
    <glyph glyph-name="multiply" unicode="&#xd7;" horiz-adv-x="1152" 
d="M263 132l-158 159l313 313l-53 53l-260 261l158 158l313 -314l314 314l158 -158l-261 -261l-53 -53l314 -313l-158 -159l-314 314l-52 -52z" />
    <glyph glyph-name="Oslash" unicode="&#xd8;" horiz-adv-x="1630" 
d="M279 -144l-129 108q39 52 76 100.5t73 95.5q-109 103 -162 247t-53 306q0 207 82.5 375t245.5 267t402 99q119 0 219 -25.5t181 -72.5l62 82q31 40 63 82l135 -101q-32 -43 -63 -84q-32 -41 -63 -82q99 -101 148.5 -240t49.5 -299q0 -212 -84 -379t-246 -263.5
t-394 -96.5q-115 0 -211 22.5t-174 63.5q-39 -51 -78.5 -102t-79.5 -103zM375 714q0 -94 23 -179.5t70 -153.5q19 25 39 50q19 25 39 52l393 514q31 40 60.5 78.5t57.5 76.5q-48 33 -108.5 51t-131.5 18q-146 0 -244.5 -70t-148 -185.5t-49.5 -251.5zM817 208
q149 0 246 70.5t144.5 186t47.5 249.5q0 183 -80 313q-51 -66 -100 -131l-398 -520q-42 -56 -85 -112q46 -27 102.5 -41.5t122.5 -14.5z" />
    <glyph glyph-name="Ugrave" unicode="&#xd9;" horiz-adv-x="1458" 
d="M731 -25q-212 0 -342 69.5t-189.5 197t-59.5 300.5v884h280v-866q0 -167 72 -259.5t238 -92.5q169 0 238 92t69 261v865h280v-885q0 -172 -62 -299.5t-191 -197t-333 -69.5zM717 1559q-81 91 -163 184q-82 92 -168 189l267 5q64 -94 128 -187.5t129 -187.5z" />
    <glyph glyph-name="Uacute" unicode="&#xda;" horiz-adv-x="1458" 
d="M731 -25q-212 0 -342 69.5t-189.5 197t-59.5 300.5v884h280v-866q0 -167 72 -259.5t238 -92.5q169 0 238 92t69 261v865h280v-885q0 -172 -62 -299.5t-191 -197t-333 -69.5zM552 1559q65 93 129 187q63 93 127 186l268 5q-85 -97 -168 -191t-163 -184z" />
    <glyph glyph-name="Ucircumflex" unicode="&#xdb;" horiz-adv-x="1458" 
d="M731 -25q-212 0 -342 69.5t-189.5 197t-59.5 300.5v884h280v-866q0 -167 72 -259.5t238 -92.5q169 0 238 92t69 261v865h280v-885q0 -172 -62 -299.5t-191 -197t-333 -69.5zM927 1557l-98 118q-50 59 -100 119q-49 -59 -97.5 -117t-97.5 -116h-193q64 92 128 185
q63 93 128 188h265q64 -95 128 -188.5t128 -185.5z" />
    <glyph glyph-name="Udieresis" unicode="&#xdc;" horiz-adv-x="1458" 
d="M731 -25q-212 0 -342 69.5t-189.5 197t-59.5 300.5v884h280v-866q0 -167 72 -259.5t238 -92.5q169 0 238 92t69 261v865h280v-885q0 -172 -62 -299.5t-191 -197t-333 -69.5zM952 1585q-65 0 -102.5 36.5t-37.5 109.5q0 66 38 104.5t104 38.5t103.5 -40t37.5 -103
q0 -73 -38 -109.5t-105 -36.5zM508 1585q-65 0 -103 36.5t-38 109.5q0 66 38 104.5t105 38.5q65 0 103 -40t38 -103q0 -73 -38 -109.5t-105 -36.5z" />
    <glyph glyph-name="Yacute" unicode="&#xdd;" horiz-adv-x="1343" 
d="M534 0v532l-293 538q-48 88 -93 170q-45 81 -102 186h318q43 -88 73.5 -150.5t57.5 -118.5t60 -123l107 -220h25l105 213q35 71 64 129t60 121t74 149h309q-49 -90 -97 -180q-49 -90 -96 -175l-291 -537v-534h-281zM495 1559q65 93 129 187q63 93 127 186l268 5
q-85 -97 -168 -191t-163 -184z" />
    <glyph glyph-name="Thorn" unicode="&#xde;" horiz-adv-x="1283" 
d="M155 0v1426h276v-231h273q254 0 382 -99t128 -337q0 -137 -49.5 -242.5t-162 -165.5t-301.5 -60h-270v-291h-276zM685 971h-254v-458h209q150 0 219.5 57.5t69.5 185.5q0 92 -37.5 138t-94 61.5t-112.5 15.5z" />
    <glyph glyph-name="germandbls" unicode="&#xdf;" horiz-adv-x="1221" 
d="M715 -10q-68 0 -121 11v183q26 -5 61 -5q113 0 169 69t56 171q0 123 -75 187.5t-190 64.5v190q85 0 147.5 59.5t62.5 158.5q0 89 -50.5 145.5t-140.5 56.5q-93 0 -145 -59t-52 -183v-1039h-254v804h-142v192h142v34q0 224 121.5 343.5t337.5 119.5q194 0 308.5 -95.5
t114.5 -261.5q0 -126 -59 -202t-133 -110v-21q66 -25 127 -73t100.5 -125.5t39.5 -192.5q0 -189 -113.5 -305.5t-311.5 -116.5z" />
    <glyph glyph-name="agrave" unicode="&#xe0;" horiz-adv-x="1041" 
d="M376 -23q-126 0 -209.5 78t-83.5 219q0 112 49.5 177.5t124.5 98t153 44.5l285 42q4 105 -56 140t-156 35q-69 0 -156.5 -22t-186.5 -67l-12 221q73 29 185 53.5t237 24.5q183 0 285 -82t102 -268v-671h-225l-15 130h-21q-41 -55 -116 -104t-184 -49zM468 176
q63 0 122.5 43.5t97.5 118.5v157q-20 -14 -61.5 -24.5t-154.5 -31.5q-134 -24 -134 -145q0 -65 39.5 -91.5t90.5 -26.5zM517 1139q-80 100 -163 202t-168 208l267 6l128 -206t129 -207z" />
    <glyph glyph-name="aacute" unicode="&#xe1;" horiz-adv-x="1041" 
d="M376 -23q-126 0 -209.5 78t-83.5 219q0 112 49.5 177.5t124.5 98t153 44.5l285 42q4 105 -56 140t-156 35q-69 0 -156.5 -22t-186.5 -67l-12 221q73 29 185 53.5t237 24.5q183 0 285 -82t102 -268v-671h-225l-15 130h-21q-41 -55 -116 -104t-184 -49zM468 176
q63 0 122.5 43.5t97.5 118.5v157q-20 -14 -61.5 -24.5t-154.5 -31.5q-134 -24 -134 -145q0 -65 39.5 -91.5t90.5 -26.5zM352 1139q64 102 128.5 205t127.5 205l268 6q-86 -107 -168.5 -210t-162.5 -203z" />
    <glyph glyph-name="acircumflex" unicode="&#xe2;" horiz-adv-x="1041" 
d="M376 -23q-126 0 -209.5 78t-83.5 219q0 112 49.5 177.5t124.5 98t153 44.5l285 42q4 105 -56 140t-156 35q-69 0 -156.5 -22t-186.5 -67l-12 221q73 29 185 53.5t237 24.5q183 0 285 -82t102 -268v-671h-225l-15 130h-21q-41 -55 -116 -104t-184 -49zM468 176
q63 0 122.5 43.5t97.5 118.5v157q-20 -14 -61.5 -24.5t-154.5 -31.5q-134 -24 -134 -145q0 -65 39.5 -91.5t90.5 -26.5zM727 1137l-98 130t-99 130q-50 -65 -98 -128l-98 -128h-193q64 101 128 203.5t128 206.5h265q64 -104 128 -206.5t128 -204.5z" />
    <glyph glyph-name="atilde" unicode="&#xe3;" horiz-adv-x="1041" 
d="M376 -23q-126 0 -209.5 78t-83.5 219q0 112 49.5 177.5t124.5 98t153 44.5l285 42q4 105 -56 140t-156 35q-69 0 -156.5 -22t-186.5 -67l-12 221q73 29 185 53.5t237 24.5q183 0 285 -82t102 -268v-671h-225l-15 130h-21q-41 -55 -116 -104t-184 -49zM468 176
q63 0 122.5 43.5t97.5 118.5v157q-20 -14 -61.5 -24.5t-154.5 -31.5q-134 -24 -134 -145q0 -65 39.5 -91.5t90.5 -26.5zM705 1126q-61 0 -107 24.5t-81 56.5q-36 32 -66.5 56t-61.5 24q-50 0 -71.5 -36t-26.5 -90h-138q0 149 57.5 229t154.5 80q60 0 104.5 -24t79.5 -56
t65.5 -56t63.5 -24q48 0 68.5 36t24.5 90h138q0 -149 -55.5 -229.5t-148.5 -80.5z" />
    <glyph glyph-name="adieresis" unicode="&#xe4;" horiz-adv-x="1041" 
d="M376 -23q-126 0 -209.5 78t-83.5 219q0 112 49.5 177.5t124.5 98t153 44.5l285 42q4 105 -56 140t-156 35q-69 0 -156.5 -22t-186.5 -67l-12 221q73 29 185 53.5t237 24.5q183 0 285 -82t102 -268v-671h-225l-15 130h-21q-41 -55 -116 -104t-184 -49zM468 176
q63 0 122.5 43.5t97.5 118.5v157q-20 -14 -61.5 -24.5t-154.5 -31.5q-134 -24 -134 -145q0 -65 39.5 -91.5t90.5 -26.5zM752 1165q-65 0 -102.5 36.5t-37.5 109.5q0 66 38 104.5t104 38.5t103.5 -40t37.5 -103q0 -73 -38 -109.5t-105 -36.5zM308 1165q-65 0 -103 36.5
t-38 109.5q0 66 38 104.5t105 38.5q65 0 103 -40t38 -103q0 -73 -38 -109.5t-105 -36.5z" />
    <glyph glyph-name="aring" unicode="&#xe5;" horiz-adv-x="1041" 
d="M376 -23q-126 0 -209.5 78t-83.5 219q0 112 49.5 177.5t124.5 98t153 44.5l285 42q4 105 -56 140t-156 35q-69 0 -156.5 -22t-186.5 -67l-12 221q73 29 185 53.5t237 24.5q183 0 285 -82t102 -268v-671h-225l-15 130h-21q-41 -55 -116 -104t-184 -49zM468 176
q63 0 122.5 43.5t97.5 118.5v157q-20 -14 -61.5 -24.5t-154.5 -31.5q-134 -24 -134 -145q0 -65 39.5 -91.5t90.5 -26.5zM529 1110q-114 0 -184 58t-70 171q0 102 70.5 164t185.5 62q114 0 184 -63.5t70 -162.5q0 -113 -70.5 -171t-185.5 -58zM529 1223q55 0 88.5 29.5
t33.5 85.5q0 49 -33.5 81.5t-86.5 32.5q-55 0 -88.5 -32t-33.5 -82q0 -56 33.5 -85.5t86.5 -29.5z" />
    <glyph glyph-name="ae" unicode="&#xe6;" horiz-adv-x="1616" 
d="M384 -23q-145 0 -230 78t-85 219q0 112 49 177.5t124 98t153 44.5l285 42q4 105 -56 140t-155 35q-69 0 -156.5 -22t-186.5 -67l-13 221q71 29 177.5 53.5t224.5 24.5q107 0 183.5 -31t119.5 -98q55 62 135 95.5t182 33.5q196 0 308.5 -109t112.5 -327q0 -76 -8 -131
h-636q11 -126 88.5 -196.5t227.5 -70.5q63 0 147 17.5t155 54.5l8 -218q-57 -28 -144 -47t-195 -19q-153 0 -257.5 52.5t-164.5 143.5q-78 -102 -178 -148t-215 -46zM1134 834q-84 0 -142 -59.5t-75 -159.5l413 8q-6 99 -61.5 155t-134.5 56zM453 176q64 0 123 43.5
t98 118.5v157q-21 -14 -62 -24.5t-155 -31.5q-133 -24 -133 -145q0 -65 39 -91.5t90 -26.5z" />
    <glyph glyph-name="ccedilla" unicode="&#xe7;" horiz-adv-x="976" 
d="M601 -21q-167 0 -283.5 67.5t-177 184.5t-60.5 266q0 150 56.5 268.5t168.5 187t277 68.5q88 0 173 -20t145 -53l-20 -222q-85 48 -150.5 63t-113.5 15q-126 0 -201.5 -81.5t-75.5 -218.5q0 -136 80.5 -224.5t237.5 -88.5q59 0 117 16t111 50l15 -222q-51 -23 -125 -39.5
t-174 -16.5zM511 -438q-81 0 -132 17v146q12 -5 38 -9t57 -4q60 0 86 19t26 52q0 28 -29.5 52t-117.5 38l74 175h136v-48l-45 -104q103 -18 142.5 -61.5t39.5 -100.5q0 -72 -61.5 -122t-213.5 -50z" />
    <glyph glyph-name="egrave" unicode="&#xe8;" horiz-adv-x="1054" 
d="M622 -25q-188 0 -308 68t-177 187t-57 272q0 152 54.5 269.5t160.5 183.5t260 66q199 0 311.5 -109t112.5 -327q0 -76 -8 -131h-636q11 -126 88.5 -196.5t227.5 -70.5q63 0 147 17.5t155 54.5l8 -218q-57 -28 -143.5 -47t-195.5 -19zM557 834q-83 0 -141.5 -59.5
t-75.5 -159.5l414 8q-7 99 -61 155t-136 56zM539 1139q-80 100 -163 202t-168 208l267 6l128 -206t129 -207z" />
    <glyph glyph-name="eacute" unicode="&#xe9;" horiz-adv-x="1054" 
d="M622 -25q-188 0 -308 68t-177 187t-57 272q0 152 54.5 269.5t160.5 183.5t260 66q199 0 311.5 -109t112.5 -327q0 -76 -8 -131h-636q11 -126 88.5 -196.5t227.5 -70.5q63 0 147 17.5t155 54.5l8 -218q-57 -28 -143.5 -47t-195.5 -19zM557 834q-83 0 -141.5 -59.5
t-75.5 -159.5l414 8q-7 99 -61 155t-136 56zM374 1139q64 102 128.5 205t127.5 205l268 6q-86 -107 -168.5 -210t-162.5 -203z" />
    <glyph glyph-name="ecircumflex" unicode="&#xea;" horiz-adv-x="1054" 
d="M622 -25q-188 0 -308 68t-177 187t-57 272q0 152 54.5 269.5t160.5 183.5t260 66q199 0 311.5 -109t112.5 -327q0 -76 -8 -131h-636q11 -126 88.5 -196.5t227.5 -70.5q63 0 147 17.5t155 54.5l8 -218q-57 -28 -143.5 -47t-195.5 -19zM557 834q-83 0 -141.5 -59.5
t-75.5 -159.5l414 8q-7 99 -61 155t-136 56zM749 1137l-98 130t-99 130q-50 -65 -98 -128l-98 -128h-193q64 101 128 203.5t128 206.5h265q64 -104 128 -206.5t128 -204.5z" />
    <glyph glyph-name="edieresis" unicode="&#xeb;" horiz-adv-x="1054" 
d="M622 -25q-188 0 -308 68t-177 187t-57 272q0 152 54.5 269.5t160.5 183.5t260 66q199 0 311.5 -109t112.5 -327q0 -76 -8 -131h-636q11 -126 88.5 -196.5t227.5 -70.5q63 0 147 17.5t155 54.5l8 -218q-57 -28 -143.5 -47t-195.5 -19zM557 834q-83 0 -141.5 -59.5
t-75.5 -159.5l414 8q-7 99 -61 155t-136 56zM774 1165q-65 0 -102.5 36.5t-37.5 109.5q0 66 38 104.5t104 38.5t103.5 -40t37.5 -103q0 -73 -38 -109.5t-105 -36.5zM330 1165q-65 0 -103 36.5t-38 109.5q0 66 38 104.5t105 38.5q65 0 103 -40t38 -103q0 -73 -38 -109.5
t-105 -36.5z" />
    <glyph glyph-name="igrave" unicode="&#xec;" horiz-adv-x="543" 
d="M144 0v996l254 8v-1004h-254zM257 1139q-80 100 -163 202t-168 208l267 6l128 -206t129 -207z" />
    <glyph glyph-name="iacute" unicode="&#xed;" horiz-adv-x="543" 
d="M144 0v996l254 8v-1004h-254zM92 1139q64 102 128.5 205t127.5 205l268 6q-86 -107 -168.5 -210t-162.5 -203z" />
    <glyph glyph-name="icircumflex" unicode="&#xee;" horiz-adv-x="543" 
d="M144 0v996l254 8v-1004h-254zM-74 1141q57 102 113 204t113 206h236q56 -104 112 -206t113 -205l-180 -3q-40 67 -81 135t-82 137q-42 -68 -82 -135t-80 -133h-182z" />
    <glyph glyph-name="idieresis" unicode="&#xef;" horiz-adv-x="543" 
d="M144 0v996l254 8v-1004h-254zM459 1165q-62 0 -97.5 36.5t-35.5 109.5q0 66 36 104.5t99 38.5t98.5 -40t35.5 -103q0 -73 -36 -109.5t-100 -36.5zM81 1165q-62 0 -98 36.5t-36 109.5q0 66 36 104.5t100 38.5q62 0 97.5 -40t35.5 -103q0 -73 -35.5 -109.5t-99.5 -36.5z
" />
    <glyph glyph-name="eth" unicode="&#xf0;" horiz-adv-x="1187" 
d="M599 -25q-175 0 -290 71.5t-172 187t-57 249.5q0 137 52 242.5t144 166t214 60.5q77 0 161 -26t147 -82l19 10q-45 160 -159 301v-1q-75 -24 -159.5 -52t-174.5 -58l-53 159q69 23 134 44t124 41q-82 73 -189 141l207 78q114 -66 205 -145q63 20 133 43t146 48l53 -158
q-52 -17 -102 -33l-99 -33q105 -126 164.5 -280t59.5 -345t-53.5 -332t-166 -219t-288.5 -78zM338 473q0 -73 29 -138.5t86.5 -107.5t143.5 -42q126 0 188 113.5t62 329.5q-72 78 -141 98.5t-113 20.5q-85 0 -141.5 -39t-85 -101.5t-28.5 -133.5z" />
    <glyph glyph-name="ntilde" unicode="&#xf1;" horiz-adv-x="1153" 
d="M139 0v996l216 13l10 -177h23q50 72 134 131t208 59q304 0 304 -354v-668h-254v590q0 98 -33.5 148t-120.5 50q-77 0 -134 -44.5t-99 -108.5v-635h-254zM761 1126q-61 0 -107 24.5t-81 56.5q-36 32 -66.5 56t-61.5 24q-50 0 -71.5 -36t-26.5 -90h-138q0 149 57.5 229
t154.5 80q60 0 104.5 -24t79.5 -56t65.5 -56t63.5 -24q48 0 68.5 36t24.5 90h138q0 -149 -55.5 -229.5t-148.5 -80.5z" />
    <glyph glyph-name="ograve" unicode="&#xf2;" horiz-adv-x="1195" 
d="M602 -25q-176 0 -292 74t-173 194t-57 259q0 149 60 266.5t175.5 185.5t281.5 68q170 0 285.5 -69t174 -186.5t58.5 -264.5q0 -150 -60.5 -269t-175.5 -188.5t-277 -69.5zM601 185q86 0 142.5 45t84.5 117.5t28 154.5q0 143 -70 226.5t-186 83.5q-127 0 -194 -89.5
t-67 -220.5q0 -82 29 -154.5t87.5 -117.5t145.5 -45zM583 1139q-80 100 -163 202t-168 208l267 6l128 -206t129 -207z" />
    <glyph glyph-name="oacute" unicode="&#xf3;" horiz-adv-x="1195" 
d="M602 -25q-176 0 -292 74t-173 194t-57 259q0 149 60 266.5t175.5 185.5t281.5 68q170 0 285.5 -69t174 -186.5t58.5 -264.5q0 -150 -60.5 -269t-175.5 -188.5t-277 -69.5zM601 185q86 0 142.5 45t84.5 117.5t28 154.5q0 143 -70 226.5t-186 83.5q-127 0 -194 -89.5
t-67 -220.5q0 -82 29 -154.5t87.5 -117.5t145.5 -45zM418 1139q64 102 128.5 205t127.5 205l268 6q-86 -107 -168.5 -210t-162.5 -203z" />
    <glyph glyph-name="ocircumflex" unicode="&#xf4;" horiz-adv-x="1195" 
d="M602 -25q-176 0 -292 74t-173 194t-57 259q0 149 60 266.5t175.5 185.5t281.5 68q170 0 285.5 -69t174 -186.5t58.5 -264.5q0 -150 -60.5 -269t-175.5 -188.5t-277 -69.5zM601 185q86 0 142.5 45t84.5 117.5t28 154.5q0 143 -70 226.5t-186 83.5q-127 0 -194 -89.5
t-67 -220.5q0 -82 29 -154.5t87.5 -117.5t145.5 -45zM793 1137l-98 130t-99 130q-50 -65 -98 -128l-98 -128h-193q64 101 128 203.5t128 206.5h265q64 -104 128 -206.5t128 -204.5z" />
    <glyph glyph-name="otilde" unicode="&#xf5;" horiz-adv-x="1195" 
d="M602 -25q-176 0 -292 74t-173 194t-57 259q0 149 60 266.5t175.5 185.5t281.5 68q170 0 285.5 -69t174 -186.5t58.5 -264.5q0 -150 -60.5 -269t-175.5 -188.5t-277 -69.5zM601 185q86 0 142.5 45t84.5 117.5t28 154.5q0 143 -70 226.5t-186 83.5q-127 0 -194 -89.5
t-67 -220.5q0 -82 29 -154.5t87.5 -117.5t145.5 -45zM771 1126q-61 0 -107 24.5t-81 56.5q-36 32 -66.5 56t-61.5 24q-50 0 -71.5 -36t-26.5 -90h-138q0 149 57.5 229t154.5 80q60 0 104.5 -24t79.5 -56t65.5 -56t63.5 -24q48 0 68.5 36t24.5 90h138q0 -149 -55.5 -229.5
t-148.5 -80.5z" />
    <glyph glyph-name="odieresis" unicode="&#xf6;" horiz-adv-x="1195" 
d="M602 -25q-176 0 -292 74t-173 194t-57 259q0 149 60 266.5t175.5 185.5t281.5 68q170 0 285.5 -69t174 -186.5t58.5 -264.5q0 -150 -60.5 -269t-175.5 -188.5t-277 -69.5zM601 185q86 0 142.5 45t84.5 117.5t28 154.5q0 143 -70 226.5t-186 83.5q-127 0 -194 -89.5
t-67 -220.5q0 -82 29 -154.5t87.5 -117.5t145.5 -45zM818 1165q-65 0 -102.5 36.5t-37.5 109.5q0 66 38 104.5t104 38.5t103.5 -40t37.5 -103q0 -73 -38 -109.5t-105 -36.5zM374 1165q-65 0 -103 36.5t-38 109.5q0 66 38 104.5t105 38.5q65 0 103 -40t38 -103
q0 -73 -38 -109.5t-105 -36.5z" />
    <glyph glyph-name="divide" unicode="&#xf7;" horiz-adv-x="1150" 
d="M573 845q-69 0 -108.5 41.5t-39.5 104.5t39.5 103t109.5 40q69 0 108.5 -40t39.5 -103t-40 -104.5t-109 -41.5zM110 493v222h931v-222h-931zM572 73q-68 0 -107.5 41t-39.5 105q0 63 40 102.5t108 39.5q69 0 109 -39.5t40 -102.5q0 -64 -40 -105t-110 -41z" />
    <glyph glyph-name="oslash" unicode="&#xf8;" horiz-adv-x="1194" 
d="M209 -142l-114 92q34 45 66 87q32 41 63 82q-72 73 -108 173t-36 210q0 149 60 266.5t175.5 185t282.5 67.5q79 0 146.5 -15.5t123.5 -45.5q26 35 52.5 69.5t53.5 69.5l118 -87q-28 -36 -54 -71l-54 -70q66 -70 99 -164.5t33 -204.5q0 -149 -61 -268.5t-176 -189
t-277 -69.5q-76 0 -141 15t-119 42l-66 -86t-67 -88zM335 502q0 -103 42 -183q6 8 12 15l289 378q25 32 53 69q-57 34 -131 34q-130 0 -197.5 -90.5t-67.5 -222.5zM600 182q88 0 145.5 45.5t85.5 118.5t28 156q0 94 -31 165q-18 -23 -34 -44l-293 -383q-10 -14 -21 -29
q53 -29 120 -29z" />
    <glyph glyph-name="ugrave" unicode="&#xf9;" horiz-adv-x="1133" 
d="M423 -25q-304 0 -304 354v667l254 8v-602q0 -98 33.5 -148t120.5 -50q73 0 129.5 44.5t98.5 108.5v639h254v-996h-216l-10 165h-23q-49 -72 -133 -131t-204 -59zM551 1139q-80 100 -163 202t-168 208l267 6l128 -206t129 -207z" />
    <glyph glyph-name="uacute" unicode="&#xfa;" horiz-adv-x="1133" 
d="M423 -25q-304 0 -304 354v667l254 8v-602q0 -98 33.5 -148t120.5 -50q73 0 129.5 44.5t98.5 108.5v639h254v-996h-216l-10 165h-23q-49 -72 -133 -131t-204 -59zM386 1139q64 102 128.5 205t127.5 205l268 6q-86 -107 -168.5 -210t-162.5 -203z" />
    <glyph glyph-name="ucircumflex" unicode="&#xfb;" horiz-adv-x="1133" 
d="M423 -25q-304 0 -304 354v667l254 8v-602q0 -98 33.5 -148t120.5 -50q73 0 129.5 44.5t98.5 108.5v639h254v-996h-216l-10 165h-23q-49 -72 -133 -131t-204 -59zM761 1137l-98 130t-99 130q-50 -65 -98 -128l-98 -128h-193q64 101 128 203.5t128 206.5h265
q64 -104 128 -206.5t128 -204.5z" />
    <glyph glyph-name="udieresis" unicode="&#xfc;" horiz-adv-x="1133" 
d="M423 -25q-304 0 -304 354v667l254 8v-602q0 -98 33.5 -148t120.5 -50q73 0 129.5 44.5t98.5 108.5v639h254v-996h-216l-10 165h-23q-49 -72 -133 -131t-204 -59zM786 1165q-65 0 -102.5 36.5t-37.5 109.5q0 66 38 104.5t104 38.5t103.5 -40t37.5 -103q0 -73 -38 -109.5
t-105 -36.5zM342 1165q-65 0 -103 36.5t-38 109.5q0 66 38 104.5t105 38.5q65 0 103 -40t38 -103q0 -73 -38 -109.5t-105 -36.5z" />
    <glyph glyph-name="yacute" unicode="&#xfd;" horiz-adv-x="1077" 
d="M240 -392l77 192.5t78 192.5q-35 96 -70 193.5t-68 191.5l-64 180q-39 107 -79 219t-78 219l274 8q33 -115 64.5 -225t64.5 -226l81 -286h23l89 286q35 112 69 222q34 109 69 221h271q-31 -80 -60 -155t-64 -165t-84 -215l-109 -280q-74 -190 -126 -324
q-52 -133 -94 -241zM359 1139q64 102 128.5 205t127.5 205l268 6q-86 -107 -168.5 -210t-162.5 -203z" />
    <glyph glyph-name="thorn" unicode="&#xfe;" horiz-adv-x="1184" 
d="M139 -392v1857l254 24v-607h23q42 57 113 98.5t170 41.5q129 0 219.5 -69t137 -187t46.5 -266q0 -139 -44.5 -258.5t-135 -193t-228.5 -73.5q-94 0 -163.5 37t-120.5 102h-17v-498zM602 194q83 0 136 43t78.5 112.5t25.5 148.5q0 83 -26.5 151.5t-80 110t-135.5 41.5
q-61 0 -116 -27t-91 -79v-373q34 -59 85.5 -93.5t123.5 -34.5z" />
    <glyph glyph-name="ydieresis" unicode="&#xff;" horiz-adv-x="1077" 
d="M240 -392l77 192.5t78 192.5q-35 96 -70 193.5t-68 191.5l-64 180q-39 107 -79 219t-78 219l274 8q33 -115 64.5 -225t64.5 -226l81 -286h23l89 286q35 112 69 222q34 109 69 221h271q-31 -80 -60 -155t-64 -165t-84 -215l-109 -280q-74 -190 -126 -324
q-52 -133 -94 -241zM759 1165q-65 0 -102.5 36.5t-37.5 109.5q0 66 38 104.5t104 38.5t103.5 -40t37.5 -103q0 -73 -38 -109.5t-105 -36.5zM315 1165q-65 0 -103 36.5t-38 109.5q0 66 38 104.5t105 38.5q65 0 103 -40t38 -103q0 -73 -38 -109.5t-105 -36.5z" />
    <glyph glyph-name="Amacron" unicode="&#x100;" horiz-adv-x="1418" 
d="M48 0q39 115 82 242t81 241l166 489q45 133 81 240q36 106 73 214h362q37 -112 72.5 -218t80.5 -236l164 -490q40 -119 82 -243q42 -125 80 -239h-289q-24 77 -48 158q-25 81 -49 160h-558q-25 -80 -50 -161t-49 -157h-281zM698 1185l-204 -655h427l-201 655h-22z
M377 1632v189h664v-189h-664z" />
    <glyph glyph-name="amacron" unicode="&#x101;" horiz-adv-x="1041" 
d="M376 -23q-126 0 -209.5 78t-83.5 219q0 112 49.5 177.5t124.5 98t153 44.5l285 42q4 105 -56 140t-156 35q-69 0 -156.5 -22t-186.5 -67l-12 221q73 29 185 53.5t237 24.5q183 0 285 -82t102 -268v-671h-225l-15 130h-21q-41 -55 -116 -104t-184 -49zM468 176
q63 0 122.5 43.5t97.5 118.5v157q-20 -14 -61.5 -24.5t-154.5 -31.5q-134 -24 -134 -145q0 -65 39.5 -91.5t90.5 -26.5zM199 1212v189h664v-189h-664z" />
    <glyph glyph-name="Abreve" unicode="&#x102;" horiz-adv-x="1418" 
d="M48 0q39 115 82 242t81 241l166 489q45 133 81 240q36 106 73 214h362q37 -112 72.5 -218t80.5 -236l164 -490q40 -119 82 -243q42 -125 80 -239h-289q-24 77 -48 158q-25 81 -49 160h-558q-25 -80 -50 -161t-49 -157h-281zM698 1185l-204 -655h427l-201 655h-22z
M706 1543q-354 0 -354 396l178 8q0 -230 176 -230q178 0 178 222h178q0 -396 -356 -396z" />
    <glyph glyph-name="abreve" unicode="&#x103;" horiz-adv-x="1041" 
d="M376 -23q-126 0 -209.5 78t-83.5 219q0 112 49.5 177.5t124.5 98t153 44.5l285 42q4 105 -56 140t-156 35q-69 0 -156.5 -22t-186.5 -67l-12 221q73 29 185 53.5t237 24.5q183 0 285 -82t102 -268v-671h-225l-15 130h-21q-41 -55 -116 -104t-184 -49zM468 176
q63 0 122.5 43.5t97.5 118.5v157q-20 -14 -61.5 -24.5t-154.5 -31.5q-134 -24 -134 -145q0 -65 39.5 -91.5t90.5 -26.5zM528 1123q-354 0 -354 396l178 8q0 -230 176 -230q178 0 178 222h178q0 -396 -356 -396z" />
    <glyph glyph-name="Aogonek" unicode="&#x104;" horiz-adv-x="1418" 
d="M48 0q39 115 82 242t81 241l166 489q45 133 81 240q36 106 73 214h362q37 -112 72.5 -218t80.5 -236l164 -490q40 -119 82 -243q42 -125 80 -239h-289q-24 77 -48 158q-25 81 -49 160h-558q-25 -80 -50 -161t-49 -157h-281zM698 1185l-204 -655h427l-201 655h-22z
M1251 -429q-131 0 -192 49.5t-61 125.5q0 77 51.5 139.5t137.5 110.5v51l133 13l51 -60q-79 -37 -131 -86.5t-52 -104.5q0 -39 27.5 -58.5t74.5 -19.5q31 0 53.5 4.5t35.5 9.5v-155q-22 -8 -56.5 -13.5t-71.5 -5.5z" />
    <glyph glyph-name="aogonek" unicode="&#x105;" horiz-adv-x="1055" 
d="M376 -23q-126 0 -209.5 78t-83.5 219q0 112 49.5 177.5t124.5 98t153 44.5l285 42q4 105 -56 140t-156 35q-69 0 -156.5 -22t-186.5 -67l-12 221q73 29 185 53.5t237 24.5q183 0 285 -82t102 -268v-671h-225l-15 130h-21q-41 -55 -116 -104t-184 -49zM468 176
q63 0 122.5 43.5t97.5 118.5v157q-20 -14 -61.5 -24.5t-154.5 -31.5q-134 -24 -134 -145q0 -65 39.5 -91.5t90.5 -26.5zM817 -429q-131 0 -192 49.5t-61 125.5q0 77 51.5 139.5t137.5 110.5v53l122 13l62 -62q-79 -37 -131 -86.5t-52 -104.5q0 -39 27.5 -58.5t74.5 -19.5
q31 0 53.5 4.5t35.5 9.5v-155q-22 -8 -56.5 -13.5t-71.5 -5.5z" />
    <glyph glyph-name="Cacute" unicode="&#x106;" horiz-adv-x="1368" 
d="M829 -25q-230 0 -397 94t-257.5 260t-90.5 384q0 215 87 382.5t248.5 263t383.5 95.5q139 0 265.5 -34.5t206.5 -76.5l-22 -262q-116 71 -221.5 102t-199.5 31q-132 0 -235.5 -59t-162.5 -171t-59 -271q0 -138 54 -252.5t162.5 -183.5t271.5 -69q96 0 194.5 27t192.5 96
l17 -259q-85 -50 -202 -73.5t-236 -23.5zM605 1559q65 93 129 187q63 93 127 186l268 5q-85 -97 -168 -191t-163 -184z" />
    <glyph glyph-name="cacute" unicode="&#x107;" horiz-adv-x="976" 
d="M601 -21q-167 0 -283.5 67.5t-177 184.5t-60.5 266q0 150 56.5 268.5t168.5 187t277 68.5q88 0 173 -20t145 -53l-20 -222q-85 48 -150.5 63t-113.5 15q-126 0 -201.5 -81.5t-75.5 -218.5q0 -136 80.5 -224.5t237.5 -88.5q59 0 117 16t111 50l15 -222q-51 -23 -125 -39.5
t-174 -16.5zM376 1139q64 102 128.5 205t127.5 205l268 6q-86 -107 -168.5 -210t-162.5 -203z" />
    <glyph glyph-name="Ccircumflex" unicode="&#x108;" horiz-adv-x="1368" 
d="M829 -25q-230 0 -397 94t-257.5 260t-90.5 384q0 215 87 382.5t248.5 263t383.5 95.5q139 0 265.5 -34.5t206.5 -76.5l-22 -262q-116 71 -221.5 102t-199.5 31q-132 0 -235.5 -59t-162.5 -171t-59 -271q0 -138 54 -252.5t162.5 -183.5t271.5 -69q96 0 194.5 27t192.5 96
l17 -259q-85 -50 -202 -73.5t-236 -23.5zM980 1557l-98 118q-50 59 -100 119q-49 -59 -97.5 -117t-97.5 -116h-193q64 92 128 185q63 93 128 188h265q64 -95 128 -188.5t128 -185.5z" />
    <glyph glyph-name="ccircumflex" unicode="&#x109;" horiz-adv-x="976" 
d="M601 -21q-167 0 -283.5 67.5t-177 184.5t-60.5 266q0 150 56.5 268.5t168.5 187t277 68.5q88 0 173 -20t145 -53l-20 -222q-85 48 -150.5 63t-113.5 15q-126 0 -201.5 -81.5t-75.5 -218.5q0 -136 80.5 -224.5t237.5 -88.5q59 0 117 16t111 50l15 -222q-51 -23 -125 -39.5
t-174 -16.5zM751 1137l-98 130t-99 130q-50 -65 -98 -128l-98 -128h-193q64 101 128 203.5t128 206.5h265q64 -104 128 -206.5t128 -204.5z" />
    <glyph glyph-name="Cdotaccent" unicode="&#x10a;" horiz-adv-x="1368" 
d="M829 -25q-230 0 -397 94t-257.5 260t-90.5 384q0 215 87 382.5t248.5 263t383.5 95.5q139 0 265.5 -34.5t206.5 -76.5l-22 -262q-116 71 -221.5 102t-199.5 31q-132 0 -235.5 -59t-162.5 -171t-59 -271q0 -138 54 -252.5t162.5 -183.5t271.5 -69q96 0 194.5 27t192.5 96
l17 -259q-85 -50 -202 -73.5t-236 -23.5zM781 1585q-73 0 -117 36.5t-44 116.5q0 73 44 111.5t119 38.5t118.5 -40t43.5 -110q0 -80 -43.5 -116.5t-120.5 -36.5z" />
    <glyph glyph-name="cdotaccent" unicode="&#x10b;" horiz-adv-x="976" 
d="M601 -21q-167 0 -283.5 67.5t-177 184.5t-60.5 266q0 150 56.5 268.5t168.5 187t277 68.5q88 0 173 -20t145 -53l-20 -222q-85 48 -150.5 63t-113.5 15q-126 0 -201.5 -81.5t-75.5 -218.5q0 -136 80.5 -224.5t237.5 -88.5q59 0 117 16t111 50l15 -222q-51 -23 -125 -39.5
t-174 -16.5zM552 1175q-73 0 -117 36.5t-44 116.5q0 73 44 111.5t119 38.5t118.5 -40t43.5 -110q0 -80 -43.5 -116.5t-120.5 -36.5z" />
    <glyph glyph-name="Ccaron" unicode="&#x10c;" horiz-adv-x="1368" 
d="M829 -25q-230 0 -397 94t-257.5 260t-90.5 384q0 215 87 382.5t248.5 263t383.5 95.5q139 0 265.5 -34.5t206.5 -76.5l-22 -262q-116 71 -221.5 102t-199.5 31q-132 0 -235.5 -59t-162.5 -171t-59 -271q0 -138 54 -252.5t162.5 -183.5t271.5 -69q96 0 194.5 27t192.5 96
l17 -259q-85 -50 -202 -73.5t-236 -23.5zM651 1558l-128 188t-128 186l191 3q49 -60 99 -118q49 -59 99 -120q49 60 97.5 118t97.5 116h193q-64 -92 -127 -185q-64 -94 -129 -188h-265z" />
    <glyph glyph-name="ccaron" unicode="&#x10d;" horiz-adv-x="976" 
d="M601 -21q-167 0 -283.5 67.5t-177 184.5t-60.5 266q0 150 56.5 268.5t168.5 187t277 68.5q88 0 173 -20t145 -53l-20 -222q-85 48 -150.5 63t-113.5 15q-126 0 -201.5 -81.5t-75.5 -218.5q0 -136 80.5 -224.5t237.5 -88.5q59 0 117 16t111 50l15 -222q-51 -23 -125 -39.5
t-174 -16.5zM422 1131l-128 206t-128 205l191 3l98 -130t99 -131q50 66 98.5 129.5t97.5 127.5h193q-64 -101 -128 -204l-128 -206h-265z" />
    <glyph glyph-name="Dcaron" unicode="&#x10e;" horiz-adv-x="1469" 
d="M155 0v1426h545q327 0 506 -185.5t179 -522.5q0 -151 -40 -281.5t-128.5 -228.5t-232 -153t-350.5 -55h-479zM436 226h198q170 0 271 65t145 177t44 254q0 216 -105.5 347t-336.5 131h-216v-974zM572 1558l-128 188t-128 186l191 3q49 -60 99 -118q49 -59 99 -120
q49 60 97.5 118t97.5 116h193q-64 -92 -127 -185q-64 -94 -129 -188h-265z" />
    <glyph glyph-name="dcaron" unicode="&#x10f;" horiz-adv-x="1206" 
d="M490 -25q-138 0 -228.5 73.5t-135 193t-44.5 258.5q0 148 47 266t139 187t225 69q94 0 164 -36t112 -95h22v574l254 24v-1489h-217l-15 133h-19q-56 -77 -131 -117.5t-173 -40.5zM582 194q72 0 123.5 34.5t85.5 93.5v373q-36 52 -91 79t-116 27q-82 0 -135.5 -41.5
t-80 -110t-26.5 -151.5q0 -79 25.5 -148.5t78.5 -112.5t136 -43zM1181 1090q28 72 40.5 151t12.5 141v178l111 10q43 -3 71 -33.5t28 -83.5q0 -68 -22.5 -135.5t-57 -125.5t-69.5 -99z" />
    <glyph glyph-name="Dcroat" unicode="&#x110;" horiz-adv-x="1469" 
d="M155 0v606h-181v193h181v627h545q327 0 506 -185.5t179 -522.5q0 -151 -40 -281.5t-128.5 -228.5t-232 -153t-350.5 -55h-479zM436 226h198q170 0 271 65t145 177t44 254q0 216 -105.5 347t-336.5 131h-216v-401h318v-193h-318v-380z" />
    <glyph glyph-name="dcroat" unicode="&#x111;" horiz-adv-x="1165" 
d="M490 -25q-138 0 -228.5 73.5t-135 193t-44.5 258.5q0 148 47 266t139 187t225 69q94 0 164 -36t112 -95h22v270h-321v171h321v133l254 24v-157h165v-171h-165v-1161h-217l-15 133h-19q-56 -77 -131 -117.5t-173 -40.5zM582 194q72 0 123.5 34.5t85.5 93.5v373
q-36 52 -91 79t-116 27q-82 0 -135.5 -41.5t-80 -110t-26.5 -151.5q0 -79 25.5 -148.5t78.5 -112.5t136 -43z" />
    <glyph glyph-name="Emacron" unicode="&#x112;" horiz-adv-x="1191" 
d="M155 0v1426h926v-233h-652v-362h618v-221h-618v-377h659v-233h-933zM291 1632v189h664v-189h-664z" />
    <glyph glyph-name="emacron" unicode="&#x113;" horiz-adv-x="1054" 
d="M622 -25q-188 0 -308 68t-177 187t-57 272q0 152 54.5 269.5t160.5 183.5t260 66q199 0 311.5 -109t112.5 -327q0 -76 -8 -131h-636q11 -126 88.5 -196.5t227.5 -70.5q63 0 147 17.5t155 54.5l8 -218q-57 -28 -143.5 -47t-195.5 -19zM557 834q-83 0 -141.5 -59.5
t-75.5 -159.5l414 8q-7 99 -61 155t-136 56zM221 1212v189h664v-189h-664z" />
    <glyph glyph-name="Ebreve" unicode="&#x114;" horiz-adv-x="1191" 
d="M155 0v1426h926v-233h-652v-362h618v-221h-618v-377h659v-233h-933zM620 1543q-354 0 -354 396l178 8q0 -230 176 -230q178 0 178 222h178q0 -396 -356 -396z" />
    <glyph glyph-name="ebreve" unicode="&#x115;" horiz-adv-x="1054" 
d="M622 -25q-188 0 -308 68t-177 187t-57 272q0 152 54.5 269.5t160.5 183.5t260 66q199 0 311.5 -109t112.5 -327q0 -76 -8 -131h-636q11 -126 88.5 -196.5t227.5 -70.5q63 0 147 17.5t155 54.5l8 -218q-57 -28 -143.5 -47t-195.5 -19zM557 834q-83 0 -141.5 -59.5
t-75.5 -159.5l414 8q-7 99 -61 155t-136 56zM550 1123q-354 0 -354 396l178 8q0 -230 176 -230q178 0 178 222h178q0 -396 -356 -396z" />
    <glyph glyph-name="Edotaccent" unicode="&#x116;" horiz-adv-x="1191" 
d="M155 0v1426h926v-233h-652v-362h618v-221h-618v-377h659v-233h-933zM620 1585q-73 0 -117 36.5t-44 116.5q0 73 44 111.5t119 38.5t118.5 -40t43.5 -110q0 -80 -43.5 -116.5t-120.5 -36.5z" />
    <glyph glyph-name="edotaccent" unicode="&#x117;" horiz-adv-x="1054" 
d="M622 -25q-188 0 -308 68t-177 187t-57 272q0 152 54.5 269.5t160.5 183.5t260 66q199 0 311.5 -109t112.5 -327q0 -76 -8 -131h-636q11 -126 88.5 -196.5t227.5 -70.5q63 0 147 17.5t155 54.5l8 -218q-57 -28 -143.5 -47t-195.5 -19zM557 834q-83 0 -141.5 -59.5
t-75.5 -159.5l414 8q-7 99 -61 155t-136 56zM550 1175q-73 0 -117 36.5t-44 116.5q0 73 44 111.5t119 38.5t118.5 -40t43.5 -110q0 -80 -43.5 -116.5t-120.5 -36.5z" />
    <glyph glyph-name="Eogonek" unicode="&#x118;" horiz-adv-x="1190" 
d="M155 0v1426h926v-233h-652v-362h618v-221h-618v-377h659v-233h-933zM966 -429q-131 0 -192 49.5t-61 125.5q0 77 51.5 139.5t137.5 110.5v51l133 13l51 -60q-79 -37 -131 -86.5t-52 -104.5q0 -39 27.5 -58.5t74.5 -19.5q31 0 53.5 4.5t35.5 9.5v-155q-22 -8 -56.5 -13.5
t-71.5 -5.5z" />
    <glyph glyph-name="eogonek" unicode="&#x119;" horiz-adv-x="1054" 
d="M622 -25q-188 0 -308 68t-177 187t-57 272q0 152 54.5 269.5t160.5 183.5t260 66q199 0 311.5 -109t112.5 -327q0 -76 -8 -131h-636q11 -126 88.5 -196.5t227.5 -70.5q63 0 147 17.5t155 54.5l8 -218q-57 -28 -143.5 -47t-195.5 -19zM557 834q-83 0 -141.5 -59.5
t-75.5 -159.5l414 8q-7 99 -61 155t-136 56zM690 -429q-131 0 -192 49.5t-61 125.5q0 77 51.5 139.5t137.5 110.5v51l133 13l51 -60q-79 -37 -131 -86.5t-52 -104.5q0 -39 27.5 -58.5t74.5 -19.5q31 0 53.5 4.5t35.5 9.5v-155q-22 -8 -56.5 -13.5t-71.5 -5.5z" />
    <glyph glyph-name="Ecaron" unicode="&#x11a;" horiz-adv-x="1191" 
d="M155 0v1426h926v-233h-652v-362h618v-221h-618v-377h659v-233h-933zM490 1558l-128 188t-128 186l191 3q49 -60 99 -118q49 -59 99 -120q49 60 97.5 118t97.5 116h193q-64 -92 -127 -185q-64 -94 -129 -188h-265z" />
    <glyph glyph-name="ecaron" unicode="&#x11b;" horiz-adv-x="1054" 
d="M622 -25q-188 0 -308 68t-177 187t-57 272q0 152 54.5 269.5t160.5 183.5t260 66q199 0 311.5 -109t112.5 -327q0 -76 -8 -131h-636q11 -126 88.5 -196.5t227.5 -70.5q63 0 147 17.5t155 54.5l8 -218q-57 -28 -143.5 -47t-195.5 -19zM557 834q-83 0 -141.5 -59.5
t-75.5 -159.5l414 8q-7 99 -61 155t-136 56zM420 1131l-128 206t-128 205l191 3l98 -130t99 -131q50 66 98.5 129.5t97.5 127.5h193q-64 -101 -128 -204l-128 -206h-265z" />
    <glyph glyph-name="Gcircumflex" unicode="&#x11c;" horiz-adv-x="1461" 
d="M1337 55q-45 -20 -122 -38t-172 -29.5t-193 -11.5q-246 0 -417 95.5t-260 262.5t-89 380q0 217 89 384t254 261.5t394 94.5q150 0 280.5 -35.5t212.5 -76.5l-22 -261q-125 71 -238.5 102t-211.5 31q-135 0 -241 -58.5t-167 -170t-61 -272.5q0 -141 53.5 -257t164 -184.5
t282.5 -68.5q108 0 201 19v387h-367v222h630v-776zM990 1557l-98 118q-50 59 -100 119q-49 -59 -97.5 -117t-97.5 -116h-193q64 92 128 185q63 93 128 188h265q64 -95 128 -188.5t128 -185.5z" />
    <glyph glyph-name="gcircumflex" unicode="&#x11d;" horiz-adv-x="1094" 
d="M482 -408q-150 0 -235.5 33.5t-120.5 86.5t-35 111q0 67 32 110.5t74.5 68t72.5 34.5v18q-24 8 -63 42.5t-39 104.5q0 49 27.5 92t91.5 71v18q-37 16 -87 52.5t-87 99.5t-37 158q0 142 105 235.5t308 93.5q53 0 93 -5q40 -6 83 -11.5t107 -5.5h285v-176h-186
q31 -62 31 -145q0 -150 -92.5 -229t-231.5 -110q-90 -20 -133 -36t-43 -46q0 -32 41.5 -43t136.5 -11h41q196 0 299.5 -52.5t103.5 -193.5q0 -98 -48.5 -167.5t-128 -113t-175 -64t-190.5 -20.5zM482 503q38 5 82 21t76 48.5t32 84.5q0 82 -59.5 120.5t-125.5 38.5
q-67 0 -122 -38.5t-55 -108.5t52.5 -112t119.5 -54zM512 -219q92 0 152.5 23.5t91 54.5t30.5 54q0 27 -19 47t-69.5 30.5t-146.5 10.5h-33q-46 -2 -92.5 -17.5t-77.5 -41t-31 -58.5q0 -39 45.5 -71t149.5 -32zM725 1137l-98 130t-99 130q-50 -65 -98 -128l-98 -128h-193
q64 101 128 203.5t128 206.5h265q64 -104 128 -206.5t128 -204.5z" />
    <glyph glyph-name="Gbreve" unicode="&#x11e;" horiz-adv-x="1461" 
d="M1337 55q-45 -20 -122 -38t-172 -29.5t-193 -11.5q-246 0 -417 95.5t-260 262.5t-89 380q0 217 89 384t254 261.5t394 94.5q150 0 280.5 -35.5t212.5 -76.5l-22 -261q-125 71 -238.5 102t-211.5 31q-135 0 -241 -58.5t-167 -170t-61 -272.5q0 -141 53.5 -257t164 -184.5
t282.5 -68.5q108 0 201 19v387h-367v222h630v-776zM791 1543q-354 0 -354 396l178 8q0 -230 176 -230q178 0 178 222h178q0 -396 -356 -396z" />
    <glyph glyph-name="gbreve" unicode="&#x11f;" horiz-adv-x="1094" 
d="M482 -408q-150 0 -235.5 33.5t-120.5 86.5t-35 111q0 67 32 110.5t74.5 68t72.5 34.5v18q-24 8 -63 42.5t-39 104.5q0 49 27.5 92t91.5 71v18q-37 16 -87 52.5t-87 99.5t-37 158q0 142 105 235.5t308 93.5q53 0 93 -5q40 -6 83 -11.5t107 -5.5h285v-176h-186
q31 -62 31 -145q0 -150 -92.5 -229t-231.5 -110q-90 -20 -133 -36t-43 -46q0 -32 41.5 -43t136.5 -11h41q196 0 299.5 -52.5t103.5 -193.5q0 -98 -48.5 -167.5t-128 -113t-175 -64t-190.5 -20.5zM482 503q38 5 82 21t76 48.5t32 84.5q0 82 -59.5 120.5t-125.5 38.5
q-67 0 -122 -38.5t-55 -108.5t52.5 -112t119.5 -54zM512 -219q92 0 152.5 23.5t91 54.5t30.5 54q0 27 -19 47t-69.5 30.5t-146.5 10.5h-33q-46 -2 -92.5 -17.5t-77.5 -41t-31 -58.5q0 -39 45.5 -71t149.5 -32zM526 1123q-354 0 -354 396l178 8q0 -230 176 -230
q178 0 178 222h178q0 -396 -356 -396z" />
    <glyph glyph-name="Gdotaccent" unicode="&#x120;" horiz-adv-x="1461" 
d="M1337 55q-45 -20 -122 -38t-172 -29.5t-193 -11.5q-246 0 -417 95.5t-260 262.5t-89 380q0 217 89 384t254 261.5t394 94.5q150 0 280.5 -35.5t212.5 -76.5l-22 -261q-125 71 -238.5 102t-211.5 31q-135 0 -241 -58.5t-167 -170t-61 -272.5q0 -141 53.5 -257t164 -184.5
t282.5 -68.5q108 0 201 19v387h-367v222h630v-776zM791 1585q-73 0 -117 36.5t-44 116.5q0 73 44 111.5t119 38.5t118.5 -40t43.5 -110q0 -80 -43.5 -116.5t-120.5 -36.5z" />
    <glyph glyph-name="gdotaccent" unicode="&#x121;" horiz-adv-x="1094" 
d="M482 -408q-150 0 -235.5 33.5t-120.5 86.5t-35 111q0 67 32 110.5t74.5 68t72.5 34.5v18q-24 8 -63 42.5t-39 104.5q0 49 27.5 92t91.5 71v18q-37 16 -87 52.5t-87 99.5t-37 158q0 142 105 235.5t308 93.5q53 0 93 -5q40 -6 83 -11.5t107 -5.5h285v-176h-186
q31 -62 31 -145q0 -150 -92.5 -229t-231.5 -110q-90 -20 -133 -36t-43 -46q0 -32 41.5 -43t136.5 -11h41q196 0 299.5 -52.5t103.5 -193.5q0 -98 -48.5 -167.5t-128 -113t-175 -64t-190.5 -20.5zM482 503q38 5 82 21t76 48.5t32 84.5q0 82 -59.5 120.5t-125.5 38.5
q-67 0 -122 -38.5t-55 -108.5t52.5 -112t119.5 -54zM512 -219q92 0 152.5 23.5t91 54.5t30.5 54q0 27 -19 47t-69.5 30.5t-146.5 10.5h-33q-46 -2 -92.5 -17.5t-77.5 -41t-31 -58.5q0 -39 45.5 -71t149.5 -32zM526 1175q-73 0 -117 36.5t-44 116.5q0 73 44 111.5t119 38.5
t118.5 -40t43.5 -110q0 -80 -43.5 -116.5t-120.5 -36.5z" />
    <glyph glyph-name="uni0122" unicode="&#x122;" horiz-adv-x="1461" 
d="M1337 55q-45 -20 -122 -38t-172 -29.5t-193 -11.5q-246 0 -417 95.5t-260 262.5t-89 380q0 217 89 384t254 261.5t394 94.5q150 0 280.5 -35.5t212.5 -76.5l-22 -261q-125 71 -238.5 102t-211.5 31q-135 0 -241 -58.5t-167 -170t-61 -272.5q0 -141 53.5 -257t164 -184.5
t282.5 -68.5q108 0 201 19v387h-367v222h630v-776zM630 -575q37 59 46.5 118t9.5 136v161l117 10q69 -4 104 -38t35 -88q0 -88 -54 -167.5t-148 -128.5z" />
    <glyph glyph-name="uni0123" unicode="&#x123;" horiz-adv-x="1094" 
d="M482 -408q-150 0 -235.5 33.5t-120.5 86.5t-35 111q0 67 32 110.5t74.5 68t72.5 34.5v18q-24 8 -63 42.5t-39 104.5q0 49 27.5 92t91.5 71v18q-37 16 -87 52.5t-87 99.5t-37 158q0 142 105 235.5t308 93.5q53 0 93 -5q40 -6 83 -11.5t107 -5.5h285v-176h-186
q31 -62 31 -145q0 -150 -92.5 -229t-231.5 -110q-90 -20 -133 -36t-43 -46q0 -32 41.5 -43t136.5 -11h41q196 0 299.5 -52.5t103.5 -193.5q0 -98 -48.5 -167.5t-128 -113t-175 -64t-190.5 -20.5zM482 503q38 5 82 21t76 48.5t32 84.5q0 82 -59.5 120.5t-125.5 38.5
q-67 0 -122 -38.5t-55 -108.5t52.5 -112t119.5 -54zM512 -219q92 0 152.5 23.5t91 54.5t30.5 54q0 27 -19 47t-69.5 30.5t-146.5 10.5h-33q-46 -2 -92.5 -17.5t-77.5 -41t-31 -58.5q0 -39 45.5 -71t149.5 -32zM514 1175q-69 4 -104 38t-35 87q0 89 54 168t148 129l110 3
q-37 -59 -46.5 -118t-9.5 -136v-161z" />
    <glyph glyph-name="Hcircumflex" unicode="&#x124;" horiz-adv-x="1500" 
d="M155 0v1426h281v-589h628v589h281v-1426h-281v602h-628v-602h-281zM947 1557l-98 118q-50 59 -100 119q-49 -59 -97.5 -117t-97.5 -116h-193q64 92 128 185q63 93 128 188h265q64 -95 128 -188.5t128 -185.5z" />
    <glyph glyph-name="hcircumflex" unicode="&#x125;" horiz-adv-x="1153" 
d="M139 0v1465l254 24v-641h23q45 64 122.5 119t191.5 55q304 0 304 -354v-668h-254v590q0 98 -33.5 148t-120.5 50q-77 0 -134 -44.5t-99 -108.5v-635h-254zM741 1597l-98 130t-99 130q-50 -65 -98 -128l-98 -128h-193q64 101 128 203.5t128 206.5h265q64 -104 128 -206.5
t128 -204.5z" />
    <glyph glyph-name="Hbar" unicode="&#x126;" horiz-adv-x="1500" 
d="M155 0v1025h-150v182h150v219h281v-219h628v219h281v-219h152v-182h-152v-1025h-281v577h-628v-577h-281zM436 801h628v224h-628v-224z" />
    <glyph glyph-name="hbar" unicode="&#x127;" horiz-adv-x="1153" 
d="M139 0v1161h-165v171h165v133l254 24v-157h321v-171h-321v-313h23q45 64 122.5 119t191.5 55q304 0 304 -354v-668h-254v590q0 98 -33.5 148t-120.5 50q-77 0 -134 -44.5t-99 -108.5v-635h-254z" />
    <glyph glyph-name="Itilde" unicode="&#x128;" horiz-adv-x="606" 
d="M160 0v1426h286v-1426h-286zM472 1547q-61 0 -107 24t-81 56q-36 32 -66.5 56t-61.5 24q-50 0 -71.5 -36t-26.5 -90h-138q0 149 57.5 229.5t154.5 80.5q60 0 104.5 -24.5t79.5 -56.5t65.5 -56t63.5 -24q48 0 68.5 36t24.5 90h138q0 -149 -55.5 -229t-148.5 -80z" />
    <glyph glyph-name="itilde" unicode="&#x129;" horiz-adv-x="543" 
d="M144 0v996l254 8v-1004h-254zM428 1126q-55 0 -96.5 24.5t-73.5 56.5t-58.5 56t-52.5 24q-42 0 -61 -36t-24 -90h-133q0 149 52.5 229t141.5 80q54 0 94.5 -24t71.5 -56t58 -56t55 -24q41 0 57.5 36t20.5 90h134q0 -149 -50.5 -229.5t-135.5 -80.5z" />
    <glyph glyph-name="Imacron" unicode="&#x12a;" horiz-adv-x="606" 
d="M160 0v1426h286v-1426h-286zM-34 1632v189h664v-189h-664z" />
    <glyph glyph-name="imacron" unicode="&#x12b;" horiz-adv-x="543" 
d="M144 0v996l254 8v-1004h-254zM-6 1212v189h554v-189h-554z" />
    <glyph glyph-name="Ibreve" unicode="&#x12c;" horiz-adv-x="606" 
d="M160 0v1426h286v-1426h-286zM295 1543q-354 0 -354 396l178 8q0 -230 176 -230q178 0 178 222h178q0 -396 -356 -396z" />
    <glyph glyph-name="ibreve" unicode="&#x12d;" horiz-adv-x="543" 
d="M144 0v996l254 8v-1004h-254zM269 1123q-323 0 -323 396l176 8q0 -230 147 -230q149 0 149 222h175q0 -396 -324 -396z" />
    <glyph glyph-name="Iogonek" unicode="&#x12e;" horiz-adv-x="606" 
d="M160 0v1426h286v-1426h-286zM325 -429q-131 0 -192 49.5t-61 125.5q0 77 51.5 139.5t137.5 110.5v51l133 13l51 -60q-79 -37 -131 -86.5t-52 -104.5q0 -39 27.5 -58.5t74.5 -19.5q31 0 53.5 4.5t35.5 9.5v-155q-22 -8 -56.5 -13.5t-71.5 -5.5z" />
    <glyph glyph-name="iogonek" unicode="&#x12f;" horiz-adv-x="543" 
d="M144 0v996l254 8v-1004h-254zM268 1175q-73 0 -117 36.5t-44 116.5q0 73 44 111.5t119 38.5t118.5 -40t43.5 -110q0 -80 -43.5 -116.5t-120.5 -36.5zM277 -429q-131 0 -192 49.5t-61 125.5q0 77 51.5 139.5t137.5 110.5v51l133 13l51 -60q-79 -37 -131 -86.5t-52 -104.5
q0 -39 27.5 -58.5t74.5 -19.5q31 0 53.5 4.5t35.5 9.5v-155q-22 -8 -56.5 -13.5t-71.5 -5.5z" />
    <glyph glyph-name="Idotaccent" unicode="&#x130;" horiz-adv-x="606" 
d="M160 0v1426h286v-1426h-286zM296 1585q-73 0 -117 36.5t-44 116.5q0 73 44 111.5t119 38.5t118.5 -40t43.5 -110q0 -80 -43.5 -116.5t-120.5 -36.5z" />
    <glyph glyph-name="dotlessi" unicode="&#x131;" horiz-adv-x="543" 
d="M144 0v996l254 8v-1004h-254z" />
    <glyph glyph-name="Jcircumflex" unicode="&#x134;" horiz-adv-x="850" 
d="M676 1426v-1063q0 -147 -54.5 -231.5t-150 -120.5t-205.5 -36q-67 0 -125 9.5t-100 25.5l21 216q65 -25 98.5 -32t67.5 -7q162 0 162 182v1057h286zM511 1557l-98 118q-50 59 -100 119q-49 -59 -97.5 -117t-97.5 -116h-193q64 92 128 185q63 93 128 188h265
q64 -95 128 -188.5t128 -185.5z" />
    <glyph glyph-name="jcircumflex" unicode="&#x135;" horiz-adv-x="540" 
d="M-8 -392q81 96 116.5 206.5t35.5 255.5v926l254 8v-963q0 -148 -40 -253.5t-115 -171.5zM-72 1141q57 102 113 204t113 206h236q56 -104 112 -206t113 -205l-180 -3q-40 67 -81 135t-82 137q-42 -68 -82 -135t-80 -133h-182z" />
    <glyph glyph-name="uni0136" unicode="&#x136;" horiz-adv-x="1379" 
d="M155 0v1426h280v-575h66l191 228q67 81 134 161q66 80 153 186h326q-98 -113 -192 -222t-188 -219l-190 -222l212 -271q61 -78 131.5 -168t137.5 -175t117 -149h-340q-76 98 -142 184q-67 86 -131 168l-216 277h-69v-629h-280zM539 -575q37 59 46.5 118t9.5 136v161
l117 10q69 -4 104 -38t35 -88q0 -88 -54 -167.5t-148 -128.5z" />
    <glyph glyph-name="uni0137" unicode="&#x137;" horiz-adv-x="1127" 
d="M139 0v1465l254 24v-904h57l114 145q52 66 105 133t105 133h299q-76 -90 -152 -178q-76 -89 -151 -177l-108 -126l128 -155q78 -90 156 -180.5t154 -179.5h-316q-52 64 -104.5 127.5t-104.5 125.5l-132 160h-50v-413h-254zM408 -575q37 59 46.5 118t9.5 136v161l117 10
q69 -4 104 -38t35 -88q0 -88 -54 -167.5t-148 -128.5z" />
    <glyph glyph-name="kgreenlandic" unicode="&#x138;" horiz-adv-x="1127" 
d="M139 0v996l254 8v-419h57l114 145q52 66 105 133t105 133h299q-76 -90 -152 -178q-76 -89 -151 -177l-108 -126l128 -155q78 -90 156 -180.5t154 -179.5h-316q-52 64 -104.5 127.5t-104.5 125.5l-132 160h-50v-413h-254z" />
    <glyph glyph-name="Lacute" unicode="&#x139;" horiz-adv-x="1155" 
d="M155 0v1426h281v-1181h657v-245h-938zM261 1559q65 93 129 187q63 93 127 186l268 5q-85 -97 -168 -191t-163 -184z" />
    <glyph glyph-name="lacute" unicode="&#x13a;" horiz-adv-x="533" 
d="M139 0v1465l254 24v-1489h-254zM87 1599q64 102 128.5 205t127.5 205l268 6q-86 -107 -168.5 -210t-162.5 -203z" />
    <glyph glyph-name="uni013B" unicode="&#x13b;" horiz-adv-x="1155" 
d="M155 0v1426h281v-1181h657v-245h-938zM453 -575q37 59 46.5 118t9.5 136v161l117 10q69 -4 104 -38t35 -88q0 -88 -54 -167.5t-148 -128.5z" />
    <glyph glyph-name="uni013C" unicode="&#x13c;" horiz-adv-x="533" 
d="M139 0v1465l254 24v-1489h-254zM102 -575q37 59 46.5 118t9.5 136v161l117 10q69 -4 104 -38t35 -88q0 -88 -54 -167.5t-148 -128.5z" />
    <glyph glyph-name="Lcaron" unicode="&#x13d;" horiz-adv-x="1155" 
d="M155 0v1426h281v-1181h657v-245h-938zM654 1090q28 72 40.5 151t12.5 141v178l111 10q43 -3 71 -33.5t28 -83.5q0 -68 -22.5 -135.5t-57 -125.5t-69.5 -99z" />
    <glyph glyph-name="lcaron" unicode="&#x13e;" horiz-adv-x="573" 
d="M139 0v1465l254 24v-1489h-254zM530 1090q28 72 40.5 151t12.5 141v178l111 10q43 -3 71 -33.5t28 -83.5q0 -68 -22.5 -135.5t-57 -125.5t-69.5 -99z" />
    <glyph glyph-name="Ldot" unicode="&#x13f;" horiz-adv-x="1155" 
d="M155 0v1426h281v-1181h657v-245h-938zM876 576q-73 0 -117 36.5t-44 116.5q0 73 44 111.5t119 38.5t118.5 -40t43.5 -110q0 -80 -43.5 -116.5t-120.5 -36.5z" />
    <glyph glyph-name="ldot" unicode="&#x140;" horiz-adv-x="888" 
d="M139 0v1465l254 24v-1489h-254zM708 577q-73 0 -117 36.5t-44 116.5q0 73 44 111.5t119 38.5t118.5 -40t43.5 -110q0 -80 -43.5 -116.5t-120.5 -36.5z" />
    <glyph glyph-name="Lslash" unicode="&#x141;" horiz-adv-x="1186" 
d="M186 0v565q-39 -11 -78 -23q-40 -12 -81 -24l-55 185q56 16 110 32q53 16 104 31v660h280v-577q80 23 169 50q88 26 183 54l53 -185q-99 -29 -193 -56q-94 -28 -178 -54l-34 -10v-403h658v-245h-938z" />
    <glyph glyph-name="lslash" unicode="&#x142;" horiz-adv-x="674" 
d="M210 0v577q-44 -13 -90 -26q-46 -14 -96 -29l-48 163q63 18 121 35t113 34v711l254 24v-660q43 13 89 26.5t94 27.5l49 -162q-62 -18 -120 -35q-58 -18 -112 -34v-652h-254z" />
    <glyph glyph-name="Nacute" unicode="&#x143;" horiz-adv-x="1503" 
d="M155 0v1426h246q109 -157 208 -299t197 -283l257 -369h21v951h264v-1426h-243q-91 130 -189 272q-99 141 -217 310l-260 373h-21v-955h-263zM574 1559q65 93 129 187q63 93 127 186l268 5q-85 -97 -168 -191t-163 -184z" />
    <glyph glyph-name="nacute" unicode="&#x144;" horiz-adv-x="1153" 
d="M139 0v996l216 13l10 -177h23q50 72 134 131t208 59q304 0 304 -354v-668h-254v590q0 98 -33.5 148t-120.5 50q-77 0 -134 -44.5t-99 -108.5v-635h-254zM408 1139q64 102 128.5 205t127.5 205l268 6q-86 -107 -168.5 -210t-162.5 -203z" />
    <glyph glyph-name="uni0145" unicode="&#x145;" horiz-adv-x="1503" 
d="M155 0v1426h246q109 -157 208 -299t197 -283l257 -369h21v951h264v-1426h-243q-91 130 -189 272q-99 141 -217 310l-260 373h-21v-955h-263zM589 -575q37 59 46.5 118t9.5 136v161l117 10q69 -4 104 -38t35 -88q0 -88 -54 -167.5t-148 -128.5z" />
    <glyph glyph-name="uni0146" unicode="&#x146;" horiz-adv-x="1153" 
d="M139 0v996l216 13l10 -177h23q50 72 134 131t208 59q304 0 304 -354v-668h-254v590q0 98 -33.5 148t-120.5 50q-77 0 -134 -44.5t-99 -108.5v-635h-254zM423 -575q37 59 46.5 118t9.5 136v161l117 10q69 -4 104 -38t35 -88q0 -88 -54 -167.5t-148 -128.5z" />
    <glyph glyph-name="Ncaron" unicode="&#x147;" horiz-adv-x="1503" 
d="M155 0v1426h246q109 -157 208 -299t197 -283l257 -369h21v951h264v-1426h-243q-91 130 -189 272q-99 141 -217 310l-260 373h-21v-955h-263zM620 1558l-128 188t-128 186l191 3q49 -60 99 -118q49 -59 99 -120q49 60 97.5 118t97.5 116h193q-64 -92 -127 -185
q-64 -94 -129 -188h-265z" />
    <glyph glyph-name="ncaron" unicode="&#x148;" horiz-adv-x="1153" 
d="M139 0v996l216 13l10 -177h23q50 72 134 131t208 59q304 0 304 -354v-668h-254v590q0 98 -33.5 148t-120.5 50q-77 0 -134 -44.5t-99 -108.5v-635h-254zM454 1131l-128 206t-128 205l191 3l98 -130t99 -131q50 66 98.5 129.5t97.5 127.5h193q-64 -101 -128 -204
l-128 -206h-265z" />
    <glyph glyph-name="Eng" unicode="&#x14a;" horiz-adv-x="1503" 
d="M902 -384q78 98 120 201.5t45 236.5q-83 119 -172 248q-90 128 -196 280l-260 373h-21v-955h-263v1426h246q110 -158 208.5 -299.5t196.5 -282.5l257 -369h21v951h264v-1362q0 -167 -52.5 -272.5t-125.5 -175.5h-268z" />
    <glyph glyph-name="eng" unicode="&#x14b;" horiz-adv-x="1153" 
d="M627 -392q82 96 117.5 206.5t35.5 255.5v520q0 98 -33.5 148t-120.5 50q-77 0 -134 -44.5t-99 -108.5v-635h-254v996l216 13l10 -177h23q50 72 134 131t208 59q304 0 304 -354v-627q0 -148 -40 -253.5t-115 -171.5z" />
    <glyph glyph-name="Omacron" unicode="&#x14c;" horiz-adv-x="1630" 
d="M822 -25q-190 0 -329 59t-230 162t-135 236t-44 281q0 207 82.5 375t245.5 267t402 99q243 0 405.5 -99.5t244.5 -267.5t82 -373q0 -212 -84 -379t-246 -263.5t-394 -96.5zM817 208q149 0 246 70.5t144.5 186t47.5 249.5q0 142 -51 257t-148.5 182.5t-238.5 67.5
q-146 0 -244.5 -70t-148 -185.5t-49.5 -251.5t48.5 -251t146.5 -185t247 -70zM483 1632v189h664v-189h-664z" />
    <glyph glyph-name="omacron" unicode="&#x14d;" horiz-adv-x="1195" 
d="M602 -25q-176 0 -292 74t-173 194t-57 259q0 149 60 266.5t175.5 185.5t281.5 68q170 0 285.5 -69t174 -186.5t58.5 -264.5q0 -150 -60.5 -269t-175.5 -188.5t-277 -69.5zM601 185q86 0 142.5 45t84.5 117.5t28 154.5q0 143 -70 226.5t-186 83.5q-127 0 -194 -89.5
t-67 -220.5q0 -82 29 -154.5t87.5 -117.5t145.5 -45zM265 1212v189h664v-189h-664z" />
    <glyph glyph-name="Obreve" unicode="&#x14e;" horiz-adv-x="1630" 
d="M822 -25q-190 0 -329 59t-230 162t-135 236t-44 281q0 207 82.5 375t245.5 267t402 99q243 0 405.5 -99.5t244.5 -267.5t82 -373q0 -212 -84 -379t-246 -263.5t-394 -96.5zM817 208q149 0 246 70.5t144.5 186t47.5 249.5q0 142 -51 257t-148.5 182.5t-238.5 67.5
q-146 0 -244.5 -70t-148 -185.5t-49.5 -251.5t48.5 -251t146.5 -185t247 -70zM812 1543q-354 0 -354 396l178 8q0 -230 176 -230q178 0 178 222h178q0 -396 -356 -396z" />
    <glyph glyph-name="obreve" unicode="&#x14f;" horiz-adv-x="1195" 
d="M602 -25q-176 0 -292 74t-173 194t-57 259q0 149 60 266.5t175.5 185.5t281.5 68q170 0 285.5 -69t174 -186.5t58.5 -264.5q0 -150 -60.5 -269t-175.5 -188.5t-277 -69.5zM601 185q86 0 142.5 45t84.5 117.5t28 154.5q0 143 -70 226.5t-186 83.5q-127 0 -194 -89.5
t-67 -220.5q0 -82 29 -154.5t87.5 -117.5t145.5 -45zM594 1123q-354 0 -354 396l178 8q0 -230 176 -230q178 0 178 222h178q0 -396 -356 -396z" />
    <glyph glyph-name="Ohungarumlaut" unicode="&#x150;" horiz-adv-x="1630" 
d="M822 -25q-190 0 -329 59t-230 162t-135 236t-44 281q0 207 82.5 375t245.5 267t402 99q243 0 405.5 -99.5t244.5 -267.5t82 -373q0 -212 -84 -379t-246 -263.5t-394 -96.5zM817 208q149 0 246 70.5t144.5 186t47.5 249.5q0 142 -51 257t-148.5 182.5t-238.5 67.5
q-146 0 -244.5 -70t-148 -185.5t-49.5 -251.5t48.5 -251t146.5 -185t247 -70zM879 1559q62 93 125 187l124 186l255 5q-83 -97 -163 -191t-158 -184zM484 1559l102 186q50 93 102 187l242 5q-139 -192 -273 -375z" />
    <glyph glyph-name="ohungarumlaut" unicode="&#x151;" horiz-adv-x="1195" 
d="M602 -25q-176 0 -292 74t-173 194t-57 259q0 149 60 266.5t175.5 185.5t281.5 68q170 0 285.5 -69t174 -186.5t58.5 -264.5q0 -150 -60.5 -269t-175.5 -188.5t-277 -69.5zM601 185q86 0 142.5 45t84.5 117.5t28 154.5q0 143 -70 226.5t-186 83.5q-127 0 -194 -89.5
t-67 -220.5q0 -82 29 -154.5t87.5 -117.5t145.5 -45zM661 1139q62 102 125 205t124 205l255 6q-82 -107 -162.5 -210.5t-158.5 -202.5zM266 1139q52 103 103 205q50 102 101 205l242 6q-70 -107 -138 -210.5t-135 -202.5z" />
    <glyph glyph-name="OE" unicode="&#x152;" horiz-adv-x="2151" 
d="M829 -25q-233 0 -400 94t-256 260t-89 384q0 215 86 382.5t247.5 263t385.5 95.5q83 0 162.5 -13t148.5 -34v19h927v-233h-653v-362h618v-221h-618v-377h659v-233h-933v10q-67 -18 -140 -26.5t-145 -8.5zM375 714q0 -138 54.5 -253t163 -184.5t269.5 -69.5q63 0 126.5 11
t125.5 37v897q-76 33 -146.5 47.5t-135.5 14.5q-131 0 -234.5 -59t-163 -171t-59.5 -270z" />
    <glyph glyph-name="oe" unicode="&#x153;" horiz-adv-x="1829" 
d="M587 -25q-175 0 -290 74t-171.5 194t-56.5 259q0 149 59.5 266.5t174 185t279.5 67.5q131 0 228 -44t160 -121q60 78 153 121.5t217 43.5q199 0 311.5 -109t112.5 -327q0 -76 -8 -131h-636q11 -126 88.5 -196.5t227.5 -70.5q63 0 147 17.5t155 54.5l8 -218
q-57 -28 -144 -47t-195 -19q-154 0 -261.5 46.5t-173.5 127.5q-63 -81 -160.5 -127.5t-224.5 -46.5zM1342 834q-84 0 -142 -59.5t-75 -159.5l413 8q-6 99 -60 155t-136 56zM591 185q86 0 143 45t85 117.5t28 154.5q0 144 -70 227t-186 83q-128 0 -195 -90t-67 -220
q0 -82 29.5 -154.5t87.5 -117.5t145 -45z" />
    <glyph glyph-name="Racute" unicode="&#x154;" horiz-adv-x="1369" 
d="M155 0v1426h525q256 0 389.5 -89t133.5 -314q0 -149 -72.5 -263t-241.5 -155l138 -192q48 -66 102 -141q53 -75 104 -146t91 -126h-320q-60 86 -114 166q-54 79 -106 154l-146 213h-209v-533h-274zM671 1202h-242v-452h200q142 0 213.5 53t71.5 187q0 93 -37 138.5
t-93 59.5t-113 14zM467 1559q65 93 129 187q63 93 127 186l268 5q-85 -97 -168 -191t-163 -184z" />
    <glyph glyph-name="racute" unicode="&#x155;" horiz-adv-x="816" 
d="M139 0v996l216 13l10 -190h22q40 85 89 128.5t100.5 59t96.5 15.5q24 0 52 -4t54 -14l-23 -249q-36 5 -65.5 7.5t-65.5 2.5q-37 0 -80 -13.5t-83 -56t-69 -126.5v-569h-254zM290 1139q64 102 128.5 205t127.5 205l268 6q-86 -107 -168.5 -210t-162.5 -203z" />
    <glyph glyph-name="uni0156" unicode="&#x156;" horiz-adv-x="1369" 
d="M155 0v1426h525q256 0 389.5 -89t133.5 -314q0 -149 -72.5 -263t-241.5 -155l138 -192q48 -66 102 -141q53 -75 104 -146t91 -126h-320q-60 86 -114 166q-54 79 -106 154l-146 213h-209v-533h-274zM671 1202h-242v-452h200q142 0 213.5 53t71.5 187q0 93 -37 138.5
t-93 59.5t-113 14zM522 -575q37 59 46.5 118t9.5 136v161l117 10q69 -4 104 -38t35 -88q0 -88 -54 -167.5t-148 -128.5z" />
    <glyph glyph-name="uni0157" unicode="&#x157;" horiz-adv-x="816" 
d="M139 0v996l216 13l10 -190h22q40 85 89 128.5t100.5 59t96.5 15.5q24 0 52 -4t54 -14l-23 -249q-36 5 -65.5 7.5t-65.5 2.5q-37 0 -80 -13.5t-83 -56t-69 -126.5v-569h-254zM102 -575q37 59 46.5 118t9.5 136v161l117 10q69 -4 104 -38t35 -88q0 -88 -54 -167.5
t-148 -128.5z" />
    <glyph glyph-name="Rcaron" unicode="&#x158;" horiz-adv-x="1369" 
d="M155 0v1426h525q256 0 389.5 -89t133.5 -314q0 -149 -72.5 -263t-241.5 -155l138 -192q48 -66 102 -141q53 -75 104 -146t91 -126h-320q-60 86 -114 166q-54 79 -106 154l-146 213h-209v-533h-274zM671 1202h-242v-452h200q142 0 213.5 53t71.5 187q0 93 -37 138.5
t-93 59.5t-113 14zM513 1558l-128 188t-128 186l191 3q49 -60 99 -118q49 -59 99 -120q49 60 97.5 118t97.5 116h193q-64 -92 -127 -185q-64 -94 -129 -188h-265z" />
    <glyph glyph-name="rcaron" unicode="&#x159;" horiz-adv-x="816" 
d="M139 0v996l216 13l10 -190h22q40 85 89 128.5t100.5 59t96.5 15.5q24 0 52 -4t54 -14l-23 -249q-36 5 -65.5 7.5t-65.5 2.5q-37 0 -80 -13.5t-83 -56t-69 -126.5v-569h-254zM336 1131l-128 206t-128 205l191 3l98 -130t99 -131q50 66 98.5 129.5t97.5 127.5h193
q-64 -101 -128 -204l-128 -206h-265z" />
    <glyph glyph-name="Sacute" unicode="&#x15a;" horiz-adv-x="1191" 
d="M595 -25q-89 0 -181.5 15.5t-172 39t-128.5 47.5l21 254q103 -58 217.5 -91.5t223.5 -33.5q113 0 184.5 43t71.5 137t-86 142.5t-237 93.5q-132 40 -225.5 90t-143 128.5t-49.5 201.5q0 181 122.5 296.5t368.5 115.5q131 0 258 -32t202 -71l-23 -254q-93 61 -198.5 92.5
t-189.5 31.5q-101 0 -173 -41.5t-72 -127.5q0 -82 69 -127t219 -91q171 -52 269.5 -108t140.5 -132.5t42 -192.5q0 -189 -126.5 -307.5t-403.5 -118.5zM422 1559q65 93 129 187q63 93 127 186l268 5q-85 -97 -168 -191t-163 -184z" />
    <glyph glyph-name="sacute" unicode="&#x15b;" horiz-adv-x="924" 
d="M448 -25q-103 0 -196 20t-156 50l17 224q67 -40 153.5 -63.5t171.5 -23.5q65 0 112 19t47 87q0 46 -49.5 70t-176.5 57q-128 34 -200.5 96t-72.5 196q0 149 96 231.5t259 82.5q104 0 195.5 -22.5t146.5 -48.5l-18 -225q-69 44 -153 66t-134 22q-55 0 -93.5 -22.5
t-38.5 -75.5q0 -44 34.5 -71t149.5 -59q104 -29 173.5 -61t104.5 -84.5t35 -142.5q0 -144 -95 -233t-312 -89zM286 1139q64 102 128.5 205t127.5 205l268 6q-86 -107 -168.5 -210t-162.5 -203z" />
    <glyph glyph-name="Scircumflex" unicode="&#x15c;" horiz-adv-x="1191" 
d="M595 -25q-89 0 -181.5 15.5t-172 39t-128.5 47.5l21 254q103 -58 217.5 -91.5t223.5 -33.5q113 0 184.5 43t71.5 137t-86 142.5t-237 93.5q-132 40 -225.5 90t-143 128.5t-49.5 201.5q0 181 122.5 296.5t368.5 115.5q131 0 258 -32t202 -71l-23 -254q-93 61 -198.5 92.5
t-189.5 31.5q-101 0 -173 -41.5t-72 -127.5q0 -82 69 -127t219 -91q171 -52 269.5 -108t140.5 -132.5t42 -192.5q0 -189 -126.5 -307.5t-403.5 -118.5zM797 1557l-98 118q-50 59 -100 119q-49 -59 -97.5 -117t-97.5 -116h-193q64 92 128 185q63 93 128 188h265
q64 -95 128 -188.5t128 -185.5z" />
    <glyph glyph-name="scircumflex" unicode="&#x15d;" horiz-adv-x="924" 
d="M448 -25q-103 0 -196 20t-156 50l17 224q67 -40 153.5 -63.5t171.5 -23.5q65 0 112 19t47 87q0 46 -49.5 70t-176.5 57q-128 34 -200.5 96t-72.5 196q0 149 96 231.5t259 82.5q104 0 195.5 -22.5t146.5 -48.5l-18 -225q-69 44 -153 66t-134 22q-55 0 -93.5 -22.5
t-38.5 -75.5q0 -44 34.5 -71t149.5 -59q104 -29 173.5 -61t104.5 -84.5t35 -142.5q0 -144 -95 -233t-312 -89zM661 1137l-98 130t-99 130q-50 -65 -98 -128l-98 -128h-193q64 101 128 203.5t128 206.5h265q64 -104 128 -206.5t128 -204.5z" />
    <glyph glyph-name="Scedilla" unicode="&#x15e;" horiz-adv-x="1191" 
d="M595 -25q-89 0 -181.5 15.5t-172 39t-128.5 47.5l21 254q103 -58 217.5 -91.5t223.5 -33.5q113 0 184.5 43t71.5 137t-86 142.5t-237 93.5q-132 40 -225.5 90t-143 128.5t-49.5 201.5q0 181 122.5 296.5t368.5 115.5q131 0 258 -32t202 -71l-23 -254q-93 61 -198.5 92.5
t-189.5 31.5q-101 0 -173 -41.5t-72 -127.5q0 -82 69 -127t219 -91q171 -52 269.5 -108t140.5 -132.5t42 -192.5q0 -189 -126.5 -307.5t-403.5 -118.5zM548 -438q-81 0 -132 17v146q12 -5 38 -9t57 -4q60 0 86 19t26 52q0 28 -29.5 52t-117.5 38l74 175h136v-48l-45 -104
q103 -18 142.5 -61.5t39.5 -100.5q0 -72 -61.5 -122t-213.5 -50z" />
    <glyph glyph-name="scedilla" unicode="&#x15f;" horiz-adv-x="924" 
d="M448 -25q-103 0 -196 20t-156 50l17 224q67 -40 153.5 -63.5t171.5 -23.5q65 0 112 19t47 87q0 46 -49.5 70t-176.5 57q-128 34 -200.5 96t-72.5 196q0 149 96 231.5t259 82.5q104 0 195.5 -22.5t146.5 -48.5l-18 -225q-69 44 -153 66t-134 22q-55 0 -93.5 -22.5
t-38.5 -75.5q0 -44 34.5 -71t149.5 -59q104 -29 173.5 -61t104.5 -84.5t35 -142.5q0 -144 -95 -233t-312 -89zM412 -438q-81 0 -132 17v146q12 -5 38 -9t57 -4q60 0 86 19t26 52q0 28 -29.5 52t-117.5 38l74 175h136v-48l-45 -104q103 -18 142.5 -61.5t39.5 -100.5
q0 -72 -61.5 -122t-213.5 -50z" />
    <glyph glyph-name="Scaron" unicode="&#x160;" horiz-adv-x="1191" 
d="M595 -25q-89 0 -181.5 15.5t-172 39t-128.5 47.5l21 254q103 -58 217.5 -91.5t223.5 -33.5q113 0 184.5 43t71.5 137t-86 142.5t-237 93.5q-132 40 -225.5 90t-143 128.5t-49.5 201.5q0 181 122.5 296.5t368.5 115.5q131 0 258 -32t202 -71l-23 -254q-93 61 -198.5 92.5
t-189.5 31.5q-101 0 -173 -41.5t-72 -127.5q0 -82 69 -127t219 -91q171 -52 269.5 -108t140.5 -132.5t42 -192.5q0 -189 -126.5 -307.5t-403.5 -118.5zM468 1558l-128 188t-128 186l191 3q49 -60 99 -118q49 -59 99 -120q49 60 97.5 118t97.5 116h193q-64 -92 -127 -185
q-64 -94 -129 -188h-265z" />
    <glyph glyph-name="scaron" unicode="&#x161;" horiz-adv-x="924" 
d="M448 -25q-103 0 -196 20t-156 50l17 224q67 -40 153.5 -63.5t171.5 -23.5q65 0 112 19t47 87q0 46 -49.5 70t-176.5 57q-128 34 -200.5 96t-72.5 196q0 149 96 231.5t259 82.5q104 0 195.5 -22.5t146.5 -48.5l-18 -225q-69 44 -153 66t-134 22q-55 0 -93.5 -22.5
t-38.5 -75.5q0 -44 34.5 -71t149.5 -59q104 -29 173.5 -61t104.5 -84.5t35 -142.5q0 -144 -95 -233t-312 -89zM332 1131l-128 206t-128 205l191 3l98 -130t99 -131q50 66 98.5 129.5t97.5 127.5h193q-64 -101 -128 -204l-128 -206h-265z" />
    <glyph glyph-name="uni0162" unicode="&#x162;" horiz-adv-x="1288" 
d="M505 0v1181h-450v245h1178v-245h-449v-1181h-279zM592 -438q-81 0 -132 17v146q12 -5 38 -9t57 -4q60 0 86 19t26 52q0 28 -29.5 52t-117.5 38l74 175h136v-48l-45 -104q103 -18 142.5 -61.5t39.5 -100.5q0 -72 -61.5 -122t-213.5 -50z" />
    <glyph glyph-name="uni0163" unicode="&#x163;" horiz-adv-x="836" 
d="M549 -25q-160 0 -248.5 77t-88.5 253v498h-171v193h171v323l251 47v-370h315v-193h-315v-422q0 -97 37.5 -146.5t119.5 -49.5q33 0 73 12t75 37l17 -209q-37 -23 -102.5 -36.5t-133.5 -13.5zM416 -438q-81 0 -132 17v146q12 -5 38 -9t57 -4q60 0 86 19t26 52
q0 28 -29.5 52t-117.5 38l74 175h136v-48l-45 -104q103 -18 142.5 -61.5t39.5 -100.5q0 -72 -61.5 -122t-213.5 -50z" />
    <glyph glyph-name="Tcaron" unicode="&#x164;" horiz-adv-x="1288" 
d="M505 0v1181h-450v245h1178v-245h-449v-1181h-279zM512 1558l-128 188t-128 186l191 3q49 -60 99 -118q49 -59 99 -120q49 60 97.5 118t97.5 116h193q-64 -92 -127 -185q-64 -94 -129 -188h-265z" />
    <glyph glyph-name="tcaron" unicode="&#x165;" horiz-adv-x="843" 
d="M549 -25q-160 0 -248.5 77t-88.5 253v498h-171v193h171v323l251 47v-370h315v-193h-315v-422q0 -97 37.5 -146.5t119.5 -49.5q33 0 73 12t75 37l17 -209q-37 -23 -102.5 -36.5t-133.5 -13.5zM582 1090q28 72 40.5 151t12.5 141v178l111 10q43 -3 71 -33.5t28 -83.5
q0 -68 -22.5 -135.5t-57 -125.5t-69.5 -99z" />
    <glyph glyph-name="Tbar" unicode="&#x166;" horiz-adv-x="1288" 
d="M505 0v548h-270v192h270v441h-450v245h1178v-245h-449v-441h271v-192h-271v-548h-279z" />
    <glyph glyph-name="tbar" unicode="&#x167;" horiz-adv-x="836" 
d="M67 455v160h145v188h-171v193h171v323l251 47v-370h315v-193h-315v-188h285v-160h-285v-94q0 -97 37.5 -146.5t119.5 -49.5q33 0 73 12t75 37l17 -189q-37 -23 -102.5 -36.5t-133.5 -13.5q-160 0 -248.5 77t-88.5 253v150h-145z" />
    <glyph glyph-name="Utilde" unicode="&#x168;" horiz-adv-x="1458" 
d="M731 -25q-212 0 -342 69.5t-189.5 197t-59.5 300.5v884h280v-866q0 -167 72 -259.5t238 -92.5q169 0 238 92t69 261v865h280v-885q0 -172 -62 -299.5t-191 -197t-333 -69.5zM905 1547q-61 0 -107 24t-81 56q-36 32 -66.5 56t-61.5 24q-50 0 -71.5 -36t-26.5 -90h-138
q0 149 57.5 229.5t154.5 80.5q60 0 104.5 -24.5t79.5 -56.5t65.5 -56t63.5 -24q48 0 68.5 36t24.5 90h138q0 -149 -55.5 -229t-148.5 -80z" />
    <glyph glyph-name="utilde" unicode="&#x169;" horiz-adv-x="1133" 
d="M423 -25q-304 0 -304 354v667l254 8v-602q0 -98 33.5 -148t120.5 -50q73 0 129.5 44.5t98.5 108.5v639h254v-996h-216l-10 165h-23q-49 -72 -133 -131t-204 -59zM739 1126q-61 0 -107 24.5t-81 56.5q-36 32 -66.5 56t-61.5 24q-50 0 -71.5 -36t-26.5 -90h-138
q0 149 57.5 229t154.5 80q60 0 104.5 -24t79.5 -56t65.5 -56t63.5 -24q48 0 68.5 36t24.5 90h138q0 -149 -55.5 -229.5t-148.5 -80.5z" />
    <glyph glyph-name="Umacron" unicode="&#x16a;" horiz-adv-x="1458" 
d="M731 -25q-212 0 -342 69.5t-189.5 197t-59.5 300.5v884h280v-866q0 -167 72 -259.5t238 -92.5q169 0 238 92t69 261v865h280v-885q0 -172 -62 -299.5t-191 -197t-333 -69.5zM399 1632v189h664v-189h-664z" />
    <glyph glyph-name="umacron" unicode="&#x16b;" horiz-adv-x="1133" 
d="M423 -25q-304 0 -304 354v667l254 8v-602q0 -98 33.5 -148t120.5 -50q73 0 129.5 44.5t98.5 108.5v639h254v-996h-216l-10 165h-23q-49 -72 -133 -131t-204 -59zM233 1212v189h664v-189h-664z" />
    <glyph glyph-name="Ubreve" unicode="&#x16c;" horiz-adv-x="1458" 
d="M731 -25q-212 0 -342 69.5t-189.5 197t-59.5 300.5v884h280v-866q0 -167 72 -259.5t238 -92.5q169 0 238 92t69 261v865h280v-885q0 -172 -62 -299.5t-191 -197t-333 -69.5zM728 1543q-354 0 -354 396l178 8q0 -230 176 -230q178 0 178 222h178q0 -396 -356 -396z" />
    <glyph glyph-name="ubreve" unicode="&#x16d;" horiz-adv-x="1133" 
d="M423 -25q-304 0 -304 354v667l254 8v-602q0 -98 33.5 -148t120.5 -50q73 0 129.5 44.5t98.5 108.5v639h254v-996h-216l-10 165h-23q-49 -72 -133 -131t-204 -59zM562 1123q-354 0 -354 396l178 8q0 -230 176 -230q178 0 178 222h178q0 -396 -356 -396z" />
    <glyph glyph-name="Uring" unicode="&#x16e;" horiz-adv-x="1458" 
d="M731 -25q-212 0 -342 69.5t-189.5 197t-59.5 300.5v884h280v-866q0 -167 72 -259.5t238 -92.5q169 0 238 92t69 261v865h280v-885q0 -172 -62 -299.5t-191 -197t-333 -69.5zM729 1540q-114 0 -184 58t-70 171q0 102 70.5 164t185.5 62q114 0 184 -63.5t70 -162.5
q0 -113 -70.5 -171t-185.5 -58zM729 1653q55 0 88.5 29.5t33.5 85.5q0 49 -33.5 81.5t-86.5 32.5q-55 0 -88.5 -32t-33.5 -82q0 -56 33.5 -85.5t86.5 -29.5z" />
    <glyph glyph-name="uring" unicode="&#x16f;" horiz-adv-x="1133" 
d="M423 -25q-304 0 -304 354v667l254 8v-602q0 -98 33.5 -148t120.5 -50q73 0 129.5 44.5t98.5 108.5v639h254v-996h-216l-10 165h-23q-49 -72 -133 -131t-204 -59zM563 1110q-114 0 -184 58t-70 171q0 102 70.5 164t185.5 62q114 0 184 -63.5t70 -162.5q0 -113 -70.5 -171
t-185.5 -58zM563 1223q55 0 88.5 29.5t33.5 85.5q0 49 -33.5 81.5t-86.5 32.5q-55 0 -88.5 -32t-33.5 -82q0 -56 33.5 -85.5t86.5 -29.5z" />
    <glyph glyph-name="Uhungarumlaut" unicode="&#x170;" horiz-adv-x="1458" 
d="M731 -25q-212 0 -342 69.5t-189.5 197t-59.5 300.5v884h280v-866q0 -167 72 -259.5t238 -92.5q169 0 238 92t69 261v865h280v-885q0 -172 -62 -299.5t-191 -197t-333 -69.5zM795 1559q62 93 125 187l124 186l255 5q-83 -97 -163 -191t-158 -184zM400 1559l102 186
q50 93 102 187l242 5q-139 -192 -273 -375z" />
    <glyph glyph-name="uhungarumlaut" unicode="&#x171;" horiz-adv-x="1133" 
d="M423 -25q-304 0 -304 354v667l254 8v-602q0 -98 33.5 -148t120.5 -50q73 0 129.5 44.5t98.5 108.5v639h254v-996h-216l-10 165h-23q-49 -72 -133 -131t-204 -59zM629 1139q62 102 125 205t124 205l255 6q-82 -107 -162.5 -210.5t-158.5 -202.5zM234 1139q52 103 103 205
q50 102 101 205l242 6q-70 -107 -138 -210.5t-135 -202.5z" />
    <glyph glyph-name="Uogonek" unicode="&#x172;" horiz-adv-x="1458" 
d="M731 -25q-212 0 -342 69.5t-189.5 197t-59.5 300.5v884h280v-866q0 -167 72 -259.5t238 -92.5q169 0 238 92t69 261v865h280v-885q0 -172 -62 -299.5t-191 -197t-333 -69.5zM818 -429q-131 0 -192 49.5t-61 125.5q0 77 51.5 139.5t137.5 110.5v51l133 13l51 -60
q-79 -37 -131 -86.5t-52 -104.5q0 -39 27.5 -58.5t74.5 -19.5q31 0 53.5 4.5t35.5 9.5v-155q-22 -8 -56.5 -13.5t-71.5 -5.5z" />
    <glyph glyph-name="uogonek" unicode="&#x173;" horiz-adv-x="1133" 
d="M423 -25q-304 0 -304 354v667l254 8v-602q0 -98 33.5 -148t120.5 -50q73 0 129.5 44.5t98.5 108.5v639h254v-996h-216l-10 165h-23q-49 -72 -133 -131t-204 -59zM888 -429q-131 0 -192 49.5t-61 125.5q0 77 51.5 139.5t137.5 110.5v51l133 13l51 -60q-79 -37 -131 -86.5
t-52 -104.5q0 -39 27.5 -58.5t74.5 -19.5q31 0 53.5 4.5t35.5 9.5v-155q-22 -8 -56.5 -13.5t-71.5 -5.5z" />
    <glyph glyph-name="Wcircumflex" unicode="&#x174;" horiz-adv-x="2076" 
d="M435 0q-29 106 -61 227q-33 120 -62 223l-121 448q-33 119 -71.5 260.5t-72.5 267.5h314q32 -138 67 -291t67 -291l117 -512h22l118 519q31 133 66 286.5t65 288.5h304q33 -138 68 -288t68 -289l121 -517h22l119 520q30 134 65 287q35 152 65 287h315q-35 -127 -74 -267
t-71 -258l-125 -451q-30 -106 -63 -226q-33 -121 -62 -224h-344q-32 129 -67 271q-36 142 -67 269l-122 487h-22l-118 -487q-30 -127 -65 -270.5t-65 -269.5h-330zM1227 1557l-98 118q-50 59 -100 119q-49 -59 -97.5 -117t-97.5 -116h-193q64 92 128 185q63 93 128 188h265
q64 -95 128 -188.5t128 -185.5z" />
    <glyph glyph-name="wcircumflex" unicode="&#x175;" horiz-adv-x="1641" 
d="M350 0q-29 94 -59 189q-30 94 -60 190l-56 177q-35 111 -69 220q-35 108 -70 220l270 8q29 -109 61 -230q31 -121 60 -232l73 -277h20l70 282q28 113 56 224t57 225h238q28 -108 57 -222t57 -225l72 -284h20l73 289q27 108 57 226q30 117 55 216h273q-35 -111 -70 -220
l-70 -220l-55 -175q-31 -97 -61 -193q-31 -96 -61 -188h-288q-27 99 -56 204.5t-56 201.5l-68 247h-20l-66 -251q-26 -95 -53.5 -199.5t-54.5 -202.5h-276zM1014 1137l-98 130t-99 130q-50 -65 -98 -128l-98 -128h-193q64 101 128 203.5t128 206.5h265q64 -104 128 -206.5
t128 -204.5z" />
    <glyph glyph-name="Ycircumflex" unicode="&#x176;" horiz-adv-x="1343" 
d="M534 0v532l-293 538q-48 88 -93 170q-45 81 -102 186h318q43 -88 73.5 -150.5t57.5 -118.5t60 -123l107 -220h25l105 213q35 71 64 129t60 121t74 149h309q-49 -90 -97 -180q-49 -90 -96 -175l-291 -537v-534h-281zM870 1557l-98 118q-50 59 -100 119q-49 -59 -97.5 -117
t-97.5 -116h-193q64 92 128 185q63 93 128 188h265q64 -95 128 -188.5t128 -185.5z" />
    <glyph glyph-name="ycircumflex" unicode="&#x177;" horiz-adv-x="1077" 
d="M240 -392l77 192.5t78 192.5q-35 96 -70 193.5t-68 191.5l-64 180q-39 107 -79 219t-78 219l274 8q33 -115 64.5 -225t64.5 -226l81 -286h23l89 286q35 112 69 222q34 109 69 221h271q-31 -80 -60 -155t-64 -165t-84 -215l-109 -280q-74 -190 -126 -324
q-52 -133 -94 -241zM734 1137l-98 130t-99 130q-50 -65 -98 -128l-98 -128h-193q64 101 128 203.5t128 206.5h265q64 -104 128 -206.5t128 -204.5z" />
    <glyph glyph-name="Ydieresis" unicode="&#x178;" horiz-adv-x="1343" 
d="M534 0v532l-293 538q-48 88 -93 170q-45 81 -102 186h318q43 -88 73.5 -150.5t57.5 -118.5t60 -123l107 -220h25l105 213q35 71 64 129t60 121t74 149h309q-49 -90 -97 -180q-49 -90 -96 -175l-291 -537v-534h-281zM895 1585q-65 0 -102.5 36.5t-37.5 109.5
q0 66 38 104.5t104 38.5t103.5 -40t37.5 -103q0 -73 -38 -109.5t-105 -36.5zM451 1585q-65 0 -103 36.5t-38 109.5q0 66 38 104.5t105 38.5q65 0 103 -40t38 -103q0 -73 -38 -109.5t-105 -36.5z" />
    <glyph glyph-name="Zacute" unicode="&#x179;" horiz-adv-x="1363" 
d="M85 0v150q52 67 117 151.5t131 170.5t122 159l433 561h-784v234h1160v-191q-86 -110 -168 -215t-164 -211l-448 -575h790v-234h-1189zM503 1559q65 93 129 187q63 93 127 186l268 5q-85 -97 -168 -191t-163 -184z" />
    <glyph glyph-name="zacute" unicode="&#x17a;" horiz-adv-x="1019" 
d="M68 0v122q77 101 152 199q74 97 141 185l226 295h-512v195h850v-144q-55 -70 -131 -169t-145 -188l-230 -300h536v-195h-887zM327 1139q64 102 128.5 205t127.5 205l268 6q-86 -107 -168.5 -210t-162.5 -203z" />
    <glyph glyph-name="Zdotaccent" unicode="&#x17b;" horiz-adv-x="1363" 
d="M85 0v150q52 67 117 151.5t131 170.5t122 159l433 561h-784v234h1160v-191q-86 -110 -168 -215t-164 -211l-448 -575h790v-234h-1189zM679 1585q-73 0 -117 36.5t-44 116.5q0 73 44 111.5t119 38.5t118.5 -40t43.5 -110q0 -80 -43.5 -116.5t-120.5 -36.5z" />
    <glyph glyph-name="zdotaccent" unicode="&#x17c;" horiz-adv-x="1019" 
d="M68 0v122q77 101 152 199q74 97 141 185l226 295h-512v195h850v-144q-55 -70 -131 -169t-145 -188l-230 -300h536v-195h-887zM503 1175q-73 0 -117 36.5t-44 116.5q0 73 44 111.5t119 38.5t118.5 -40t43.5 -110q0 -80 -43.5 -116.5t-120.5 -36.5z" />
    <glyph glyph-name="Zcaron" unicode="&#x17d;" horiz-adv-x="1363" 
d="M85 0v150q52 67 117 151.5t131 170.5t122 159l433 561h-784v234h1160v-191q-86 -110 -168 -215t-164 -211l-448 -575h790v-234h-1189zM549 1558l-128 188t-128 186l191 3q49 -60 99 -118q49 -59 99 -120q49 60 97.5 118t97.5 116h193q-64 -92 -127 -185
q-64 -94 -129 -188h-265z" />
    <glyph glyph-name="zcaron" unicode="&#x17e;" horiz-adv-x="1019" 
d="M68 0v122q77 101 152 199q74 97 141 185l226 295h-512v195h850v-144q-55 -70 -131 -169t-145 -188l-230 -300h536v-195h-887zM373 1131l-128 206t-128 205l191 3l98 -130t99 -131q50 66 98.5 129.5t97.5 127.5h193q-64 -101 -128 -204l-128 -206h-265z" />
    <glyph glyph-name="uni018F" unicode="&#x18f;" horiz-adv-x="1566" 
d="M783 -25q-183 0 -315 58.5t-217.5 160t-126 233t-40.5 277.5l6 120h1109q-16 190 -149 294t-358 104q-122 0 -242 -32.5t-227 -92.5l-23 245q97 48 234 80t294 32q239 0 408 -88t257.5 -254t88.5 -398q0 -217 -80 -383.5t-235.5 -261t-383.5 -94.5zM781 208
q133 0 220.5 53.5t135 144.5t60.5 206h-838q8 -106 54 -198t136.5 -149t231.5 -57z" />
    <glyph glyph-name="florin" unicode="&#x192;" horiz-adv-x="1075" 
d="M197 -264q-64 0 -118 9t-84 21l37 210q36 -12 73 -20t72 -8q72 0 109.5 42t45.5 136l22 248t21 248h-248v180h264q5 53 9.5 106t8.5 106q13 152 75 236.5t154 118t195 33.5q64 0 117.5 -9t83.5 -21l-37 -211q-34 13 -70 21t-74 8q-93 0 -140 -48.5t-57 -150.5
q-9 -94 -17 -189h358v-180h-368q-10 -124 -21 -247t-22 -251q-13 -152 -69 -236.5t-140 -118t-180 -33.5z" />
    <glyph glyph-name="Ohorn" unicode="&#x1a0;" horiz-adv-x="1708" 
d="M822 -25q-190 0 -329 59t-230 162t-135 236t-44 281q0 207 82.5 375t245.5 267t402 99q243 0 405.5 -99.5t244.5 -267.5t82 -373q0 -212 -84 -379t-246 -263.5t-394 -96.5zM817 208q149 0 246 70.5t144.5 186t47.5 249.5q0 142 -51 257t-148.5 182.5t-238.5 67.5
q-146 0 -244.5 -70t-148 -185.5t-49.5 -251.5t48.5 -251t146.5 -185t247 -70zM1278 1111l-35 135q100 0 151 23.5t69 65.5t18 97q0 57 -10 113t-23 106l180 10q20 -42 37 -95t17 -134q0 -146 -98.5 -233.5t-305.5 -87.5z" />
    <glyph glyph-name="ohorn" unicode="&#x1a1;" horiz-adv-x="1320" 
d="M602 -25q-176 0 -292 74t-173 194t-57 259q0 149 60 266.5t175.5 185.5t281.5 68q170 0 285.5 -69t174 -186.5t58.5 -264.5q0 -150 -60.5 -269t-175.5 -188.5t-277 -69.5zM601 185q86 0 142.5 45t84.5 117.5t28 154.5q0 143 -70 226.5t-186 83.5q-127 0 -194 -89.5
t-67 -220.5q0 -82 29 -154.5t87.5 -117.5t145.5 -45zM916 681l-35 135q100 0 151 23.5t69 65.5t18 97q0 57 -10 113t-23 106l180 10q20 -42 37 -95t17 -134q0 -146 -98.5 -233.5t-305.5 -87.5z" />
    <glyph glyph-name="Uhorn" unicode="&#x1af;" horiz-adv-x="1670" 
d="M731 -25q-212 0 -342 69.5t-189.5 197t-59.5 300.5v884h280v-866q0 -167 72 -259.5t238 -92.5q169 0 238 92t69 261v865h280v-885q0 -172 -62 -299.5t-191 -197t-333 -69.5zM1265 1111l-35 135q100 0 151 23.5t69 65.5t18 97q0 57 -10 113t-23 106l180 10q20 -42 37 -95
t17 -134q0 -146 -98.5 -233.5t-305.5 -87.5z" />
    <glyph glyph-name="uhorn" unicode="&#x1b0;" horiz-adv-x="1358" 
d="M423 -25q-304 0 -304 354v667l254 8v-602q0 -98 33.5 -148t120.5 -50q73 0 129.5 44.5t98.5 108.5v639h254v-996h-216l-10 165h-23q-49 -72 -133 -131t-204 -59zM954 681l-35 135q100 0 151 23.5t69 65.5t18 97q0 57 -10 113t-23 106l180 10q20 -42 37 -95t17 -134
q0 -146 -98.5 -233.5t-305.5 -87.5z" />
    <glyph glyph-name="uni01C4" unicode="&#x1c4;" horiz-adv-x="2802" 
d="M155 0v1426h545q327 0 506 -185.5t179 -522.5q0 -151 -40 -281.5t-128.5 -228.5t-232 -153t-350.5 -55h-479zM436 226h198q170 0 271 65t145 177t44 254q0 216 -105.5 347t-336.5 131h-216v-974zM1524 0v150q52 67 117 151.5t131 170.5t122 159l433 561h-784v234h1160
v-191q-86 -110 -168 -215t-164 -211l-448 -575h790v-234h-1189zM1988 1558l-128 188t-128 186l191 3q49 -60 99 -118q49 -59 99 -120q49 60 97.5 118t97.5 116h193q-64 -92 -127 -185q-64 -94 -129 -188h-265z" />
    <glyph glyph-name="uni01C5" unicode="&#x1c5;" horiz-adv-x="2487" 
d="M155 0v1426h545q327 0 506 -185.5t179 -522.5q0 -151 -40 -281.5t-128.5 -228.5t-232 -153t-350.5 -55h-479zM436 226h198q170 0 271 65t145 177t44 254q0 216 -105.5 347t-336.5 131h-216v-974zM1537 0v122q77 101 152 199q74 97 141 185l226 295h-512v195h850v-144
q-55 -70 -131 -169t-145 -188l-230 -300h536v-195h-887zM1842 1131l-128 206t-128 205l191 3l98 -130t99 -131q50 66 98.5 129.5t97.5 127.5h193q-64 -101 -128 -204l-128 -206h-265z" />
    <glyph glyph-name="uni01C6" unicode="&#x1c6;" horiz-adv-x="2184" 
d="M490 -25q-138 0 -228.5 73.5t-135 193t-44.5 258.5q0 148 47 266t139 187t225 69q94 0 164 -36t112 -95h22v574l254 24v-1489h-217l-15 133h-19q-56 -77 -131 -117.5t-173 -40.5zM582 194q72 0 123.5 34.5t85.5 93.5v373q-36 52 -91 79t-116 27q-82 0 -135.5 -41.5
t-80 -110t-26.5 -151.5q0 -79 25.5 -148.5t78.5 -112.5t136 -43zM1233 0v122q77 101 152 199q74 97 141 185l226 295h-512v195h850v-144q-55 -70 -131 -169t-145 -188l-230 -300h536v-195h-887zM1538 1131l-128 206t-128 205l191 3l98 -130t99 -131q50 66 98.5 129.5
t97.5 127.5h193q-64 -101 -128 -204l-128 -206h-265z" />
    <glyph glyph-name="uni01C7" unicode="&#x1c7;" horiz-adv-x="1775" 
d="M155 0v1426h281v-1181h657v-245h-938zM1831 1426v-1063q0 -147 -54.5 -231.5t-150 -120.5t-205.5 -36q-67 0 -125 9.5t-100 25.5l21 216q65 -25 98.5 -32t67.5 -7q162 0 162 182v1057h286z" />
    <glyph glyph-name="uni01C8" unicode="&#x1c8;" horiz-adv-x="1695" 
d="M155 0v1426h281v-1181h657v-245h-938zM1147 -392q81 96 116.5 206.5t35.5 255.5v926l254 8v-963q0 -148 -40 -253.5t-115 -171.5zM1425 1175q-73 0 -117 36.5t-44 116.5q0 73 44 111.5t119 38.5t118.5 -40t43.5 -110q0 -80 -43.5 -116.5t-120.5 -36.5z" />
    <glyph glyph-name="uni01C9" unicode="&#x1c9;" horiz-adv-x="1072" 
d="M139 0v1465l254 24v-1489h-254zM525 -392q81 96 116.5 206.5t35.5 255.5v926l254 8v-963q0 -148 -40 -253.5t-115 -171.5zM803 1175q-73 0 -117 36.5t-44 116.5q0 73 44 111.5t119 38.5t118.5 -40t43.5 -110q0 -80 -43.5 -116.5t-120.5 -36.5z" />
    <glyph glyph-name="uni01CA" unicode="&#x1ca;" horiz-adv-x="2123" 
d="M155 0v1426h246q109 -157 208 -299t197 -283l257 -369h21v951h264v-1426h-243q-91 130 -189 272q-99 141 -217 310l-260 373h-21v-955h-263zM2179 1426v-1063q0 -147 -54.5 -231.5t-150 -120.5t-205.5 -36q-67 0 -125 9.5t-100 25.5l21 216q65 -25 98.5 -32t67.5 -7
q162 0 162 182v1057h286z" />
    <glyph glyph-name="uni01CB" unicode="&#x1cb;" horiz-adv-x="2043" 
d="M155 0v1426h246q109 -157 208 -299t197 -283l257 -369h21v951h264v-1426h-243q-91 130 -189 272q-99 141 -217 310l-260 373h-21v-955h-263zM1495 -392q81 96 116.5 206.5t35.5 255.5v926l254 8v-963q0 -148 -40 -253.5t-115 -171.5zM1773 1175q-73 0 -117 36.5
t-44 116.5q0 73 44 111.5t119 38.5t118.5 -40t43.5 -110q0 -80 -43.5 -116.5t-120.5 -36.5z" />
    <glyph glyph-name="uni01CC" unicode="&#x1cc;" horiz-adv-x="1693" 
d="M139 0v996l216 13l10 -177h23q50 72 134 131t208 59q304 0 304 -354v-668h-254v590q0 98 -33.5 148t-120.5 50q-77 0 -134 -44.5t-99 -108.5v-635h-254zM1145 -392q81 96 116.5 206.5t35.5 255.5v926l254 8v-963q0 -148 -40 -253.5t-115 -171.5zM1423 1175
q-73 0 -117 36.5t-44 116.5q0 73 44 111.5t119 38.5t118.5 -40t43.5 -110q0 -80 -43.5 -116.5t-120.5 -36.5z" />
    <glyph glyph-name="Gcaron" unicode="&#x1e6;" horiz-adv-x="1461" 
d="M1337 55q-45 -20 -122 -38t-172 -29.5t-193 -11.5q-246 0 -417 95.5t-260 262.5t-89 380q0 217 89 384t254 261.5t394 94.5q150 0 280.5 -35.5t212.5 -76.5l-22 -261q-125 71 -238.5 102t-211.5 31q-135 0 -241 -58.5t-167 -170t-61 -272.5q0 -141 53.5 -257t164 -184.5
t282.5 -68.5q108 0 201 19v387h-367v222h630v-776zM661 1558l-128 188t-128 186l191 3q49 -60 99 -118q49 -59 99 -120q49 60 97.5 118t97.5 116h193q-64 -92 -127 -185q-64 -94 -129 -188h-265z" />
    <glyph glyph-name="gcaron" unicode="&#x1e7;" horiz-adv-x="1094" 
d="M482 -408q-150 0 -235.5 33.5t-120.5 86.5t-35 111q0 67 32 110.5t74.5 68t72.5 34.5v18q-24 8 -63 42.5t-39 104.5q0 49 27.5 92t91.5 71v18q-37 16 -87 52.5t-87 99.5t-37 158q0 142 105 235.5t308 93.5q53 0 93 -5q40 -6 83 -11.5t107 -5.5h285v-176h-186
q31 -62 31 -145q0 -150 -92.5 -229t-231.5 -110q-90 -20 -133 -36t-43 -46q0 -32 41.5 -43t136.5 -11h41q196 0 299.5 -52.5t103.5 -193.5q0 -98 -48.5 -167.5t-128 -113t-175 -64t-190.5 -20.5zM482 503q38 5 82 21t76 48.5t32 84.5q0 82 -59.5 120.5t-125.5 38.5
q-67 0 -122 -38.5t-55 -108.5t52.5 -112t119.5 -54zM512 -219q92 0 152.5 23.5t91 54.5t30.5 54q0 27 -19 47t-69.5 30.5t-146.5 10.5h-33q-46 -2 -92.5 -17.5t-77.5 -41t-31 -58.5q0 -39 45.5 -71t149.5 -32zM396 1131l-128 206t-128 205l191 3l98 -130t99 -131
q50 66 98.5 129.5t97.5 127.5h193q-64 -101 -128 -204l-128 -206h-265z" />
    <glyph glyph-name="uni01EA" unicode="&#x1ea;" horiz-adv-x="1630" 
d="M822 -25q-190 0 -329 59t-230 162t-135 236t-44 281q0 207 82.5 375t245.5 267t402 99q243 0 405.5 -99.5t244.5 -267.5t82 -373q0 -212 -84 -379t-246 -263.5t-394 -96.5zM817 208q149 0 246 70.5t144.5 186t47.5 249.5q0 142 -51 257t-148.5 182.5t-238.5 67.5
q-146 0 -244.5 -70t-148 -185.5t-49.5 -251.5t48.5 -251t146.5 -185t247 -70zM904 -429q-131 0 -192 49.5t-61 125.5q0 77 51.5 139.5t137.5 110.5v51l133 13l51 -60q-79 -37 -131 -86.5t-52 -104.5q0 -39 27.5 -58.5t74.5 -19.5q31 0 53.5 4.5t35.5 9.5v-155
q-22 -8 -56.5 -13.5t-71.5 -5.5z" />
    <glyph glyph-name="uni01EB" unicode="&#x1eb;" horiz-adv-x="1195" 
d="M602 -25q-176 0 -292 74t-173 194t-57 259q0 149 60 266.5t175.5 185.5t281.5 68q170 0 285.5 -69t174 -186.5t58.5 -264.5q0 -150 -60.5 -269t-175.5 -188.5t-277 -69.5zM601 185q86 0 142.5 45t84.5 117.5t28 154.5q0 143 -70 226.5t-186 83.5q-127 0 -194 -89.5
t-67 -220.5q0 -82 29 -154.5t87.5 -117.5t145.5 -45zM647 -429q-131 0 -192 49.5t-61 125.5q0 77 51.5 139.5t137.5 110.5v51l133 13l51 -60q-79 -37 -131 -86.5t-52 -104.5q0 -39 27.5 -58.5t74.5 -19.5q31 0 53.5 4.5t35.5 9.5v-155q-22 -8 -56.5 -13.5t-71.5 -5.5z" />
    <glyph glyph-name="Aringacute" unicode="&#x1fa;" horiz-adv-x="1418" 
d="M48 0q39 115 82 242t81 241l166 489q45 133 81 240q36 106 73 214h362q37 -112 72.5 -218t80.5 -236l164 -490q40 -119 82 -243q42 -125 80 -239h-289q-24 77 -48 158q-25 81 -49 160h-558q-25 -80 -50 -161t-49 -157h-281zM698 1185l-204 -655h427l-201 655h-22z
M707 1540q-114 0 -184 58t-70 171q0 102 70.5 164t185.5 62q114 0 184 -63.5t70 -162.5q0 -113 -70.5 -171t-185.5 -58zM707 1653q55 0 88.5 29.5t33.5 85.5q0 49 -33.5 81.5t-86.5 32.5q-55 0 -88.5 -32t-33.5 -82q0 -56 33.5 -85.5t86.5 -29.5zM564 1909q65 93 129 187
q63 93 127 186l268 5q-85 -97 -168 -191t-163 -184z" />
    <glyph glyph-name="aringacute" unicode="&#x1fb;" horiz-adv-x="1041" 
d="M376 -23q-126 0 -209.5 78t-83.5 219q0 112 49.5 177.5t124.5 98t153 44.5l285 42q4 105 -56 140t-156 35q-69 0 -156.5 -22t-186.5 -67l-12 221q73 29 185 53.5t237 24.5q183 0 285 -82t102 -268v-671h-225l-15 130h-21q-41 -55 -116 -104t-184 -49zM468 176
q63 0 122.5 43.5t97.5 118.5v157q-20 -14 -61.5 -24.5t-154.5 -31.5q-134 -24 -134 -145q0 -65 39.5 -91.5t90.5 -26.5zM529 1110q-114 0 -184 58t-70 171q0 102 70.5 164t185.5 62q114 0 184 -63.5t70 -162.5q0 -113 -70.5 -171t-185.5 -58zM529 1223q55 0 88.5 29.5
t33.5 85.5q0 49 -33.5 81.5t-86.5 32.5q-55 0 -88.5 -32t-33.5 -82q0 -56 33.5 -85.5t86.5 -29.5zM386 1489q64 102 128.5 205t127.5 205l268 6q-86 -107 -168.5 -210t-162.5 -203z" />
    <glyph glyph-name="AEacute" unicode="&#x1fc;" horiz-adv-x="1974" 
d="M25 0q58 115 121.5 241.5t120.5 241.5l246 491q65 129 118.5 236t107.5 216h1125v-233h-652v-362h617v-221h-617v-377h659v-233h-933v318h-473q-39 -80 -78 -160.5t-76 -157.5h-286zM892 1201l-324 -671h370v671h-46zM896 1559q65 93 129 187q63 93 127 186l268 5
q-85 -97 -168 -191t-163 -184z" />
    <glyph glyph-name="aeacute" unicode="&#x1fd;" horiz-adv-x="1620" 
d="M384 -23q-145 0 -230 78t-85 219q0 112 49 177.5t124 98t153 44.5l285 42q4 105 -56 140t-155 35q-69 0 -156.5 -22t-186.5 -67l-13 221q71 29 177.5 53.5t224.5 24.5q107 0 183.5 -31t119.5 -98q55 62 135 95.5t182 33.5q196 0 308.5 -109t112.5 -327q0 -76 -8 -131
h-636q11 -126 88.5 -196.5t227.5 -70.5q63 0 147 17.5t155 54.5l8 -218q-57 -28 -144 -47t-195 -19q-153 0 -257.5 52.5t-164.5 143.5q-78 -102 -178 -148t-215 -46zM1134 834q-84 0 -142 -59.5t-75 -159.5l413 8q-6 99 -61.5 155t-134.5 56zM453 176q64 0 123 43.5
t98 118.5v157q-21 -14 -62 -24.5t-155 -31.5q-133 -24 -133 -145q0 -65 39 -91.5t90 -26.5zM623 1139q64 102 128.5 205t127.5 205l268 6q-86 -107 -168.5 -210t-162.5 -203z" />
    <glyph glyph-name="Oslashacute" unicode="&#x1fe;" horiz-adv-x="1630" 
d="M279 -144l-129 108q39 52 76 100.5t73 95.5q-109 103 -162 247t-53 306q0 207 82.5 375t245.5 267t402 99q119 0 219 -25.5t181 -72.5l62 82q31 40 63 82l135 -101q-32 -43 -63 -84q-32 -41 -63 -82q99 -101 148.5 -240t49.5 -299q0 -212 -84 -379t-246 -263.5
t-394 -96.5q-115 0 -211 22.5t-174 63.5q-39 -51 -78.5 -102t-79.5 -103zM375 714q0 -94 23 -179.5t70 -153.5q19 25 39 50q19 25 39 52l393 514q31 40 60.5 78.5t57.5 76.5q-48 33 -108.5 51t-131.5 18q-146 0 -244.5 -70t-148 -185.5t-49.5 -251.5zM817 208
q149 0 246 70.5t144.5 186t47.5 249.5q0 183 -80 313q-51 -66 -100 -131l-398 -520q-42 -56 -85 -112q46 -27 102.5 -41.5t122.5 -14.5zM636 1559q65 93 129 187q63 93 127 186l268 5q-85 -97 -168 -191t-163 -184z" />
    <glyph glyph-name="oslashacute" unicode="&#x1ff;" horiz-adv-x="1195" 
d="M209 -142l-114 92q34 45 66 87q32 41 63 82q-72 73 -108 173t-36 210q0 149 60 266.5t175.5 185t282.5 67.5q79 0 146.5 -15.5t123.5 -45.5q26 35 52.5 69.5t53.5 69.5l118 -87q-28 -36 -54 -71l-54 -70q66 -70 99 -164.5t33 -204.5q0 -149 -61 -268.5t-176 -189
t-277 -69.5q-76 0 -141 15t-119 42l-66 -86t-67 -88zM335 502q0 -103 42 -183q6 8 12 15l289 378q25 32 53 69q-57 34 -131 34q-130 0 -197.5 -90.5t-67.5 -222.5zM600 182q88 0 145.5 45.5t85.5 118.5t28 156q0 94 -31 165q-18 -23 -34 -44l-293 -383q-10 -14 -21 -29
q53 -29 120 -29zM418 1139q64 102 128.5 205t127.5 205l268 6q-86 -107 -168.5 -210t-162.5 -203z" />
    <glyph glyph-name="uni0200" unicode="&#x200;" horiz-adv-x="1418" 
d="M48 0q39 115 82 242t81 241l166 489q45 133 81 240q36 106 73 214h362q37 -112 72.5 -218t80.5 -236l164 -490q40 -119 82 -243q42 -125 80 -239h-289q-24 77 -48 158q-25 81 -49 160h-558q-25 -80 -50 -161t-49 -157h-281zM698 1185l-204 -655h427l-201 655h-22z
M463 1559q-77 90 -155 183t-160 190l247 5q61 -94 122.5 -187.5t123.5 -187.5zM867 1559q-66 90 -132 183q-67 93 -137 190l238 5q51 -94 101 -187t101 -188z" />
    <glyph glyph-name="uni0201" unicode="&#x201;" horiz-adv-x="1041" 
d="M376 -23q-126 0 -209.5 78t-83.5 219q0 112 49.5 177.5t124.5 98t153 44.5l285 42q4 105 -56 140t-156 35q-69 0 -156.5 -22t-186.5 -67l-12 221q73 29 185 53.5t237 24.5q183 0 285 -82t102 -268v-671h-225l-15 130h-21q-41 -55 -116 -104t-184 -49zM468 176
q63 0 122.5 43.5t97.5 118.5v157q-20 -14 -61.5 -24.5t-154.5 -31.5q-134 -24 -134 -145q0 -65 39.5 -91.5t90.5 -26.5zM285 1139q-77 99 -155.5 201.5t-159.5 208.5l247 6q61 -103 122.5 -206.5t123.5 -206.5zM689 1139q-65 99 -132 202q-68 102 -137 208l238 6
q51 -103 101 -206t101 -207z" />
    <glyph glyph-name="uni0202" unicode="&#x202;" horiz-adv-x="1418" 
d="M48 0q39 115 82 242t81 241l166 489q45 133 81 240q36 106 73 214h362q37 -112 72.5 -218t80.5 -236l164 -490q40 -119 82 -243q42 -125 80 -239h-289q-24 77 -48 158q-25 81 -49 160h-558q-25 -80 -50 -161t-49 -157h-281zM698 1185l-204 -655h427l-201 655h-22z
M884 1551q0 230 -176 230q-178 0 -178 -222h-178q0 396 356 396q354 0 354 -396z" />
    <glyph glyph-name="uni0203" unicode="&#x203;" horiz-adv-x="1041" 
d="M376 -23q-126 0 -209.5 78t-83.5 219q0 112 49.5 177.5t124.5 98t153 44.5l285 42q4 105 -56 140t-156 35q-69 0 -156.5 -22t-186.5 -67l-12 221q73 29 185 53.5t237 24.5q183 0 285 -82t102 -268v-671h-225l-15 130h-21q-41 -55 -116 -104t-184 -49zM468 176
q63 0 122.5 43.5t97.5 118.5v157q-20 -14 -61.5 -24.5t-154.5 -31.5q-134 -24 -134 -145q0 -65 39.5 -91.5t90.5 -26.5zM706 1131q0 230 -176 230q-178 0 -178 -222h-178q0 396 356 396q354 0 354 -396z" />
    <glyph glyph-name="uni0204" unicode="&#x204;" horiz-adv-x="1191" 
d="M155 0v1426h926v-233h-652v-362h618v-221h-618v-377h659v-233h-933zM377 1559q-77 90 -155 183t-160 190l247 5q61 -94 122.5 -187.5t123.5 -187.5zM781 1559q-66 90 -132 183q-67 93 -137 190l238 5q51 -94 101 -187t101 -188z" />
    <glyph glyph-name="uni0205" unicode="&#x205;" horiz-adv-x="1054" 
d="M622 -25q-188 0 -308 68t-177 187t-57 272q0 152 54.5 269.5t160.5 183.5t260 66q199 0 311.5 -109t112.5 -327q0 -76 -8 -131h-636q11 -126 88.5 -196.5t227.5 -70.5q63 0 147 17.5t155 54.5l8 -218q-57 -28 -143.5 -47t-195.5 -19zM557 834q-83 0 -141.5 -59.5
t-75.5 -159.5l414 8q-7 99 -61 155t-136 56zM307 1139q-77 99 -155.5 201.5t-159.5 208.5l247 6q61 -103 122.5 -206.5t123.5 -206.5zM711 1139q-65 99 -132 202q-68 102 -137 208l238 6q51 -103 101 -206t101 -207z" />
    <glyph glyph-name="uni0206" unicode="&#x206;" horiz-adv-x="1191" 
d="M155 0v1426h926v-233h-652v-362h618v-221h-618v-377h659v-233h-933zM798 1551q0 230 -176 230q-178 0 -178 -222h-178q0 396 356 396q354 0 354 -396z" />
    <glyph glyph-name="uni0207" unicode="&#x207;" horiz-adv-x="1054" 
d="M622 -25q-188 0 -308 68t-177 187t-57 272q0 152 54.5 269.5t160.5 183.5t260 66q199 0 311.5 -109t112.5 -327q0 -76 -8 -131h-636q11 -126 88.5 -196.5t227.5 -70.5q63 0 147 17.5t155 54.5l8 -218q-57 -28 -143.5 -47t-195.5 -19zM557 834q-83 0 -141.5 -59.5
t-75.5 -159.5l414 8q-7 99 -61 155t-136 56zM728 1131q0 230 -176 230q-178 0 -178 -222h-178q0 396 356 396q354 0 354 -396z" />
    <glyph glyph-name="uni0208" unicode="&#x208;" horiz-adv-x="606" 
d="M160 0v1426h286v-1426h-286zM52 1559q-77 90 -155 183t-160 190l247 5q61 -94 122.5 -187.5t123.5 -187.5zM456 1559q-66 90 -132 183q-67 93 -137 190l238 5q51 -94 101 -187t101 -188z" />
    <glyph glyph-name="uni0209" unicode="&#x209;" horiz-adv-x="543" 
d="M144 0v996l254 8v-1004h-254zM25 1139q-77 99 -155.5 201.5t-159.5 208.5l247 6q61 -103 122.5 -206.5t123.5 -206.5zM429 1139q-65 99 -132 202q-68 102 -137 208l238 6q51 -103 101 -206t101 -207z" />
    <glyph glyph-name="uni020A" unicode="&#x20a;" horiz-adv-x="606" 
d="M160 0v1426h286v-1426h-286zM473 1551q0 230 -176 230q-178 0 -178 -222h-178q0 396 356 396q354 0 354 -396z" />
    <glyph glyph-name="uni020B" unicode="&#x20b;" horiz-adv-x="543" 
d="M144 0v996l254 8v-1004h-254zM416 1131q0 230 -147 230q-149 0 -149 -222h-175q0 396 324 396q323 0 323 -396z" />
    <glyph glyph-name="uni020C" unicode="&#x20c;" horiz-adv-x="1630" 
d="M822 -25q-190 0 -329 59t-230 162t-135 236t-44 281q0 207 82.5 375t245.5 267t402 99q243 0 405.5 -99.5t244.5 -267.5t82 -373q0 -212 -84 -379t-246 -263.5t-394 -96.5zM817 208q149 0 246 70.5t144.5 186t47.5 249.5q0 142 -51 257t-148.5 182.5t-238.5 67.5
q-146 0 -244.5 -70t-148 -185.5t-49.5 -251.5t48.5 -251t146.5 -185t247 -70zM569 1559q-77 90 -155 183t-160 190l247 5q61 -94 122.5 -187.5t123.5 -187.5zM973 1559q-66 90 -132 183q-67 93 -137 190l238 5q51 -94 101 -187t101 -188z" />
    <glyph glyph-name="uni020D" unicode="&#x20d;" horiz-adv-x="1195" 
d="M602 -25q-176 0 -292 74t-173 194t-57 259q0 149 60 266.5t175.5 185.5t281.5 68q170 0 285.5 -69t174 -186.5t58.5 -264.5q0 -150 -60.5 -269t-175.5 -188.5t-277 -69.5zM601 185q86 0 142.5 45t84.5 117.5t28 154.5q0 143 -70 226.5t-186 83.5q-127 0 -194 -89.5
t-67 -220.5q0 -82 29 -154.5t87.5 -117.5t145.5 -45zM351 1139q-77 99 -155.5 201.5t-159.5 208.5l247 6q61 -103 122.5 -206.5t123.5 -206.5zM755 1139q-65 99 -132 202q-68 102 -137 208l238 6q51 -103 101 -206t101 -207z" />
    <glyph glyph-name="uni020E" unicode="&#x20e;" horiz-adv-x="1630" 
d="M822 -25q-190 0 -329 59t-230 162t-135 236t-44 281q0 207 82.5 375t245.5 267t402 99q243 0 405.5 -99.5t244.5 -267.5t82 -373q0 -212 -84 -379t-246 -263.5t-394 -96.5zM817 208q149 0 246 70.5t144.5 186t47.5 249.5q0 142 -51 257t-148.5 182.5t-238.5 67.5
q-146 0 -244.5 -70t-148 -185.5t-49.5 -251.5t48.5 -251t146.5 -185t247 -70zM990 1551q0 230 -176 230q-178 0 -178 -222h-178q0 396 356 396q354 0 354 -396z" />
    <glyph glyph-name="uni020F" unicode="&#x20f;" horiz-adv-x="1195" 
d="M602 -25q-176 0 -292 74t-173 194t-57 259q0 149 60 266.5t175.5 185.5t281.5 68q170 0 285.5 -69t174 -186.5t58.5 -264.5q0 -150 -60.5 -269t-175.5 -188.5t-277 -69.5zM601 185q86 0 142.5 45t84.5 117.5t28 154.5q0 143 -70 226.5t-186 83.5q-127 0 -194 -89.5
t-67 -220.5q0 -82 29 -154.5t87.5 -117.5t145.5 -45zM772 1131q0 230 -176 230q-178 0 -178 -222h-178q0 396 356 396q354 0 354 -396z" />
    <glyph glyph-name="uni0210" unicode="&#x210;" horiz-adv-x="1369" 
d="M155 0v1426h525q256 0 389.5 -89t133.5 -314q0 -149 -72.5 -263t-241.5 -155l138 -192q48 -66 102 -141q53 -75 104 -146t91 -126h-320q-60 86 -114 166q-54 79 -106 154l-146 213h-209v-533h-274zM671 1202h-242v-452h200q142 0 213.5 53t71.5 187q0 93 -37 138.5
t-93 59.5t-113 14zM400 1559q-77 90 -155 183t-160 190l247 5q61 -94 122.5 -187.5t123.5 -187.5zM804 1559q-66 90 -132 183q-67 93 -137 190l238 5q51 -94 101 -187t101 -188z" />
    <glyph glyph-name="uni0211" unicode="&#x211;" horiz-adv-x="816" 
d="M139 0v996l216 13l10 -190h22q40 85 89 128.5t100.5 59t96.5 15.5q24 0 52 -4t54 -14l-23 -249q-36 5 -65.5 7.5t-65.5 2.5q-37 0 -80 -13.5t-83 -56t-69 -126.5v-569h-254zM223 1139q-77 99 -155.5 201.5t-159.5 208.5l247 6q61 -103 122.5 -206.5t123.5 -206.5z
M627 1139q-65 99 -132 202q-68 102 -137 208l238 6q51 -103 101 -206t101 -207z" />
    <glyph glyph-name="uni0212" unicode="&#x212;" horiz-adv-x="1369" 
d="M155 0v1426h525q256 0 389.5 -89t133.5 -314q0 -149 -72.5 -263t-241.5 -155l138 -192q48 -66 102 -141q53 -75 104 -146t91 -126h-320q-60 86 -114 166q-54 79 -106 154l-146 213h-209v-533h-274zM671 1202h-242v-452h200q142 0 213.5 53t71.5 187q0 93 -37 138.5
t-93 59.5t-113 14zM821 1551q0 230 -176 230q-178 0 -178 -222h-178q0 396 356 396q354 0 354 -396z" />
    <glyph glyph-name="uni0213" unicode="&#x213;" horiz-adv-x="816" 
d="M139 0v996l216 13l10 -190h22q40 85 89 128.5t100.5 59t96.5 15.5q24 0 52 -4t54 -14l-23 -249q-36 5 -65.5 7.5t-65.5 2.5q-37 0 -80 -13.5t-83 -56t-69 -126.5v-569h-254zM644 1131q0 230 -176 230q-178 0 -178 -222h-178q0 396 356 396q354 0 354 -396z" />
    <glyph glyph-name="uni0214" unicode="&#x214;" horiz-adv-x="1458" 
d="M731 -25q-212 0 -342 69.5t-189.5 197t-59.5 300.5v884h280v-866q0 -167 72 -259.5t238 -92.5q169 0 238 92t69 261v865h280v-885q0 -172 -62 -299.5t-191 -197t-333 -69.5zM485 1559q-77 90 -155 183t-160 190l247 5q61 -94 122.5 -187.5t123.5 -187.5zM889 1559
q-66 90 -132 183q-67 93 -137 190l238 5q51 -94 101 -187t101 -188z" />
    <glyph glyph-name="uni0215" unicode="&#x215;" horiz-adv-x="1133" 
d="M423 -25q-304 0 -304 354v667l254 8v-602q0 -98 33.5 -148t120.5 -50q73 0 129.5 44.5t98.5 108.5v639h254v-996h-216l-10 165h-23q-49 -72 -133 -131t-204 -59zM319 1139q-77 99 -155.5 201.5t-159.5 208.5l247 6q61 -103 122.5 -206.5t123.5 -206.5zM723 1139
q-65 99 -132 202q-68 102 -137 208l238 6q51 -103 101 -206t101 -207z" />
    <glyph glyph-name="uni0216" unicode="&#x216;" horiz-adv-x="1458" 
d="M731 -25q-212 0 -342 69.5t-189.5 197t-59.5 300.5v884h280v-866q0 -167 72 -259.5t238 -92.5q169 0 238 92t69 261v865h280v-885q0 -172 -62 -299.5t-191 -197t-333 -69.5zM906 1551q0 230 -176 230q-178 0 -178 -222h-178q0 396 356 396q354 0 354 -396z" />
    <glyph glyph-name="uni0217" unicode="&#x217;" horiz-adv-x="1133" 
d="M423 -25q-304 0 -304 354v667l254 8v-602q0 -98 33.5 -148t120.5 -50q73 0 129.5 44.5t98.5 108.5v639h254v-996h-216l-10 165h-23q-49 -72 -133 -131t-204 -59zM740 1131q0 230 -176 230q-178 0 -178 -222h-178q0 396 356 396q354 0 354 -396z" />
    <glyph glyph-name="uni0218" unicode="&#x218;" horiz-adv-x="1191" 
d="M595 -25q-89 0 -181.5 15.5t-172 39t-128.5 47.5l21 254q103 -58 217.5 -91.5t223.5 -33.5q113 0 184.5 43t71.5 137t-86 142.5t-237 93.5q-132 40 -225.5 90t-143 128.5t-49.5 201.5q0 181 122.5 296.5t368.5 115.5q131 0 258 -32t202 -71l-23 -254q-93 61 -198.5 92.5
t-189.5 31.5q-101 0 -173 -41.5t-72 -127.5q0 -82 69 -127t219 -91q171 -52 269.5 -108t140.5 -132.5t42 -192.5q0 -189 -126.5 -307.5t-403.5 -118.5zM437 -575q37 59 46.5 118t9.5 136v161l117 10q69 -4 104 -38t35 -88q0 -88 -54 -167.5t-148 -128.5z" />
    <glyph glyph-name="uni0219" unicode="&#x219;" horiz-adv-x="924" 
d="M448 -25q-103 0 -196 20t-156 50l17 224q67 -40 153.5 -63.5t171.5 -23.5q65 0 112 19t47 87q0 46 -49.5 70t-176.5 57q-128 34 -200.5 96t-72.5 196q0 149 96 231.5t259 82.5q104 0 195.5 -22.5t146.5 -48.5l-18 -225q-69 44 -153 66t-134 22q-55 0 -93.5 -22.5
t-38.5 -75.5q0 -44 34.5 -71t149.5 -59q104 -29 173.5 -61t104.5 -84.5t35 -142.5q0 -144 -95 -233t-312 -89zM301 -575q37 59 46.5 118t9.5 136v161l117 10q69 -4 104 -38t35 -88q0 -88 -54 -167.5t-148 -128.5z" />
    <glyph glyph-name="uni021A" unicode="&#x21a;" horiz-adv-x="1288" 
d="M505 0v1181h-450v245h1178v-245h-449v-1181h-279zM481 -575q37 59 46.5 118t9.5 136v161l117 10q69 -4 104 -38t35 -88q0 -88 -54 -167.5t-148 -128.5z" />
    <glyph glyph-name="uni021B" unicode="&#x21b;" horiz-adv-x="836" 
d="M549 -25q-160 0 -248.5 77t-88.5 253v498h-171v193h171v323l251 47v-370h315v-193h-315v-422q0 -97 37.5 -146.5t119.5 -49.5q33 0 73 12t75 37l17 -209q-37 -23 -102.5 -36.5t-133.5 -13.5zM305 -575q37 59 46.5 118t9.5 136v161l117 10q69 -4 104 -38t35 -88
q0 -88 -54 -167.5t-148 -128.5z" />
    <glyph glyph-name="uni022A" unicode="&#x22a;" horiz-adv-x="1630" 
d="M822 -25q-190 0 -329 59t-230 162t-135 236t-44 281q0 207 82.5 375t245.5 267t402 99q243 0 405.5 -99.5t244.5 -267.5t82 -373q0 -212 -84 -379t-246 -263.5t-394 -96.5zM817 208q149 0 246 70.5t144.5 186t47.5 249.5q0 142 -51 257t-148.5 182.5t-238.5 67.5
q-146 0 -244.5 -70t-148 -185.5t-49.5 -251.5t48.5 -251t146.5 -185t247 -70zM1036 1585q-65 0 -102.5 36.5t-37.5 109.5q0 66 38 104.5t104 38.5t103.5 -40t37.5 -103q0 -73 -38 -109.5t-105 -36.5zM592 1585q-65 0 -103 36.5t-38 109.5q0 66 38 104.5t105 38.5
q65 0 103 -40t38 -103q0 -73 -38 -109.5t-105 -36.5zM481 2011v189h664v-189h-664z" />
    <glyph glyph-name="uni022B" unicode="&#x22b;" horiz-adv-x="1195" 
d="M602 -25q-176 0 -292 74t-173 194t-57 259q0 149 60 266.5t175.5 185.5t281.5 68q170 0 285.5 -69t174 -186.5t58.5 -264.5q0 -150 -60.5 -269t-175.5 -188.5t-277 -69.5zM601 185q86 0 142.5 45t84.5 117.5t28 154.5q0 143 -70 226.5t-186 83.5q-127 0 -194 -89.5
t-67 -220.5q0 -82 29 -154.5t87.5 -117.5t145.5 -45zM818 1165q-65 0 -102.5 36.5t-37.5 109.5q0 66 38 104.5t104 38.5t103.5 -40t37.5 -103q0 -73 -38 -109.5t-105 -36.5zM374 1165q-65 0 -103 36.5t-38 109.5q0 66 38 104.5t105 38.5q65 0 103 -40t38 -103
q0 -73 -38 -109.5t-105 -36.5zM263 1601v189h664v-189h-664z" />
    <glyph glyph-name="uni022C" unicode="&#x22c;" horiz-adv-x="1630" 
d="M822 -25q-190 0 -329 59t-230 162t-135 236t-44 281q0 207 82.5 375t245.5 267t402 99q243 0 405.5 -99.5t244.5 -267.5t82 -373q0 -212 -84 -379t-246 -263.5t-394 -96.5zM817 208q149 0 246 70.5t144.5 186t47.5 249.5q0 142 -51 257t-148.5 182.5t-238.5 67.5
q-146 0 -244.5 -70t-148 -185.5t-49.5 -251.5t48.5 -251t146.5 -185t247 -70zM989 1547q-61 0 -107 24t-81 56q-36 32 -66.5 56t-61.5 24q-50 0 -71.5 -36t-26.5 -90h-138q0 149 57.5 229.5t154.5 80.5q60 0 104.5 -24.5t79.5 -56.5t65.5 -56t63.5 -24q48 0 68.5 36t24.5 90
h138q0 -149 -55.5 -229t-148.5 -80zM483 2049v189h664v-189h-664z" />
    <glyph glyph-name="uni022D" unicode="&#x22d;" horiz-adv-x="1195" 
d="M602 -25q-176 0 -292 74t-173 194t-57 259q0 149 60 266.5t175.5 185.5t281.5 68q170 0 285.5 -69t174 -186.5t58.5 -264.5q0 -150 -60.5 -269t-175.5 -188.5t-277 -69.5zM601 185q86 0 142.5 45t84.5 117.5t28 154.5q0 143 -70 226.5t-186 83.5q-127 0 -194 -89.5
t-67 -220.5q0 -82 29 -154.5t87.5 -117.5t145.5 -45zM771 1126q-61 0 -107 24.5t-81 56.5q-36 32 -66.5 56t-61.5 24q-50 0 -71.5 -36t-26.5 -90h-138q0 149 57.5 229t154.5 80q60 0 104.5 -24t79.5 -56t65.5 -56t63.5 -24q48 0 68.5 36t24.5 90h138q0 -149 -55.5 -229.5
t-148.5 -80.5zM265 1639v189h664v-189h-664z" />
    <glyph glyph-name="uni0230" unicode="&#x230;" horiz-adv-x="1630" 
d="M822 -25q-190 0 -329 59t-230 162t-135 236t-44 281q0 207 82.5 375t245.5 267t402 99q243 0 405.5 -99.5t244.5 -267.5t82 -373q0 -212 -84 -379t-246 -263.5t-394 -96.5zM817 208q149 0 246 70.5t144.5 186t47.5 249.5q0 142 -51 257t-148.5 182.5t-238.5 67.5
q-146 0 -244.5 -70t-148 -185.5t-49.5 -251.5t48.5 -251t146.5 -185t247 -70zM812 1585q-73 0 -117 36.5t-44 116.5q0 73 44 111.5t119 38.5t118.5 -40t43.5 -110q0 -80 -43.5 -116.5t-120.5 -36.5zM482 2023v189h664v-189h-664z" />
    <glyph glyph-name="uni0231" unicode="&#x231;" horiz-adv-x="1195" 
d="M602 -25q-176 0 -292 74t-173 194t-57 259q0 149 60 266.5t175.5 185.5t281.5 68q170 0 285.5 -69t174 -186.5t58.5 -264.5q0 -150 -60.5 -269t-175.5 -188.5t-277 -69.5zM601 185q86 0 142.5 45t84.5 117.5t28 154.5q0 143 -70 226.5t-186 83.5q-127 0 -194 -89.5
t-67 -220.5q0 -82 29 -154.5t87.5 -117.5t145.5 -45zM594 1175q-73 0 -117 36.5t-44 116.5q0 73 44 111.5t119 38.5t118.5 -40t43.5 -110q0 -80 -43.5 -116.5t-120.5 -36.5zM265 1622v189h664v-189h-664z" />
    <glyph glyph-name="uni0232" unicode="&#x232;" horiz-adv-x="1343" 
d="M534 0v532l-293 538q-48 88 -93 170q-45 81 -102 186h318q43 -88 73.5 -150.5t57.5 -118.5t60 -123l107 -220h25l105 213q35 71 64 129t60 121t74 149h309q-49 -90 -97 -180q-49 -90 -96 -175l-291 -537v-534h-281zM342 1632v189h664v-189h-664z" />
    <glyph glyph-name="uni0233" unicode="&#x233;" horiz-adv-x="1077" 
d="M240 -392l77 192.5t78 192.5q-35 96 -70 193.5t-68 191.5l-64 180q-39 107 -79 219t-78 219l274 8q33 -115 64.5 -225t64.5 -226l81 -286h23l89 286q35 112 69 222q34 109 69 221h271q-31 -80 -60 -155t-64 -165t-84 -215l-109 -280q-74 -190 -126 -324
q-52 -133 -94 -241zM206 1212v189h664v-189h-664z" />
    <glyph glyph-name="uni0237" unicode="&#x237;" horiz-adv-x="540" 
d="M-8 -392q81 96 116.5 206.5t35.5 255.5v926l254 8v-963q0 -148 -40 -253.5t-115 -171.5z" />
    <glyph glyph-name="uni0259" unicode="&#x259;" horiz-adv-x="1054" 
d="M499 -25q-199 0 -311.5 109t-112.5 328q0 76 8 130h636q-11 126 -88.5 196.5t-227.5 70.5q-63 0 -147.5 -17t-154.5 -54l-9 218q58 28 144.5 46.5t194.5 18.5q189 0 308.5 -67.5t177 -186.5t57.5 -272t-54.5 -270t-160.5 -183.5t-260 -66.5zM497 162q83 0 141.5 60
t75.5 159l-414 -7q7 -99 61 -155.5t136 -56.5z" />
    <glyph glyph-name="uni02BB" unicode="&#x2bb;" horiz-adv-x="487" 
d="M226 877q-73 8 -105.5 56.5t-32.5 119.5q0 91 34.5 175.5t88.5 153.5t111 113l126 3q-56 -85 -80 -176t-24 -203v-232z" />
    <glyph glyph-name="uni02BC" unicode="&#x2bc;" horiz-adv-x="487" 
d="M38 872q57 85 80.5 176t23.5 203v232l118 10q73 -8 106 -56.5t33 -119.5q0 -91 -35 -175.5t-89 -153.5t-111 -113z" />
    <glyph glyph-name="uni02BE" unicode="&#x2be;" horiz-adv-x="395" 
d="M55 1110v113q55 0 88.5 29.5t33.5 85.5q0 49 -33.5 81.5t-86.5 32.5v113q113 0 183 -63.5t70 -162.5q0 -113 -70 -171t-185 -58z" />
    <glyph glyph-name="uni02BF" unicode="&#x2bf;" horiz-adv-x="395" 
d="M338 1110q-113 0 -183 58t-70 171q0 102 70 164t185 62v-113q-54 0 -88 -32t-34 -82q0 -56 33.5 -85.5t86.5 -29.5v-113z" />
    <glyph glyph-name="circumflex" unicode="&#x2c6;" horiz-adv-x="1200" 
d="M796 1137l-98 130t-99 130q-50 -65 -98 -128l-98 -128h-193q64 101 128 203.5t128 206.5h265q64 -104 128 -206.5t128 -204.5z" />
    <glyph glyph-name="caron" unicode="&#x2c7;" horiz-adv-x="1200" 
d="M467 1131l-128 206t-128 205l191 3l98 -130t99 -131q50 66 98.5 129.5t97.5 127.5h193q-64 -101 -128 -204l-128 -206h-265z" />
    <glyph glyph-name="uni02C8" unicode="&#x2c8;" horiz-adv-x="420" 
d="M109 1036v522h202v-522h-202z" />
    <glyph glyph-name="uni02C9" unicode="&#x2c9;" horiz-adv-x="784" 
d="M60 1212v189h664v-189h-664z" />
    <glyph glyph-name="uni02CA" unicode="&#x2ca;" horiz-adv-x="623" 
d="M30 1139q64 102 128.5 205t127.5 205l268 6q-86 -107 -168.5 -210t-162.5 -203z" />
    <glyph glyph-name="uni02CB" unicode="&#x2cb;" horiz-adv-x="623" 
d="M400 1139q-80 100 -163 202t-168 208l267 6l128 -206t129 -207z" />
    <glyph glyph-name="uni02CC" unicode="&#x2cc;" horiz-adv-x="420" 
d="M109 -384v522h202v-522h-202z" />
    <glyph glyph-name="breve" unicode="&#x2d8;" horiz-adv-x="1200" 
d="M597 1123q-354 0 -354 396l178 8q0 -230 176 -230q178 0 178 222h178q0 -396 -356 -396z" />
    <glyph glyph-name="dotaccent" unicode="&#x2d9;" horiz-adv-x="1200" 
d="M600 1175q-73 0 -117 36.5t-44 116.5q0 73 44 111.5t119 38.5t118.5 -40t43.5 -110q0 -80 -43.5 -116.5t-120.5 -36.5z" />
    <glyph glyph-name="ring" unicode="&#x2da;" horiz-adv-x="1200" 
d="M598 1110q-114 0 -184 58t-70 171q0 102 70.5 164t185.5 62q114 0 184 -63.5t70 -162.5q0 -113 -70.5 -171t-185.5 -58zM598 1223q55 0 88.5 29.5t33.5 85.5q0 49 -33.5 81.5t-86.5 32.5q-55 0 -88.5 -32t-33.5 -82q0 -56 33.5 -85.5t86.5 -29.5z" />
    <glyph glyph-name="ogonek" unicode="&#x2db;" horiz-adv-x="1200" 
d="M478 -429q-131 0 -192 49.5t-61 125.5q0 77 51.5 139.5t137.5 110.5v51l133 13l51 -60q-79 -37 -131 -86.5t-52 -104.5q0 -39 27.5 -58.5t74.5 -19.5q31 0 53.5 4.5t35.5 9.5v-155q-22 -8 -56.5 -13.5t-71.5 -5.5z" />
    <glyph glyph-name="tilde" unicode="&#x2dc;" horiz-adv-x="1200" 
d="M774 1126q-61 0 -107 24.5t-81 56.5q-36 32 -66.5 56t-61.5 24q-50 0 -71.5 -36t-26.5 -90h-138q0 149 57.5 229t154.5 80q60 0 104.5 -24t79.5 -56t65.5 -56t63.5 -24q48 0 68.5 36t24.5 90h138q0 -149 -55.5 -229.5t-148.5 -80.5z" />
    <glyph glyph-name="hungarumlaut" unicode="&#x2dd;" horiz-adv-x="1200" 
d="M664 1139q62 102 125 205t124 205l255 6q-82 -107 -162.5 -210.5t-158.5 -202.5zM269 1139q52 103 103 205q50 102 101 205l242 6q-70 -107 -138 -210.5t-135 -202.5z" />
    <glyph glyph-name="gravecomb" unicode="&#x300;" 
d="M586 1139q-80 100 -163 202t-168 208l267 6l128 -206t129 -207z" />
    <glyph glyph-name="acutecomb" unicode="&#x301;" 
d="M421 1139q64 102 128.5 205t127.5 205l268 6q-86 -107 -168.5 -210t-162.5 -203z" />
    <glyph glyph-name="uni0302" unicode="&#x302;" 
d="M796 1137l-98 130t-99 130q-50 -65 -98 -128l-98 -128h-193q64 101 128 203.5t128 206.5h265q64 -104 128 -206.5t128 -204.5z" />
    <glyph glyph-name="tildecomb" unicode="&#x303;" 
d="M774 1126q-61 0 -107 24.5t-81 56.5q-36 32 -66.5 56t-61.5 24q-50 0 -71.5 -36t-26.5 -90h-138q0 149 57.5 229t154.5 80q60 0 104.5 -24t79.5 -56t65.5 -56t63.5 -24q48 0 68.5 36t24.5 90h138q0 -149 -55.5 -229.5t-148.5 -80.5z" />
    <glyph glyph-name="uni0304" unicode="&#x304;" 
d="M268 1212v189h664v-189h-664z" />
    <glyph glyph-name="uni0306" unicode="&#x306;" 
d="M597 1123q-354 0 -354 396l178 8q0 -230 176 -230q178 0 178 222h178q0 -396 -356 -396z" />
    <glyph glyph-name="uni0307" unicode="&#x307;" 
d="M237 1175q-73 0 -117 36.5t-44 116.5q0 73 44 111.5t119 38.5t118.5 -40t43.5 -110q0 -80 -43.5 -116.5t-120.5 -36.5z" />
    <glyph glyph-name="uni0308" unicode="&#x308;" 
d="M819 1165q-65 0 -102.5 36.5t-37.5 109.5q0 66 38 104.5t104 38.5t103.5 -40t37.5 -103q0 -73 -38 -109.5t-105 -36.5zM375 1165q-65 0 -103 36.5t-38 109.5q0 66 38 104.5t105 38.5q65 0 103 -40t38 -103q0 -73 -38 -109.5t-105 -36.5z" />
    <glyph glyph-name="hookabovecomb" unicode="&#x309;" 
d="M497 1140v107q72 27 124.5 61.5t52.5 79.5q0 37 -29 53t-71 16q-51 0 -101 -14.5t-106 -40.5l-12 154q39 17 107 35t152 18q66 0 126 -17.5t98 -58.5t38 -110q0 -96 -68 -151t-160 -86v-46h-151z" />
    <glyph glyph-name="uni030A" unicode="&#x30a;" 
d="M598 1110q-114 0 -184 58t-70 171q0 102 70.5 164t185.5 62q114 0 184 -63.5t70 -162.5q0 -113 -70.5 -171t-185.5 -58zM598 1223q55 0 88.5 29.5t33.5 85.5q0 49 -33.5 81.5t-86.5 32.5q-55 0 -88.5 -32t-33.5 -82q0 -56 33.5 -85.5t86.5 -29.5z" />
    <glyph glyph-name="uni030B" unicode="&#x30b;" 
d="M664 1139q62 102 125 205t124 205l255 6q-82 -107 -162.5 -210.5t-158.5 -202.5zM269 1139q52 103 103 205q50 102 101 205l242 6q-70 -107 -138 -210.5t-135 -202.5z" />
    <glyph glyph-name="uni030C" unicode="&#x30c;" 
d="M467 1131l-128 206t-128 205l191 3l98 -130t99 -131q50 66 98.5 129.5t97.5 127.5h193q-64 -101 -128 -204l-128 -206h-265z" />
    <glyph glyph-name="uni030F" unicode="&#x30f;" 
d="M354 1139q-77 99 -155.5 201.5t-159.5 208.5l247 6q61 -103 122.5 -206.5t123.5 -206.5zM758 1139q-65 99 -132 202q-68 102 -137 208l238 6q51 -103 101 -206t101 -207z" />
    <glyph glyph-name="uni0311" unicode="&#x311;" 
d="M775 1131q0 230 -176 230q-178 0 -178 -222h-178q0 396 356 396q354 0 354 -396z" />
    <glyph glyph-name="uni0312" unicode="&#x312;" 
d="M585 1175q-69 4 -104 38t-35 87q0 89 54 168t148 129l110 3q-37 -59 -46.5 -118t-9.5 -136v-161z" />
    <glyph glyph-name="uni031B" unicode="&#x31b;" 
d="M460 681l-35 135q100 0 151 23.5t69 65.5t18 97q0 57 -10 113t-23 106l180 10q20 -42 37 -95t17 -134q0 -146 -98.5 -233.5t-305.5 -87.5z" />
    <glyph glyph-name="dotbelowcomb" unicode="&#x323;" 
d="M599 -454q-74 0 -118 36.5t-44 116.5q0 73 44.5 112t119.5 39t118.5 -40.5t43.5 -110.5q0 -80 -44 -116.5t-120 -36.5z" />
    <glyph glyph-name="uni0324" unicode="&#x324;" 
d="M819 -439q-65 0 -102.5 36t-37.5 109q0 66 38 105t104 39t103.5 -40.5t37.5 -103.5q0 -73 -38 -109t-105 -36zM375 -439q-65 0 -103 36t-38 109q0 66 38 105t105 39q65 0 103 -40.5t38 -103.5q0 -73 -38 -109t-105 -36z" />
    <glyph glyph-name="uni0326" unicode="&#x326;" 
d="M436 -575q37 59 46.5 118t9.5 136v161l117 10q69 -4 104 -38t35 -88q0 -88 -54 -167.5t-148 -128.5z" />
    <glyph glyph-name="uni0327" unicode="&#x327;" 
d="M546 -438q-81 0 -132 17v146q12 -5 38 -9t57 -4q60 0 86 19t26 52q0 28 -29.5 52t-117.5 38l74 175h136v-48l-45 -104q103 -18 142.5 -61.5t39.5 -100.5q0 -72 -61.5 -122t-213.5 -50z" />
    <glyph glyph-name="uni0328" unicode="&#x328;" 
d="M478 -429q-131 0 -192 49.5t-61 125.5q0 77 51.5 139.5t137.5 110.5v51l133 13l51 -60q-79 -37 -131 -86.5t-52 -104.5q0 -39 27.5 -58.5t74.5 -19.5q31 0 53.5 4.5t35.5 9.5v-155q-22 -8 -56.5 -13.5t-71.5 -5.5z" />
    <glyph glyph-name="uni032E" unicode="&#x32e;" 
d="M598 -508q-354 0 -354 396l178 8q0 -230 176 -230q178 0 178 222h178q0 -396 -356 -396z" />
    <glyph glyph-name="uni0331" unicode="&#x331;" 
d="M268 -378v189h664v-189h-664z" />
    <glyph glyph-name="uni0374" unicode="&#x374;" horiz-adv-x="518" 
d="M120 715q11 167 18.5 331.5t13.5 327.5l261 6q-28 -164 -55.5 -329.5t-51.5 -333.5z" />
    <glyph glyph-name="uni0375" unicode="&#x375;" horiz-adv-x="508" 
d="M120 -333q11 167 18.5 331.5t13.5 327.5l261 6q-28 -164 -55.5 -329.5t-51.5 -333.5z" />
    <glyph glyph-name="uni037E" unicode="&#x37e;" horiz-adv-x="510" 
d="M254 696q-77 0 -122 47t-45 118t45 116t123 45q79 0 123.5 -45t44.5 -116t-44.5 -118t-124.5 -47zM61 -314q57 85 80.5 176t23.5 203v232l118 10q73 -8 106 -56.5t33 -119.5q0 -91 -35 -175.5t-89 -153.5t-111 -113z" />
    <glyph glyph-name="tonos" unicode="&#x384;" horiz-adv-x="1200" 
d="M430 1139q44 109 89 218l88 216l247 6q-64 -112 -125 -221t-122 -216z" />
    <glyph glyph-name="dieresistonos" unicode="&#x385;" horiz-adv-x="1200" 
d="M467 1139q15 109 31 218l30 216l206 6q-32 -112 -64 -221t-63 -216zM281 1165q-53 0 -87.5 36.5t-34.5 109.5q0 66 34.5 104.5t89.5 38.5q57 0 89 -40t32 -103q0 -146 -123 -146zM872 1165q-57 0 -89.5 36.5t-32.5 109.5q0 66 32.5 104.5t91.5 38.5q54 0 87.5 -40
t33.5 -103q0 -73 -34 -109.5t-89 -36.5z" />
    <glyph glyph-name="Alphatonos" unicode="&#x386;" horiz-adv-x="1418" 
d="M48 0q39 115 82 242t81 241l166 489q45 133 81 240q36 106 73 214h362q37 -112 72.5 -218t80.5 -236l164 -490q40 -119 82 -243q42 -125 80 -239h-289q-24 77 -48 158q-25 81 -49 160h-558q-25 -80 -50 -161t-49 -157h-281zM698 1185l-204 -655h427l-201 655h-22z
M-70 987l58 218t58 216l229 6q-43 -112 -85 -221t-84 -216z" />
    <glyph glyph-name="anoteleia" unicode="&#x387;" horiz-adv-x="510" 
d="M254 695q-77 0 -122 47t-45 118t45 116t123 45q79 0 123.5 -45t44.5 -116t-44.5 -118t-124.5 -47z" />
    <glyph glyph-name="Epsilontonos" unicode="&#x388;" horiz-adv-x="1311" 
d="M275 0v1426h926v-233h-652v-362h618v-221h-618v-377h659v-233h-933zM-191 987l58 218t58 216l229 6q-43 -112 -85 -221t-84 -216z" />
    <glyph glyph-name="Etatonos" unicode="&#x389;" horiz-adv-x="1600" 
d="M255 0v1426h281v-589h628v589h281v-1426h-281v602h-628v-602h-281zM-211 987l58 218t58 216l229 6q-43 -112 -85 -221t-84 -216z" />
    <glyph glyph-name="Iotatonos" unicode="&#x38a;" horiz-adv-x="706" 
d="M260 0v1426h286v-1426h-286zM-205 987l58 218t58 216l229 6q-43 -112 -85 -221t-84 -216z" />
    <glyph glyph-name="Omicrontonos" unicode="&#x38c;" horiz-adv-x="1690" 
d="M882 -25q-190 0 -329 59t-230 162t-135 236t-44 281q0 207 82.5 375t245.5 267t402 99q243 0 405.5 -99.5t244.5 -267.5t82 -373q0 -212 -84 -379t-246 -263.5t-394 -96.5zM877 208q149 0 246 70.5t144.5 186t47.5 249.5q0 142 -51 257t-148.5 182.5t-238.5 67.5
q-146 0 -244.5 -70t-148 -185.5t-49.5 -251.5t48.5 -251t146.5 -185t247 -70zM-194 987l58 218t58 216l229 6q-43 -112 -85 -221t-84 -216z" />
    <glyph glyph-name="Upsilontonos" unicode="&#x38e;" horiz-adv-x="1403" 
d="M594 0v532l-293 538q-48 88 -93 170q-45 81 -102 186h318q43 -88 73.5 -150.5t57.5 -118.5t60 -123l107 -220h25l105 213q35 71 64 129t60 121t74 149h309q-49 -90 -97 -180q-49 -90 -96 -175l-291 -537v-534h-281zM-291 987l58 218t58 216l229 6q-43 -112 -85 -221
t-84 -216z" />
    <glyph glyph-name="Omegatonos" unicode="&#x38f;" horiz-adv-x="1709" 
d="M127 0v235h335v21q-140 85 -213.5 229.5t-73.5 315.5q0 187 85.5 334.5t244.5 232.5t378 85q222 0 381 -86t244 -233.5t85 -332.5q0 -180 -76.5 -321.5t-210.5 -222.5v-22h335v-235h-652v226q143 64 227 195t84 326q0 224 -113.5 349.5t-300.5 125.5q-196 0 -307.5 -128
t-111.5 -347q0 -196 84.5 -326.5t228.5 -194.5v-226h-653zM-175 987l58 218t58 216l229 6q-43 -112 -85 -221t-84 -216z" />
    <glyph glyph-name="iotadieresistonos" unicode="&#x390;" horiz-adv-x="637" 
d="M414 -25q-136 0 -211.5 75.5t-75.5 244.5v701l254 8v-648q0 -81 24.5 -126t90.5 -45q24 0 46.5 6t48.5 23l13 -200q-67 -39 -190 -39zM164 1139q15 109 31 218l30 216l206 6q-32 -112 -64 -221t-63 -216zM-12 1165q-54 0 -88 36.5t-34 109.5q0 66 34.5 104.5t89.5 38.5
q57 0 89 -40t32 -103q0 -146 -123 -146zM549 1165q-57 0 -89.5 36.5t-32.5 109.5q0 66 32.5 104.5t91.5 38.5q54 0 87.5 -40t33.5 -103q0 -73 -34 -109.5t-89 -36.5z" />
    <glyph glyph-name="Alpha" unicode="&#x391;" horiz-adv-x="1418" 
d="M48 0q39 115 82 242t81 241l166 489q45 133 81 240q36 106 73 214h362q37 -112 72.5 -218t80.5 -236l164 -490q40 -119 82 -243q42 -125 80 -239h-289q-24 77 -48 158q-25 81 -49 160h-558q-25 -80 -50 -161t-49 -157h-281zM698 1185l-204 -655h427l-201 655h-22z" />
    <glyph glyph-name="Beta" unicode="&#x392;" horiz-adv-x="1315" 
d="M637 0h-482v1426h559q185 0 293.5 -41t155 -115.5t46.5 -174.5q0 -136 -73.5 -219.5t-183.5 -113.5v-23q81 -17 147 -56.5t104.5 -109t38.5 -176.5q0 -117 -52.5 -206.5t-184 -140t-368.5 -50.5zM693 1206h-264v-382h242q129 0 189 57.5t60 142.5q0 182 -227 182z
M429 221h232q155 0 223.5 52t68.5 148q0 100 -70.5 146t-201.5 46h-252v-392z" />
    <glyph glyph-name="Gamma" unicode="&#x393;" horiz-adv-x="1146" 
d="M155 0v1426h919v-245h-638v-1181h-281z" />
    <glyph glyph-name="uni0394" unicode="&#x394;" horiz-adv-x="1468" 
d="M48 0q41 116 86 243.5t85 243.5l173 487q46 130 84 237.5t75 214.5h371q38 -107 75.5 -213.5t83.5 -237.5l172 -494q41 -117 85 -241t84 -240h-1374zM512 561q-25 -78 -51.5 -160.5t-53.5 -165.5h649q-26 83 -51 165q-26 81 -50 156l-210 622h-22z" />
    <glyph glyph-name="Epsilon" unicode="&#x395;" horiz-adv-x="1191" 
d="M155 0v1426h926v-233h-652v-362h618v-221h-618v-377h659v-233h-933z" />
    <glyph glyph-name="Zeta" unicode="&#x396;" horiz-adv-x="1363" 
d="M85 0v150q52 67 117 151.5t131 170.5t122 159l433 561h-784v234h1160v-191q-86 -110 -168 -215t-164 -211l-448 -575h790v-234h-1189z" />
    <glyph glyph-name="Eta" unicode="&#x397;" horiz-adv-x="1500" 
d="M155 0v1426h281v-589h628v589h281v-1426h-281v602h-628v-602h-281z" />
    <glyph glyph-name="Theta" unicode="&#x398;" horiz-adv-x="1650" 
d="M832 -25q-194 0 -335 59.5t-232.5 162t-136 235.5t-44.5 281q0 207 83 375t248 267t409 99q248 0 413 -99.5t247.5 -267.5t82.5 -373q0 -212 -85 -379t-249 -263.5t-401 -96.5zM827 208q157 0 255.5 69t145 184t46.5 253q0 147 -50 261.5t-149 180.5t-248 66
q-154 0 -253.5 -68.5t-148 -183.5t-48.5 -256q0 -140 47 -255t146.5 -183t256.5 -68zM542 611v213h566v-213h-566z" />
    <glyph glyph-name="Iota" unicode="&#x399;" horiz-adv-x="606" 
d="M160 0v1426h286v-1426h-286z" />
    <glyph glyph-name="Kappa" unicode="&#x39a;" horiz-adv-x="1379" 
d="M155 0v1426h280v-575h66l191 228q67 81 134 161q66 80 153 186h326q-98 -113 -192 -222t-188 -219l-190 -222l212 -271q61 -78 131.5 -168t137.5 -175t117 -149h-340q-76 98 -142 184q-67 86 -131 168l-216 277h-69v-629h-280z" />
    <glyph glyph-name="Lambda" unicode="&#x39b;" horiz-adv-x="1420" 
d="M48 0q38 115 81 242q42 127 80 243l164 488q43 131 79 238t72 215h376q35 -108 71 -213q35 -106 79 -240l163 -492q39 -118 80 -242q41 -125 79 -239h-312q-44 148 -90 303q-46 154 -88 297l-162 541h-22l-164 -540q-43 -141 -92 -300.5t-92 -300.5h-302z" />
    <glyph glyph-name="Mu" unicode="&#x39c;" horiz-adv-x="1923" 
d="M111 0q15 112 29 225t30 244l59 476q17 130 31 244t29 237h283q52 -132 100.5 -253.5t96.5 -241.5l189 -475h19l184 474q47 121 94 241q46 119 98 255h280q15 -121 30 -235q14 -115 30 -247l60 -478q17 -130 31 -240q13 -111 28 -226h-266q-21 163 -38 310
q-18 147 -34 275l-45 368h-19l-143 -396q-52 -145 -104 -288q-53 -143 -98 -269h-187q-46 121 -103 268q-58 147 -113 288l-154 397h-19l-44 -366q-16 -129 -34 -276.5t-37 -310.5h-263z" />
    <glyph glyph-name="Nu" unicode="&#x39d;" horiz-adv-x="1503" 
d="M155 0v1426h246q109 -157 208 -299t197 -283l257 -369h21v951h264v-1426h-243q-91 130 -189 272q-99 141 -217 310l-260 373h-21v-955h-263z" />
    <glyph glyph-name="Xi" unicode="&#x39e;" horiz-adv-x="1323" 
d="M101 1181v245h1121v-245h-1121zM237 602v233h847v-233h-847zM94 0v245h1135v-245h-1135z" />
    <glyph glyph-name="Omicron" unicode="&#x39f;" horiz-adv-x="1630" 
d="M822 -25q-190 0 -329 59t-230 162t-135 236t-44 281q0 207 82.5 375t245.5 267t402 99q243 0 405.5 -99.5t244.5 -267.5t82 -373q0 -212 -84 -379t-246 -263.5t-394 -96.5zM817 208q149 0 246 70.5t144.5 186t47.5 249.5q0 142 -51 257t-148.5 182.5t-238.5 67.5
q-146 0 -244.5 -70t-148 -185.5t-49.5 -251.5t48.5 -251t146.5 -185t247 -70z" />
    <glyph glyph-name="Pi" unicode="&#x3a0;" horiz-adv-x="1493" 
d="M155 0v1426h1183v-1426h-281v1191h-621v-1191h-281z" />
    <glyph glyph-name="Rho" unicode="&#x3a1;" horiz-adv-x="1284" 
d="M155 0v1426h549q254 0 382 -99t128 -337q0 -137 -49.5 -242.5t-162 -165t-301.5 -59.5h-270v-523h-276zM685 1202h-254v-458h209q150 0 219.5 57t69.5 186q0 93 -37.5 139t-94 61t-112.5 15z" />
    <glyph glyph-name="Sigma" unicode="&#x3a3;" horiz-adv-x="1303" 
d="M85 0v185q48 54 108.5 122t123 138t116.5 130l133 150l-147 161q-77 85 -151.5 166.5t-153.5 167.5v206h1078v-235h-706l103 -114q77 -86 156.5 -174.5t154.5 -171.5q-79 -87 -163 -180t-162 -179l-114 -127h754v-245h-1130z" />
    <glyph glyph-name="Tau" unicode="&#x3a4;" horiz-adv-x="1288" 
d="M505 0v1181h-450v245h1178v-245h-449v-1181h-279z" />
    <glyph glyph-name="Upsilon" unicode="&#x3a5;" horiz-adv-x="1343" 
d="M534 0v532l-293 538q-48 88 -93 170q-45 81 -102 186h318q43 -88 73.5 -150.5t57.5 -118.5t60 -123l107 -220h25l105 213q35 71 64 129t60 121t74 149h309q-49 -90 -97 -180q-49 -90 -96 -175l-291 -537v-534h-281z" />
    <glyph glyph-name="Phi" unicode="&#x3a6;" horiz-adv-x="1761" 
d="M741 -35v158q-245 4 -392 81t-213 208.5t-66 298.5q0 176 68.5 309t216.5 208t386 75v158h279v-158q239 -1 387 -76t216.5 -208t68.5 -308q0 -167 -66 -298.5t-213.5 -208.5t-392.5 -81v-158h-279zM357 711q0 -176 89.5 -273.5t302.5 -99.5v750q-211 0 -301.5 -97.5
t-90.5 -279.5zM1404 711q0 182 -90.5 279.5t-301.5 97.5v-750q213 2 302.5 99.5t89.5 273.5z" />
    <glyph glyph-name="Chi" unicode="&#x3a7;" horiz-adv-x="1399" 
d="M61 0q55 98 112 201q57 102 120 213l180 319l-156 261q-61 102 -123 206q-63 104 -136 226h319q50 -88 98 -172.5t91 -160.5l112 -196h22l108 198q41 76 87 160.5t93 170.5h309q-66 -117 -126 -222.5t-111 -194.5l-168 -295l173 -275q73 -115 139 -220q66 -106 137 -219
h-330q-51 86 -96 162t-86 146l-137 233h-23l-128 -234q-41 -74 -81.5 -148t-87.5 -159h-311z" />
    <glyph glyph-name="Psi" unicode="&#x3a8;" horiz-adv-x="1757" 
d="M742 0v305q-239 5 -376 80.5t-194 202t-57 286.5v552h269v-554q0 -105 29.5 -182.5t107 -121t221.5 -48.5v906h274v-906q146 3 223.5 46.5t105.5 121t28 184.5v554h269v-552q0 -161 -59.5 -288t-197 -202t-369.5 -80v-304h-274z" />
    <glyph glyph-name="uni03A9" unicode="&#x3a9;" horiz-adv-x="1649" 
d="M67 0v235h335v21q-140 85 -213.5 229.5t-73.5 315.5q0 187 85.5 334.5t244.5 232.5t378 85q222 0 381 -86t244 -233.5t85 -332.5q0 -180 -76.5 -321.5t-210.5 -222.5v-22h335v-235h-652v226q143 64 227 195t84 326q0 224 -113.5 349.5t-300.5 125.5q-196 0 -307.5 -128
t-111.5 -347q0 -196 84.5 -326.5t228.5 -194.5v-226h-653z" />
    <glyph glyph-name="Iotadieresis" unicode="&#x3aa;" horiz-adv-x="606" 
d="M160 0v1426h286v-1426h-286zM519 1585q-65 0 -102.5 36.5t-37.5 109.5q0 66 38 104.5t104 38.5t103.5 -40t37.5 -103q0 -73 -38 -109.5t-105 -36.5zM75 1585q-65 0 -103 36.5t-38 109.5q0 66 38 104.5t105 38.5q65 0 103 -40t38 -103q0 -73 -38 -109.5t-105 -36.5z" />
    <glyph glyph-name="Upsilondieresis" unicode="&#x3ab;" horiz-adv-x="1343" 
d="M534 0v532l-293 538q-48 88 -93 170q-45 81 -102 186h318q43 -88 73.5 -150.5t57.5 -118.5t60 -123l107 -220h25l105 213q35 71 64 129t60 121t74 149h309q-49 -90 -97 -180q-49 -90 -96 -175l-291 -537v-534h-281zM895 1585q-65 0 -102.5 36.5t-37.5 109.5
q0 66 38 104.5t104 38.5t103.5 -40t37.5 -103q0 -73 -38 -109.5t-105 -36.5zM451 1585q-65 0 -103 36.5t-38 109.5q0 66 38 104.5t105 38.5q65 0 103 -40t38 -103q0 -73 -38 -109.5t-105 -36.5z" />
    <glyph glyph-name="alphatonos" unicode="&#x3ac;" horiz-adv-x="1219" 
d="M490 -25q-137 0 -227.5 74.5t-135.5 194t-45 256.5q0 148 43 266.5t130.5 187t221.5 68.5q122 0 213 -54.5t142 -145.5h21q6 46 9.5 89t6.5 85l234 11q-7 -120 -24.5 -247t-39.5 -239l46 -260q22 -131 45 -261h-242q-9 46 -17.5 92t-16.5 91h-18q-49 -89 -135 -148.5
t-211 -59.5zM561 193q82 0 150 74.5t99 238.5q-45 159 -111 227t-145 68q-113 0 -162.5 -88.5t-49.5 -214.5q0 -78 23 -147.5t71.5 -113.5t124.5 -44zM473 1139q44 109 89 218l88 216l247 6q-64 -112 -125 -221t-122 -216z" />
    <glyph glyph-name="epsilontonos" unicode="&#x3ad;" horiz-adv-x="996" 
d="M531 -21q-172 0 -268.5 39.5t-135.5 104.5t-39 143q0 71 30.5 120.5t74.5 79.5t85 43v21q-65 22 -121.5 76t-56.5 151q0 112 93 187.5t305 75.5q111 0 223 -19.5t174 -47.5l-20 -212q-88 40 -169.5 54.5t-153.5 14.5q-101 0 -148 -27.5t-47 -81.5q0 -50 52 -81.5
t148 -31.5h158v-172h-179q-86 0 -139 -29t-53 -85q0 -52 47.5 -83t172.5 -31q101 0 193 22.5t149 51.5l15 -218q-52 -23 -153 -44t-237 -21zM383 1139q44 109 89 218l88 216l247 6q-64 -112 -125 -221t-122 -216z" />
    <glyph glyph-name="etatonos" unicode="&#x3ae;" horiz-adv-x="1152" 
d="M776 -392v982q0 98 -33 148t-117 50q-77 0 -134 -44.5t-99 -108.5v-635h-254v996l216 13l10 -177h23q50 72 134 131t208 59q300 0 300 -354v-1052zM469 1139q44 109 89 218l88 216l247 6q-64 -112 -125 -221t-122 -216z" />
    <glyph glyph-name="iotatonos" unicode="&#x3af;" horiz-adv-x="637" 
d="M414 -25q-136 0 -211.5 75.5t-75.5 244.5v701l254 8v-648q0 -81 24.5 -126t90.5 -45q24 0 46.5 6t48.5 23l13 -200q-67 -39 -190 -39zM136 1139q44 109 89 218l88 216l247 6q-64 -112 -125 -221t-122 -216z" />
    <glyph glyph-name="upsilondieresistonos" unicode="&#x3b0;" horiz-adv-x="1137" 
d="M576 -25q-218 0 -336 116t-118 318v587l254 8v-556q0 -129 47 -198.5t155 -69.5q85 0 131.5 46.5t65.5 124.5t19 171q0 116 -19.5 244t-48.5 230h256q31 -106 49 -233t18 -257q0 -246 -110.5 -388.5t-362.5 -142.5zM456 1139q15 109 31 218l30 216l206 6
q-32 -112 -64 -221t-63 -216zM270 1165q-53 0 -87.5 36.5t-34.5 109.5q0 66 34.5 104.5t89.5 38.5q57 0 89 -40t32 -103q0 -146 -123 -146zM861 1165q-57 0 -89.5 36.5t-32.5 109.5q0 66 32.5 104.5t91.5 38.5q54 0 87.5 -40t33.5 -103q0 -73 -34 -109.5t-89 -36.5z" />
    <glyph glyph-name="alpha" unicode="&#x3b1;" horiz-adv-x="1219" 
d="M490 -25q-137 0 -227.5 74.5t-135.5 194t-45 256.5q0 148 43 266.5t130.5 187t221.5 68.5q122 0 213 -54.5t142 -145.5h21q6 46 9.5 89t6.5 85l234 11q-7 -120 -24.5 -247t-39.5 -239l46 -260q22 -131 45 -261h-242q-9 46 -17.5 92t-16.5 91h-18q-49 -89 -135 -148.5
t-211 -59.5zM561 193q82 0 150 74.5t99 238.5q-45 159 -111 227t-145 68q-113 0 -162.5 -88.5t-49.5 -214.5q0 -78 23 -147.5t71.5 -113.5t124.5 -44z" />
    <glyph glyph-name="beta" unicode="&#x3b2;" horiz-adv-x="1199" 
d="M142 -392v1389q0 238 126 367t358 129q210 0 325.5 -100t115.5 -265q0 -134 -63.5 -220.5t-160.5 -120.5v-23q56 -12 122 -50.5t112.5 -116.5t46.5 -209q0 -113 -43 -207t-129.5 -150t-216.5 -56q-109 0 -191.5 39t-130.5 102h-17v-500zM640 186q116 0 170 69t54 168
q0 136 -82.5 192t-223.5 56h-62v179h62q137 0 203 64.5t66 171.5q0 103 -57.5 155t-148.5 52q-114 0 -170 -78.5t-56 -223.5v-674q37 -62 98.5 -96.5t146.5 -34.5z" />
    <glyph glyph-name="gamma" unicode="&#x3b3;" horiz-adv-x="1054" 
d="M391 -392v390q-34 94 -68 191q-34 96 -67 188l-63 176q-39 110 -78 222q-40 112 -79 221l274 8q34 -119 74 -260q39 -142 75 -270l61 -219h22q32 84 64 167q31 82 63 166q70 213 75 408h270q-8 -121 -45.5 -245t-86.5 -235q-58 -134 -118.5 -267.5t-118.5 -265.5v-367z
" />
    <glyph glyph-name="delta" unicode="&#x3b4;" horiz-adv-x="1202" 
d="M602 -25q-162 0 -279 66t-180 175.5t-63 242.5q0 124 43.5 214.5t115 152.5t155.5 100q-99 51 -148.5 117t-49.5 156q0 124 103 209t305 85q118 0 231 -24.5t179 -54.5l-20 -216q-89 43 -183 65t-176 22q-87 0 -140 -26t-53 -84q0 -35 32.5 -63t122.5 -67l86 -37
q126 -55 225.5 -128.5t156.5 -173t57 -230.5q0 -142 -63 -255.5t-179.5 -179.5t-277.5 -66zM339 474q0 -76 30.5 -142.5t89 -107t144.5 -40.5q83 0 141 39t87.5 104t29.5 143q0 125 -73.5 201.5t-211.5 133.5q-123 -55 -180 -141.5t-57 -189.5z" />
    <glyph glyph-name="epsilon" unicode="&#x3b5;" horiz-adv-x="996" 
d="M531 -21q-172 0 -268.5 39.5t-135.5 104.5t-39 143q0 71 30.5 120.5t74.5 79.5t85 43v21q-65 22 -121.5 76t-56.5 151q0 112 93 187.5t305 75.5q111 0 223 -19.5t174 -47.5l-20 -212q-88 40 -169.5 54.5t-153.5 14.5q-101 0 -148 -27.5t-47 -81.5q0 -50 52 -81.5
t148 -31.5h158v-172h-179q-86 0 -139 -29t-53 -85q0 -52 47.5 -83t172.5 -31q101 0 193 22.5t149 51.5l15 -218q-52 -23 -153 -44t-237 -21z" />
    <glyph glyph-name="zeta" unicode="&#x3b6;" horiz-adv-x="973" 
d="M582 -390q40 70 63.5 135t23.5 118q0 61 -47 91.5t-150 64.5q-72 24 -141.5 57t-126 84t-89.5 128.5t-33 189.5q0 164 69.5 300t187 256t261.5 236h-474v195h816v-164q-116 -90 -223.5 -181t-192.5 -187.5t-134 -202.5t-49 -226q0 -91 42 -148t114 -93.5t160 -66.5
q102 -35 158 -72.5t78 -85t22 -113.5q0 -86 -32.5 -171t-67.5 -138z" />
    <glyph glyph-name="eta" unicode="&#x3b7;" horiz-adv-x="1152" 
d="M776 -392v982q0 98 -33 148t-117 50q-77 0 -134 -44.5t-99 -108.5v-635h-254v996l216 13l10 -177h23q50 72 134 131t208 59q300 0 300 -354v-1052z" />
    <glyph glyph-name="theta" unicode="&#x3b8;" horiz-adv-x="1201" 
d="M606 -25q-265 0 -391.5 203t-126.5 562q0 378 130.5 565.5t381.5 187.5q256 0 385 -190.5t129 -562.5q0 -377 -130 -571t-378 -194zM603 1285q-120 0 -185.5 -111.5t-70.5 -341.5h507q-5 248 -74 350.5t-177 102.5zM602 183q119 0 182.5 115.5t69.5 335.5h-507
q6 -219 71 -335t184 -116z" />
    <glyph glyph-name="iota" unicode="&#x3b9;" horiz-adv-x="637" 
d="M414 -25q-136 0 -211.5 75.5t-75.5 244.5v701l254 8v-648q0 -81 24.5 -126t90.5 -45q24 0 46.5 6t48.5 23l13 -200q-67 -39 -190 -39z" />
    <glyph glyph-name="kappa" unicode="&#x3ba;" horiz-adv-x="1137" 
d="M139 0v996l254 8v-465l82 75q107 93 182.5 192t119.5 190h283q-57 -99 -146 -222t-239 -254l144 -176q64 -79 137 -168q72 -89 142 -176h-313q-47 63 -92 122q-46 59 -93 121l-125 163l-82 -45v-361h-254z" />
    <glyph glyph-name="lambda" unicode="&#x3bb;" horiz-adv-x="1105" 
d="M42 0q54 135 112 281t113 284q41 104 87 218q45 114 90 227q-48 146 -99 207.5t-137 61.5q-12 0 -31.5 -2.5t-40.5 -8.5l-11 201q30 8 65.5 14t75.5 6q98 0 170 -40t129 -128t110 -234l193 -530q47 -130 81 -224t63 -172q28 -78 58 -161h-282q-31 110 -62.5 220.5
t-63.5 222.5l-81 286h-22l-96 -291q-37 -115 -73 -223t-71 -215h-277z" />
    <glyph glyph-name="uni03BC" unicode="&#x3bc;" horiz-adv-x="1158" 
d="M139 -392v1388l254 8v-602q0 -98 33.5 -148t120.5 -50q73 0 129.5 44.5t98.5 108.5v639h254v-996h-215q-4 41 -7 83q-4 42 -8 83h-23q-42 -72 -115 -131.5t-177 -59.5q-51 0 -91 13v-372z" />
    <glyph glyph-name="nu" unicode="&#x3bd;" horiz-adv-x="1054" 
d="M391 0q-34 94 -68 190t-67 187l-63 177q-39 110 -78 222q-40 111 -79 220l269 8q36 -120 81 -274t87 -293l47 -162h22l123 321q36 105 56.5 202.5t22.5 197.5h270q-9 -127 -47.5 -245.5t-87.5 -229.5q-56 -130 -113.5 -262t-113.5 -259h-261z" />
    <glyph glyph-name="xi" unicode="&#x3be;" horiz-adv-x="980" 
d="M601 -390q40 70 63 135t23 118q0 61 -47 94t-154 62q-75 20 -147 45.5t-129 65.5t-90.5 102t-33.5 156q0 91 37.5 151t92 94.5t102.5 48.5v21q-47 10 -91.5 36.5t-73.5 73t-29 120.5q0 110 89 190.5t280 124.5v22h-377v195h800v-186q-246 -44 -387 -114.5t-141 -191.5
q0 -83 67 -123t167 -40h194v-191h-238q-101 0 -167 -43.5t-66 -132.5q0 -76 38.5 -118.5t113 -70.5t181.5 -58q106 -30 161.5 -68t76 -87.5t20.5 -115.5q0 -86 -33 -171t-68 -138z" />
    <glyph glyph-name="omicron" unicode="&#x3bf;" horiz-adv-x="1195" 
d="M602 -25q-176 0 -292 74t-173 194t-57 259q0 149 60 266.5t175.5 185.5t281.5 68q170 0 285.5 -69t174 -186.5t58.5 -264.5q0 -150 -60.5 -269t-175.5 -188.5t-277 -69.5zM601 185q86 0 142.5 45t84.5 117.5t28 154.5q0 143 -70 226.5t-186 83.5q-127 0 -194 -89.5
t-67 -220.5q0 -82 29 -154.5t87.5 -117.5t145.5 -45z" />
    <glyph glyph-name="pi" unicode="&#x3c0;" horiz-adv-x="1281" 
d="M220 0v796h-167v200h1168v-200h-159v-796h-252v796h-338v-796h-252z" />
    <glyph glyph-name="rho" unicode="&#x3c1;" horiz-adv-x="1177" 
d="M127 -392v926q0 237 127 362.5t354 125.5q161 0 270 -69t164.5 -187t55.5 -266q0 -139 -44.5 -258.5t-135.5 -193t-229 -73.5q-94 0 -167 37t-124 102h-17v-498zM596 194q84 0 137.5 43.5t78.5 114t25 152.5q0 131 -57.5 219t-175.5 88q-107 0 -165 -69.5t-58 -213.5
v-206q33 -59 88 -93.5t127 -34.5z" />
    <glyph glyph-name="sigma1" unicode="&#x3c2;" horiz-adv-x="977" 
d="M551 -390q39 70 62.5 135t23.5 118q0 61 -47.5 87.5t-147.5 66.5q-91 36 -174 93t-135.5 150t-52.5 237q0 150 56.5 268.5t168.5 187t277 68.5q88 0 173 -20t145 -53l-20 -222q-85 48 -150.5 63t-113.5 15q-126 0 -201.5 -81.5t-75.5 -218.5q0 -130 79 -200.5t209 -122.5
q102 -41 158 -76.5t78 -77.5t22 -102q0 -86 -32.5 -171t-67.5 -138z" />
    <glyph glyph-name="sigma" unicode="&#x3c3;" horiz-adv-x="1278" 
d="M602 -25q-175 0 -291 73.5t-173.5 193t-57.5 258.5q0 224 131 360t385 136h627v-200h-274v-19q80 -51 121 -136.5t41 -186.5q0 -135 -60 -243.5t-173.5 -172t-275.5 -63.5zM601 185q86 0 142.5 44.5t84.5 116.5t28 153q0 136 -68 218t-188 82q-127 0 -194 -86t-67 -216
q0 -81 29 -152t87.5 -115.5t145.5 -44.5z" />
    <glyph glyph-name="tau" unicode="&#x3c4;" horiz-adv-x="993" 
d="M635 -25q-168 0 -252.5 80.5t-84.5 254.5v486h-261v200h903v-200h-392v-415q0 -97 38.5 -146.5t127.5 -49.5q39 0 82.5 12t79.5 41l18 -209q-41 -23 -108 -38.5t-151 -15.5z" />
    <glyph glyph-name="upsilon" unicode="&#x3c5;" horiz-adv-x="1137" 
d="M576 -25q-218 0 -336 116t-118 318v587l254 8v-556q0 -129 47 -198.5t155 -69.5q85 0 131.5 46.5t65.5 124.5t19 171q0 116 -19.5 244t-48.5 230h256q31 -106 49 -233t18 -257q0 -246 -110.5 -388.5t-362.5 -142.5z" />
    <glyph glyph-name="phi" unicode="&#x3c6;" horiz-adv-x="1513" 
d="M625 -392v367q-181 1 -301.5 71.5t-180.5 193.5t-60 283q0 120 30.5 247t99.5 234l259 -8q-67 -102 -102 -232t-35 -239q0 -158 67.5 -250.5t223.5 -92.5v489q0 138 47 214t124.5 106t167.5 30q148 0 252.5 -62.5t160 -175.5t55.5 -265q0 -147 -59 -270.5t-181.5 -198
t-314.5 -74.5v-360zM877 635v-453q111 0 176.5 43.5t94.5 119t29 171.5q0 144 -49 222.5t-139 78.5q-59 0 -85.5 -42.5t-26.5 -139.5z" />
    <glyph glyph-name="chi" unicode="&#x3c7;" horiz-adv-x="1102" 
d="M35 -384q45 87 111 214q65 127 144 279l102 199l-106 205q-62 119 -126 242q-64 122 -126 241l274 8q28 -60 65 -138q36 -79 71 -154t58 -124l53 -113h18l61 132q60 129 86.5 222.5t39.5 166.5h273q-19 -99 -63.5 -223.5t-124.5 -260.5l-110 -186l151 -284
q52 -97 91 -170t72 -134q32 -60 65 -122h-287q-40 81 -78 160q-39 80 -80 164l-93 188h-21l-61 -127q-60 -128 -103.5 -222t-76.5 -163h-279z" />
    <glyph glyph-name="psi" unicode="&#x3c8;" horiz-adv-x="1505" 
d="M635 -392v367q-261 2 -387 118t-126 316v587l251 8v-556q0 -127 53.5 -195.5t208.5 -70.5v1244l251 23v-1267q117 2 177 51t81 130t21 182q0 103 -15.5 226t-47.5 225h253q31 -106 46 -228.5t15 -238.5q0 -171 -50.5 -294.5t-167 -190t-312.5 -69.5v-359z" />
    <glyph glyph-name="omega" unicode="&#x3c9;" horiz-adv-x="1551" 
d="M470 -25q-108 0 -196 53.5t-139.5 166.5t-51.5 293q0 135 29.5 271.5t94.5 244.5l252 -8q-58 -102 -91 -242t-33 -274q0 -160 49 -227.5t128 -67.5q80 0 118.5 75.5t38.5 185.5v272h214v-285q0 -102 44 -175t125 -73q72 0 118 69t46 226q0 130 -31 272t-92 244l257 8
q64 -108 91.5 -244.5t27.5 -271.5q0 -180 -51 -293t-137.5 -166.5t-195.5 -53.5q-124 0 -198.5 56.5t-101.5 126.5h-19q-26 -67 -96.5 -125t-199.5 -58z" />
    <glyph glyph-name="iotadieresis" unicode="&#x3ca;" horiz-adv-x="637" 
d="M414 -25q-136 0 -211.5 75.5t-75.5 244.5v701l254 8v-648q0 -81 24.5 -126t90.5 -45q24 0 46.5 6t48.5 23l13 -200q-67 -39 -190 -39zM475 1165q-65 0 -102.5 36.5t-37.5 109.5q0 66 38 104.5t104 38.5t103.5 -40t37.5 -103q0 -73 -38 -109.5t-105 -36.5zM31 1165
q-65 0 -103 36.5t-38 109.5q0 66 38 104.5t105 38.5q65 0 103 -40t38 -103q0 -73 -38 -109.5t-105 -36.5z" />
    <glyph glyph-name="upsilondieresis" unicode="&#x3cb;" horiz-adv-x="1137" 
d="M576 -25q-218 0 -336 116t-118 318v587l254 8v-556q0 -129 47 -198.5t155 -69.5q85 0 131.5 46.5t65.5 124.5t19 171q0 116 -19.5 244t-48.5 230h256q31 -106 49 -233t18 -257q0 -246 -110.5 -388.5t-362.5 -142.5zM783 1165q-65 0 -102.5 36.5t-37.5 109.5
q0 66 38 104.5t104 38.5t103.5 -40t37.5 -103q0 -73 -38 -109.5t-105 -36.5zM339 1165q-65 0 -103 36.5t-38 109.5q0 66 38 104.5t105 38.5q65 0 103 -40t38 -103q0 -73 -38 -109.5t-105 -36.5z" />
    <glyph glyph-name="omicrontonos" unicode="&#x3cc;" horiz-adv-x="1195" 
d="M602 -25q-176 0 -292 74t-173 194t-57 259q0 149 60 266.5t175.5 185.5t281.5 68q170 0 285.5 -69t174 -186.5t58.5 -264.5q0 -150 -60.5 -269t-175.5 -188.5t-277 -69.5zM601 185q86 0 142.5 45t84.5 117.5t28 154.5q0 143 -70 226.5t-186 83.5q-127 0 -194 -89.5
t-67 -220.5q0 -82 29 -154.5t87.5 -117.5t145.5 -45zM479 1139q44 109 89 218l88 216l247 6q-64 -112 -125 -221t-122 -216z" />
    <glyph glyph-name="upsilontonos" unicode="&#x3cd;" horiz-adv-x="1137" 
d="M576 -25q-218 0 -336 116t-118 318v587l254 8v-556q0 -129 47 -198.5t155 -69.5q85 0 131.5 46.5t65.5 124.5t19 171q0 116 -19.5 244t-48.5 230h256q31 -106 49 -233t18 -257q0 -246 -110.5 -388.5t-362.5 -142.5zM444 1139q44 109 89 218l88 216l247 6
q-64 -112 -125 -221t-122 -216z" />
    <glyph glyph-name="omegatonos" unicode="&#x3ce;" horiz-adv-x="1551" 
d="M470 -25q-108 0 -196 53.5t-139.5 166.5t-51.5 293q0 135 29.5 271.5t94.5 244.5l252 -8q-58 -102 -91 -242t-33 -274q0 -160 49 -227.5t128 -67.5q80 0 118.5 75.5t38.5 185.5v272h214v-285q0 -102 44 -175t125 -73q72 0 118 69t46 226q0 130 -31 272t-92 244l257 8
q64 -108 91.5 -244.5t27.5 -271.5q0 -180 -51 -293t-137.5 -166.5t-195.5 -53.5q-124 0 -198.5 56.5t-101.5 126.5h-19q-26 -67 -96.5 -125t-199.5 -58zM658 1139q44 109 89 218l88 216l247 6q-64 -112 -125 -221t-122 -216z" />
    <glyph glyph-name="uni03D7" unicode="&#x3d7;" horiz-adv-x="1157" 
d="M692 -338q49 93 90.5 223t41.5 259q0 132 -61 206.5t-175 74.5q-51 0 -102 -13.5t-93 -43.5v-368h-254v996l254 8v-471q4 2 8 3l74 70q107 94 182.5 195t119.5 195h283q-51 -89 -128 -198t-200 -226q162 -15 256.5 -113.5t94.5 -284.5q0 -93 -23 -187t-57.5 -176
t-68.5 -141z" />
    <glyph glyph-name="uni0400" unicode="&#x400;" horiz-adv-x="1191" 
d="M155 0v1426h926v-233h-652v-362h618v-221h-618v-377h659v-233h-933zM609 1559q-81 91 -163 184q-82 92 -168 189l267 5q64 -94 128 -187.5t129 -187.5z" />
    <glyph glyph-name="uni0401" unicode="&#x401;" horiz-adv-x="1191" 
d="M155 0v1426h926v-233h-652v-362h618v-221h-618v-377h659v-233h-933zM844 1585q-65 0 -102.5 36.5t-37.5 109.5q0 66 38 104.5t104 38.5t103.5 -40t37.5 -103q0 -73 -38 -109.5t-105 -36.5zM400 1585q-65 0 -103 36.5t-38 109.5q0 66 38 104.5t105 38.5q65 0 103 -40
t38 -103q0 -73 -38 -109.5t-105 -36.5z" />
    <glyph glyph-name="uni0402" unicode="&#x402;" horiz-adv-x="1675" 
d="M1097 -305q110 160 173.5 317.5t63.5 322.5q0 162 -76 243t-213 81q-84 0 -156 -18.5t-128 -48.5v-592h-279v1181h-427v245h1250v-235h-544v-387q70 30 159.5 54t206.5 24q144 0 256 -57t176 -172t64 -287q0 -131 -35.5 -256t-92 -231.5t-120.5 -183.5h-278z" />
    <glyph glyph-name="uni0403" unicode="&#x403;" horiz-adv-x="1146" 
d="M155 0v1426h919v-245h-638v-1181h-281zM433 1559q65 93 129 187q63 93 127 186l268 5q-85 -97 -168 -191t-163 -184z" />
    <glyph glyph-name="uni0404" unicode="&#x404;" horiz-adv-x="1376" 
d="M829 -25q-230 0 -397 94t-257.5 260t-90.5 384q0 215 87.5 382.5t248.5 263t383 95.5q145 0 272.5 -34.5t207.5 -76.5l-22 -257q-116 68 -223 98.5t-210 30.5q-118 0 -215.5 -44t-161.5 -130.5t-81 -213.5h654v-220h-655q22 -174 144.5 -287t348.5 -113q103 0 203 27
t193 95l17 -257q-85 -50 -203 -73.5t-243 -23.5z" />
    <glyph glyph-name="uni0405" unicode="&#x405;" horiz-adv-x="1191" 
d="M595 -25q-89 0 -181.5 15.5t-172 39t-128.5 47.5l21 254q103 -58 217.5 -91.5t223.5 -33.5q113 0 184.5 43t71.5 137t-86 142.5t-237 93.5q-132 40 -225.5 90t-143 128.5t-49.5 201.5q0 181 122.5 296.5t368.5 115.5q131 0 258 -32t202 -71l-23 -254q-93 61 -198.5 92.5
t-189.5 31.5q-101 0 -173 -41.5t-72 -127.5q0 -82 69 -127t219 -91q171 -52 269.5 -108t140.5 -132.5t42 -192.5q0 -189 -126.5 -307.5t-403.5 -118.5z" />
    <glyph glyph-name="uni0406" unicode="&#x406;" horiz-adv-x="606" 
d="M160 0v1426h286v-1426h-286z" />
    <glyph glyph-name="uni0407" unicode="&#x407;" horiz-adv-x="606" 
d="M160 0v1426h286v-1426h-286zM519 1585q-65 0 -102.5 36.5t-37.5 109.5q0 66 38 104.5t104 38.5t103.5 -40t37.5 -103q0 -73 -38 -109.5t-105 -36.5zM75 1585q-65 0 -103 36.5t-38 109.5q0 66 38 104.5t105 38.5q65 0 103 -40t38 -103q0 -73 -38 -109.5t-105 -36.5z" />
    <glyph glyph-name="uni0408" unicode="&#x408;" horiz-adv-x="850" 
d="M676 1426v-1063q0 -147 -54.5 -231.5t-150 -120.5t-205.5 -36q-67 0 -125 9.5t-100 25.5l21 216q65 -25 98.5 -32t67.5 -7q162 0 162 182v1057h286z" />
    <glyph glyph-name="uni0409" unicode="&#x409;" horiz-adv-x="2195" 
d="M179 -21q-46 0 -86 5.5t-68 11.5l13 236q39 -8 68 -8q119 0 162 153.5t61 479.5q9 140 17 284q7 143 15 285h979v-516h274q255 0 382 -100t127 -342q0 -138 -49.5 -243.5t-164 -165t-307.5 -59.5h-537v1191h-455q-7 -107 -14.5 -216t-15.5 -224q-13 -193 -30.5 -338
t-56.5 -241.5t-113.5 -144.5t-200.5 -48zM1340 222h210q150 0 219.5 57.5t69.5 186.5q0 94 -37.5 141t-93.5 63t-113 16h-255v-464z" />
    <glyph glyph-name="uni040A" unicode="&#x40a;" horiz-adv-x="2168" 
d="M155 0v1426h280v-589h599v589h279v-516h274q255 0 382 -100t127 -342q0 -138 -49.5 -243.5t-164 -165t-307.5 -59.5h-541v602h-599v-602h-280zM1313 222h210q150 0 219.5 57.5t69.5 186.5q0 94 -37.5 141t-93.5 63t-113 16h-255v-464z" />
    <glyph glyph-name="uni040B" unicode="&#x40b;" horiz-adv-x="1700" 
d="M482 0v1181h-427v245h1250v-235h-544v-387q70 29 154 53.5t206 24.5q219 0 346 -109.5t127 -317.5v-455h-281v412q0 118 -64 182.5t-210 64.5q-88 0 -155 -18.5t-123 -48.5v-592h-279z" />
    <glyph glyph-name="uni040C" unicode="&#x40c;" horiz-adv-x="1379" 
d="M155 0v1426h280v-575h66l191 228q67 81 134 161q66 80 153 186h326q-98 -113 -192 -222t-188 -219l-190 -222l212 -271q61 -78 131.5 -168t137.5 -175t117 -149h-340q-76 98 -142 184q-67 86 -131 168l-216 277h-69v-629h-280zM524 1559q65 93 129 187q63 93 127 186
l268 5q-85 -97 -168 -191t-163 -184z" />
    <glyph glyph-name="uni040D" unicode="&#x40d;" horiz-adv-x="1503" 
d="M155 0v1426h274v-958h20l257 373q97 139 196.5 283.5t207.5 301.5h238v-1426h-274v959h-19l-259 -373q-118 -170 -216.5 -312t-188.5 -274h-236zM733 1559q-81 91 -163 184q-82 92 -168 189l267 5q64 -94 128 -187.5t129 -187.5z" />
    <glyph glyph-name="uni040E" unicode="&#x40e;" horiz-adv-x="1382" 
d="M374 0q42 91 86 186t93 200l-310 630q-51 103 -97 196.5t-105 213.5h315q47 -109 82 -189q34 -80 65 -152t69 -158l119 -273h22l113 269q37 89 68 163q30 73 64 153q33 79 78 187h302q-60 -130 -125 -269.5t-120 -256.5l-210 -450q-48 -104 -104 -223.5t-106 -226.5h-299
zM690 1553q-191 0 -282 92t-92 258l205 8q0 -96 38.5 -150.5t130.5 -54.5t131 53.5t39 143.5h205q-1 -166 -91 -258t-284 -92z" />
    <glyph glyph-name="uni040F" unicode="&#x40f;" horiz-adv-x="1494" 
d="M155 0v1426h281v-1191h622v1191h281v-1426h-466q-2 -76 -3 -153l-4 -152h-233q-2 76 -3 152q-2 76 -4 153h-471z" />
    <glyph glyph-name="uni0410" unicode="&#x410;" horiz-adv-x="1418" 
d="M48 0q39 115 82 242t81 241l166 489q45 133 81 240q36 106 73 214h362q37 -112 72.5 -218t80.5 -236l164 -490q40 -119 82 -243q42 -125 80 -239h-289q-24 77 -48 158q-25 81 -49 160h-558q-25 -80 -50 -161t-49 -157h-281zM698 1185l-204 -655h427l-201 655h-22z" />
    <glyph glyph-name="uni0411" unicode="&#x411;" horiz-adv-x="1285" 
d="M692 0h-537v1426h971v-243h-695v-315h273q255 0 382.5 -98t127.5 -337q0 -128 -50 -225.5t-164 -152.5t-308 -55zM431 222h210q135 0 211.5 48.5t76.5 179.5q0 90 -40.5 133.5t-97.5 56.5t-105 13h-255v-431z" />
    <glyph glyph-name="uni0412" unicode="&#x412;" horiz-adv-x="1315" 
d="M637 0h-482v1426h559q185 0 293.5 -41t155 -115.5t46.5 -174.5q0 -136 -73.5 -219.5t-183.5 -113.5v-23q81 -17 147 -56.5t104.5 -109t38.5 -176.5q0 -117 -52.5 -206.5t-184 -140t-368.5 -50.5zM693 1206h-264v-382h242q129 0 189 57.5t60 142.5q0 182 -227 182z
M429 221h232q155 0 223.5 52t68.5 148q0 100 -70.5 146t-201.5 46h-252v-392z" />
    <glyph glyph-name="uni0413" unicode="&#x413;" horiz-adv-x="1146" 
d="M155 0v1426h919v-245h-638v-1181h-281z" />
    <glyph glyph-name="uni0414" unicode="&#x414;" horiz-adv-x="1598" 
d="M24 -305v540h121q52 52 93.5 136.5t69.5 214t39 317.5q8 137 17 270q8 132 15 253h992v-1191h183v-540h-235l-14 305h-1032l-13 -305h-236zM599 846q-14 -222 -49.5 -362.5t-115.5 -248.5h657v956h-471l-10 -172q-6 -87 -11 -173z" />
    <glyph glyph-name="uni0415" unicode="&#x415;" horiz-adv-x="1191" 
d="M155 0v1426h926v-233h-652v-362h618v-221h-618v-377h659v-233h-933z" />
    <glyph glyph-name="uni0416" unicode="&#x416;" horiz-adv-x="2104" 
d="M46 0q47 64 110 150q63 85 129 175t124 168l191 260l-181 232q-85 109 -170.5 218.5t-174.5 222.5h326q79 -105 139 -186t121 -161l173 -228h82v575h274v-575h80l176 228q62 81 123 162q61 80 141 185h321q-91 -113 -179 -222q-88 -110 -176 -219l-178 -222l200 -272
q56 -77 122 -166q66 -90 129 -175.5t110 -149.5h-336q-70 98 -131 184t-119 168l-199 277h-84v-629h-274v629h-84l-197 -272q-62 -86 -124.5 -172.5t-133.5 -184.5h-330z" />
    <glyph glyph-name="uni0417" unicode="&#x417;" horiz-adv-x="1169" 
d="M568 -25q-89 0 -179.5 15t-167 38.5t-124.5 49.5l18 245q102 -55 208.5 -86t207.5 -31q154 0 216 61t62 151q0 107 -77 151.5t-226 44.5h-168v211h145q155 0 224 62.5t69 143.5q0 100 -76 145.5t-184 45.5q-88 0 -186 -32t-207 -109l-34 251q81 49 200 85.5t261 36.5
q248 0 380.5 -98t132.5 -261q0 -136 -74.5 -219t-185.5 -113v-22q78 -16 145.5 -54t108.5 -109t41 -185q0 -112 -50 -207t-166.5 -153t-313.5 -58z" />
    <glyph glyph-name="uni0418" unicode="&#x418;" horiz-adv-x="1503" 
d="M155 0v1426h274v-958h20l257 373q97 139 196.5 283.5t207.5 301.5h238v-1426h-274v959h-19l-259 -373q-118 -170 -216.5 -312t-188.5 -274h-236z" />
    <glyph glyph-name="uni0419" unicode="&#x419;" horiz-adv-x="1503" 
d="M155 0v1426h274v-958h20l257 373q97 139 196.5 283.5t207.5 301.5h238v-1426h-274v959h-19l-259 -373q-118 -170 -216.5 -312t-188.5 -274h-236zM746 1552q-202 0 -302 95t-101 256l204 8q0 -95 50 -149.5t149 -54.5q102 0 151 53.5t49 142.5h204q-1 -161 -99 -256
t-305 -95z" />
    <glyph glyph-name="uni041A" unicode="&#x41a;" horiz-adv-x="1379" 
d="M155 0v1426h280v-575h66l191 228q67 81 134 161q66 80 153 186h326q-98 -113 -192 -222t-188 -219l-190 -222l212 -271q61 -78 131.5 -168t137.5 -175t117 -149h-340q-76 98 -142 184q-67 86 -131 168l-216 277h-69v-629h-280z" />
    <glyph glyph-name="uni041B" unicode="&#x41b;" horiz-adv-x="1512" 
d="M179 -21q-46 0 -85.5 5.5t-68.5 12.5l13 235q41 -8 68 -8q119 0 162 153.5t61 479.5q8 139 16 283t16 286h995v-1426h-280v1191h-466q-7 -107 -14.5 -216t-15.5 -224q-13 -193 -30.5 -338t-56.5 -241.5t-113.5 -144.5t-200.5 -48z" />
    <glyph glyph-name="uni041C" unicode="&#x41c;" horiz-adv-x="1923" 
d="M111 0q15 112 29 225t30 244l59 476q17 130 31 244t29 237h283q52 -132 100.5 -253.5t96.5 -241.5l189 -475h19l184 474q47 121 94 241q46 119 98 255h280q15 -121 30 -235q14 -115 30 -247l60 -478q17 -130 31 -240q13 -111 28 -226h-266q-21 163 -38 310
q-18 147 -34 275l-45 368h-19l-143 -396q-52 -145 -104 -288q-53 -143 -98 -269h-187q-46 121 -103 268q-58 147 -113 288l-154 397h-19l-44 -366q-16 -129 -34 -276.5t-37 -310.5h-263z" />
    <glyph glyph-name="uni041D" unicode="&#x41d;" horiz-adv-x="1500" 
d="M155 0v1426h281v-589h628v589h281v-1426h-281v602h-628v-602h-281z" />
    <glyph glyph-name="uni041E" unicode="&#x41e;" horiz-adv-x="1630" 
d="M822 -25q-190 0 -329 59t-230 162t-135 236t-44 281q0 207 82.5 375t245.5 267t402 99q243 0 405.5 -99.5t244.5 -267.5t82 -373q0 -212 -84 -379t-246 -263.5t-394 -96.5zM817 208q149 0 246 70.5t144.5 186t47.5 249.5q0 142 -51 257t-148.5 182.5t-238.5 67.5
q-146 0 -244.5 -70t-148 -185.5t-49.5 -251.5t48.5 -251t146.5 -185t247 -70z" />
    <glyph glyph-name="uni041F" unicode="&#x41f;" horiz-adv-x="1493" 
d="M155 0v1426h1183v-1426h-281v1191h-621v-1191h-281z" />
    <glyph glyph-name="uni0420" unicode="&#x420;" horiz-adv-x="1284" 
d="M155 0v1426h549q254 0 382 -99t128 -337q0 -137 -49.5 -242.5t-162 -165t-301.5 -59.5h-270v-523h-276zM685 1202h-254v-458h209q150 0 219.5 57t69.5 186q0 93 -37.5 139t-94 61t-112.5 15z" />
    <glyph glyph-name="uni0421" unicode="&#x421;" horiz-adv-x="1368" 
d="M829 -25q-230 0 -397 94t-257.5 260t-90.5 384q0 215 87 382.5t248.5 263t383.5 95.5q139 0 265.5 -34.5t206.5 -76.5l-22 -262q-116 71 -221.5 102t-199.5 31q-132 0 -235.5 -59t-162.5 -171t-59 -271q0 -138 54 -252.5t162.5 -183.5t271.5 -69q96 0 194.5 27t192.5 96
l17 -259q-85 -50 -202 -73.5t-236 -23.5z" />
    <glyph glyph-name="uni0422" unicode="&#x422;" horiz-adv-x="1288" 
d="M505 0v1181h-450v245h1178v-245h-449v-1181h-279z" />
    <glyph glyph-name="uni0423" unicode="&#x423;" horiz-adv-x="1382" 
d="M374 0q42 91 86 186t93 200l-310 630q-51 103 -97 196.5t-105 213.5h315q47 -109 82 -189q34 -80 65 -152t69 -158l119 -273h22l113 269q37 89 68 163q30 73 64 153q33 79 78 187h302q-60 -130 -125 -269.5t-120 -256.5l-210 -450q-48 -104 -104 -223.5t-106 -226.5h-299
z" />
    <glyph glyph-name="uni0424" unicode="&#x424;" horiz-adv-x="1761" 
d="M741 -35v158q-245 4 -392 81t-213 208.5t-66 298.5q0 176 68.5 309t216.5 208t386 75v158h279v-158q239 -1 387 -76t216.5 -208t68.5 -308q0 -167 -66 -298.5t-213.5 -208.5t-392.5 -81v-158h-279zM357 711q0 -176 89.5 -273.5t302.5 -99.5v750q-211 0 -301.5 -97.5
t-90.5 -279.5zM1404 711q0 182 -90.5 279.5t-301.5 97.5v-750q213 2 302.5 99.5t89.5 273.5z" />
    <glyph glyph-name="uni0425" unicode="&#x425;" horiz-adv-x="1399" 
d="M61 0q55 98 112 201q57 102 120 213l180 319l-156 261q-61 102 -123 206q-63 104 -136 226h319q50 -88 98 -172.5t91 -160.5l112 -196h22l108 198q41 76 87 160.5t93 170.5h309q-66 -117 -126 -222.5t-111 -194.5l-168 -295l173 -275q73 -115 139 -220q66 -106 137 -219
h-330q-51 86 -96 162t-86 146l-137 233h-23l-128 -234q-41 -74 -81.5 -148t-87.5 -159h-311z" />
    <glyph glyph-name="uni0426" unicode="&#x426;" horiz-adv-x="1548" 
d="M1269 -305l-13 305h-1101v1426h281v-1191h605v1191h281v-1191h183v-540h-236z" />
    <glyph glyph-name="uni0427" unicode="&#x427;" horiz-adv-x="1378" 
d="M942 0v556q-70 -30 -159 -52t-210 -22q-224 0 -351 108.5t-127 323.5v512h280v-479q0 -114 65.5 -178t218.5 -64q88 0 157.5 19t125.5 48v654h280v-1426h-280z" />
    <glyph glyph-name="uni0428" unicode="&#x428;" horiz-adv-x="2109" 
d="M155 0v1426h281v-1191h482v1191h274v-1191h482v1191h280v-1426h-1799z" />
    <glyph glyph-name="uni0429" unicode="&#x429;" horiz-adv-x="2181" 
d="M1902 -305l-14 305h-1733v1426h281v-1191h482v1191h274v-1191h482v1191h280v-1191h184v-540h-236z" />
    <glyph glyph-name="uni042A" unicode="&#x42a;" horiz-adv-x="1612" 
d="M1019 0h-537v1181h-427v245h702v-516h274q255 0 382.5 -100t127.5 -342q0 -138 -50 -243.5t-164 -165t-308 -59.5zM757 222h210q150 0 219.5 57.5t69.5 186.5q0 94 -37 141t-93.5 63t-113.5 16h-255v-464z" />
    <glyph glyph-name="uni042B" unicode="&#x42b;" horiz-adv-x="1860" 
d="M692 0h-537v1426h276v-516h273q255 0 382.5 -100t127.5 -342q0 -138 -50 -243.5t-164 -165t-308 -59.5zM431 222h210q150 0 219 57.5t69 186.5q0 94 -37 141t-93.5 63t-112.5 16h-255v-464zM1419 0v1426h286v-1426h-286z" />
    <glyph glyph-name="uni042C" unicode="&#x42c;" horiz-adv-x="1285" 
d="M692 0h-537v1426h276v-516h273q255 0 382.5 -100t127.5 -342q0 -138 -50 -243.5t-164 -165t-308 -59.5zM431 222h210q150 0 219 57.5t69 186.5q0 94 -37 141t-93.5 63t-112.5 16h-255v-464z" />
    <glyph glyph-name="uni042D" unicode="&#x42d;" horiz-adv-x="1375" 
d="M547 -25q-125 0 -243 23.5t-204 73.5l17 257q94 -68 193.5 -95t202.5 -27q244 0 361 111.5t134 288.5h-657v220h656q-20 190 -145.5 289t-309.5 99q-103 0 -212 -31t-226 -99l-22 258q80 42 210 76.5t275 34.5q225 0 385 -95.5t245 -263t85 -382.5q0 -218 -86.5 -384
t-252.5 -260t-406 -94z" />
    <glyph glyph-name="uni042E" unicode="&#x42e;" horiz-adv-x="2194" 
d="M155 0v1426h281v-589h235q22 177 108.5 316.5t237.5 220t366 80.5q240 0 402 -99.5t243.5 -267.5t81.5 -373q0 -212 -84 -379t-245 -263.5t-390 -96.5t-382 85t-236.5 227t-103.5 315h-233v-602h-281zM1386 208q146 0 242 70.5t143.5 186t47.5 249.5q0 142 -51 257
t-147.5 182.5t-234.5 67.5q-146 0 -243 -70t-145 -185.5t-48 -251.5t46.5 -251t143 -185t246.5 -70z" />
    <glyph glyph-name="uni042F" unicode="&#x42f;" horiz-adv-x="1363" 
d="M45 0q39 55 90 127q50 71 103 145.5t100 140.5l134 189q-174 39 -248 153t-74 265q0 227 133.5 316.5t389.5 89.5h534v-1426h-275v532h-210l-145 -213q-53 -75 -107 -154q-54 -80 -112 -165h-313zM726 749h206v453h-250q-57 0 -113 -14t-93 -59t-37 -139
q0 -134 72.5 -187.5t214.5 -53.5z" />
    <glyph glyph-name="uni0430" unicode="&#x430;" horiz-adv-x="1041" 
d="M376 -23q-126 0 -209.5 78t-83.5 219q0 112 49.5 177.5t124.5 98t153 44.5l285 42q4 105 -56 140t-156 35q-69 0 -156.5 -22t-186.5 -67l-12 221q73 29 185 53.5t237 24.5q183 0 285 -82t102 -268v-671h-225l-15 130h-21q-41 -55 -116 -104t-184 -49zM468 176
q63 0 122.5 43.5t97.5 118.5v157q-20 -14 -61.5 -24.5t-154.5 -31.5q-134 -24 -134 -145q0 -65 39.5 -91.5t90.5 -26.5z" />
    <glyph glyph-name="uni0431" unicode="&#x431;" horiz-adv-x="1208" 
d="M624 -25q-245 0 -389.5 166t-144.5 526q0 235 53.5 401.5t176 261.5t329.5 114q23 3 72.5 7.5t111.5 10.5q61 5 122 11q60 6 105 10l19 -235q-45 -4 -107 -9q-63 -5 -125 -10q-63 -6 -111.5 -10t-65.5 -5q-174 -17 -253.5 -111.5t-95.5 -295.5h19q71 87 173 126.5
t209 39.5q136 0 226 -60.5t134.5 -167t44.5 -243.5q0 -154 -59.5 -273t-172 -186.5t-271.5 -67.5zM633 780q-60 0 -133.5 -34t-139.5 -112q3 -207 71 -328t192 -121q123 0 183 90.5t60 218.5q0 120 -54.5 203t-178.5 83z" />
    <glyph glyph-name="uni0432" unicode="&#x432;" horiz-adv-x="1083" 
d="M129 0v996h508q194 0 270.5 -64.5t76.5 -169.5q0 -94 -48 -150t-115 -75v-17q46 -12 89 -38t70.5 -75t27.5 -129q0 -82 -37 -145t-128.5 -98t-255.5 -35h-458zM576 806h-200v-219h179q93 0 132 30.5t39 83.5q0 105 -150 105zM376 191h182q107 0 151 28t44 87
q0 116 -181 116h-196v-231z" />
    <glyph glyph-name="uni0433" unicode="&#x433;" horiz-adv-x="881" 
d="M129 0v996h708v-201h-454v-795h-254z" />
    <glyph glyph-name="uni0434" unicode="&#x434;" horiz-adv-x="1211" 
d="M18 -271v471h103q37 38 73.5 131t47.5 276q7 114 12.5 206t10.5 183h765v-796h150v-471h-219l-9 271h-706l-9 -271h-219zM465 567q-5 -109 -26.5 -202.5t-60.5 -164.5h402v596h-304q-3 -53 -5 -109q-3 -56 -6 -120z" />
    <glyph glyph-name="uni0435" unicode="&#x435;" horiz-adv-x="1054" 
d="M622 -25q-188 0 -308 68t-177 187t-57 272q0 152 54.5 269.5t160.5 183.5t260 66q199 0 311.5 -109t112.5 -327q0 -76 -8 -131h-636q11 -126 88.5 -196.5t227.5 -70.5q63 0 147 17.5t155 54.5l8 -218q-57 -28 -143.5 -47t-195.5 -19zM557 834q-83 0 -141.5 -59.5
t-75.5 -159.5l414 8q-7 99 -61 155t-136 56z" />
    <glyph glyph-name="uni0436" unicode="&#x436;" horiz-adv-x="1660" 
d="M27 0q71 90 142.5 180t142.5 179l120 158l-99 124q-72 89 -142 177t-142 178l290 8q50 -69 99 -136q49 -68 99 -137l106 -146h64v411h246v-411h64l103 145q47 66 95 133t94 133h297q-71 -90 -140 -178q-70 -88 -139 -176l-101 -128l118 -154q72 -89 144.5 -179.5
t144.5 -180.5h-313q-49 66 -96 128.5t-96 126.5l-118 158h-57v-413h-246v413h-61l-119 -159q-47 -64 -94 -127t-94 -127h-312z" />
    <glyph glyph-name="uni0437" unicode="&#x437;" horiz-adv-x="974" 
d="M454 -21q-135 0 -230.5 22t-147.5 47l16 215q57 -31 145.5 -53t188.5 -22q121 0 169 33.5t48 79.5q0 55 -53.5 85t-139.5 30h-197v172h180q92 0 138.5 32.5t46.5 85.5q0 51 -50.5 77.5t-142.5 26.5q-73 0 -149.5 -15.5t-165.5 -56.5l-20 213q63 28 167.5 48.5t215.5 20.5
q209 0 305 -72.5t96 -184.5q0 -97 -50 -152t-115 -76v-21q45 -12 88.5 -39t72.5 -75.5t29 -122.5q0 -82 -40 -149.5t-137 -108t-268 -40.5z" />
    <glyph glyph-name="uni0438" unicode="&#x438;" horiz-adv-x="1160" 
d="M129 0v996l245 7v-656h16l165 283q55 92 108.5 184t105.5 182h261v-996h-243v650h-18l-162 -279q-54 -94 -108 -187q-55 -93 -108 -184h-262z" />
    <glyph glyph-name="uni0439" unicode="&#x439;" horiz-adv-x="1160" 
d="M129 0v996l245 7v-656h16l165 283q55 92 108.5 184t105.5 182h261v-996h-243v650h-18l-162 -279q-54 -94 -108 -187q-55 -93 -108 -184h-262zM579 1123q-191 0 -282 92t-92 258l205 8q0 -96 38.5 -150.5t130.5 -54.5t131 53.5t39 143.5h205q-1 -166 -91 -258t-284 -92z
" />
    <glyph glyph-name="uni043A" unicode="&#x43a;" horiz-adv-x="1117" 
d="M129 0v996l254 8v-419h57l114 145q52 66 105 133t105 133h299q-76 -90 -152 -178q-76 -89 -151 -177l-108 -126l128 -155q78 -90 156 -180.5t154 -179.5h-316q-52 64 -104.5 127.5t-104.5 125.5l-132 160h-50v-413h-254z" />
    <glyph glyph-name="uni043B" unicode="&#x43b;" horiz-adv-x="1179" 
d="M159 -21q-32 0 -71 4.5t-66 12.5l11 212q17 -3 32 -4.5t24 -1.5q48 0 77.5 37t46 98.5t24.5 136t12 149.5q6 96 13 191q6 94 12 182h775v-996h-254v795h-307q-5 -68 -10 -135q-5 -68 -9 -130q-9 -118 -23.5 -218.5t-45.5 -175t-88.5 -116t-152.5 -41.5z" />
    <glyph glyph-name="uni043C" unicode="&#x43c;" horiz-adv-x="1463" 
d="M73 0q12 108 23 214q11 105 23 210l14 136q12 108 24 218q11 110 23 218h279l68 -168q33 -84 67 -167l130 -326h20l128 326q34 84 67 168t66 167h273q12 -106 25 -218q12 -112 24 -219l16 -139q11 -100 23 -206t24 -214h-239q-10 101 -20.5 203t-21.5 202l-27 257h-19
l-99 -273l-70 -194t-70 -195h-180q-37 98 -73 194q-37 96 -73 191l-105 277h-19l-27 -252q-11 -103 -22 -205.5t-22 -204.5h-230z" />
    <glyph glyph-name="uni043D" unicode="&#x43d;" horiz-adv-x="1151" 
d="M129 0v996l251 8v-404h390v396h251v-996h-251v401h-390v-401h-251z" />
    <glyph glyph-name="uni043E" unicode="&#x43e;" horiz-adv-x="1195" 
d="M602 -25q-176 0 -292 74t-173 194t-57 259q0 149 60 266.5t175.5 185.5t281.5 68q170 0 285.5 -69t174 -186.5t58.5 -264.5q0 -150 -60.5 -269t-175.5 -188.5t-277 -69.5zM601 185q86 0 142.5 45t84.5 117.5t28 154.5q0 143 -70 226.5t-186 83.5q-127 0 -194 -89.5
t-67 -220.5q0 -82 29 -154.5t87.5 -117.5t145.5 -45z" />
    <glyph glyph-name="uni043F" unicode="&#x43f;" horiz-adv-x="1153" 
d="M129 0v996h894v-996h-254v795h-386v-795h-254z" />
    <glyph glyph-name="uni0440" unicode="&#x440;" horiz-adv-x="1174" 
d="M129 -392v1388l227 13l7 -134h22q44 66 119.5 106.5t176.5 40.5q133 0 225 -69t139 -187t47 -266q0 -139 -44.5 -258.5t-135 -193t-228.5 -73.5q-94 0 -163.5 37t-120.5 102h-17v-498zM592 194q83 0 136 43t78.5 112.5t25.5 148.5q0 83 -26.5 151.5t-80 110t-135.5 41.5
q-61 0 -116 -27t-91 -79v-373q34 -59 85.5 -93.5t123.5 -34.5z" />
    <glyph glyph-name="uni0441" unicode="&#x441;" horiz-adv-x="976" 
d="M601 -21q-167 0 -283.5 67.5t-177 184.5t-60.5 266q0 150 56.5 268.5t168.5 187t277 68.5q88 0 173 -20t145 -53l-20 -222q-85 48 -150.5 63t-113.5 15q-126 0 -201.5 -81.5t-75.5 -218.5q0 -136 80.5 -224.5t237.5 -88.5q59 0 117 16t111 50l15 -222q-51 -23 -125 -39.5
t-174 -16.5z" />
    <glyph glyph-name="uni0442" unicode="&#x442;" horiz-adv-x="955" 
d="M351 0v795h-312v201h877v-201h-311v-795h-254z" />
    </font>
</defs>
</svg>
